{
.appVersion = "1009";
DisplayStrings = (
"/hamzaabove-ar"
);
classes = (
{
automatic = 1;
code = "A Aacute Abreve Abrevegrave Acircumflex Adieresis Agrave Amacron Aogonek Aring Aringacute Atilde AE AEacute B C Cacute Ccaron Ccedilla Ccircumflex Cdotaccent D Eth Dcaron Dcroat E Eacute Ebreve Ecaron Ecircumflex Edieresis Edotaccent Egrave Emacron Eogonek F G Gbreve Gcircumflex Gcommaaccent Gdotaccent H Hbar Hcircumflex I Iacute Ibreve Icircumflex Idieresis Idotaccent Igrave Imacron Iogonek Itilde J Jcircumflex K Kcommaaccent L Lacute Lcaron Lcommaaccent Lslash M N Nacute Ncaron Ncommaaccent Eng Ntilde O Oacute Obreve Ocircumflex Odieresis Ograve Ohungarumlaut Omacron Oslash Oslashacute Otilde OE P Thorn Q R Racute Rcaron Rcommaaccent S Sacute Scaron Scedilla Scircumflex Scommaaccent T Tbar Tcaron Tcedilla Tcommaaccent U Uacute Ubreve Ucircumflex Udieresis Ugrave Uhungarumlaut Umacron Uogonek Uring Utilde V W Wacute Wcircumflex Wdieresis Wgrave X Y Yacute Ycircumflex Ydieresis Ygrave Ytilde Z Zacute Zcaron Zdotaccent";
name = Uppercase;
}
);
copyright = "Copyright 2009 The Cairo Project Authors (gaber@gaberism.net)";
customParameters = (
{
name = openTypeNameLicense;
value = "This Font Software is licensed under the SIL Open Font License, Version 1.1. This license is available with a FAQ at: http://scripts.sil.org/OFL";
},
{
name = openTypeNameLicenseURL;
value = "http://scripts.sil.org/OFL";
},
{
name = openTypeNameUniqueID;
value = "1.001;UKWN;TitilliumWeb-Light";
},
{
name = openTypeNameVersion;
value = "Version 1.001;PS 57.000;hotconv 1.0.70;makeotf.lib2.5.55311";
},
{
name = openTypeOS2CodePageRanges;
value = (
0,
1,
4,
7,
29
);
},
{
name = openTypeOS2FamilyClass;
value = (
0,
0
);
},
{
name = openTypeOS2Panose;
value = (
0,
0,
4,
0,
0,
0,
0,
0,
0,
0
);
},
{
name = openTypeOS2StrikeoutPosition;
value = 300;
},
{
name = openTypeOS2StrikeoutSize;
value = 30;
},
{
name = openTypeOS2SubscriptXOffset;
value = 0;
},
{
name = openTypeOS2SubscriptXSize;
value = 650;
},

glyphs = (
{
glyphname = A;
lastChange = "2017-03-22 00:12:51 +0000";
layers = (
{
anchors = (
{
name = bottom;
position = "{297, 0}";
},
{
name = ogonek;
position = "{535, 0}";
},
{
name = top;
position = "{297, 783}";
}
);
layerId = "8FFE84BD-9390-4D75-BABD-68166BF44E93";
paths = (
{
closed = 1;
nodes = (
"87 0 LINE",
"270 641 LINE",
"324 641 LINE",
"508 0 LINE",
"569 0 LINE",
"370 695 LINE",
"225 695 LINE",
"25 0 LINE"
);
},
{
closed = 1;
nodes = (
"461 192 LINE",
"446 247 LINE",
"146 247 LINE",
"134 192 LINE"
);
}
);
width = 594;
},
{
anchors = (
{
name = bottom;
position = "{298, 0}";
},
{
name = ogonek;
position = "{532, 0}";
},
{
name = top;
position = "{298, 749}";
}
);
layerId = "0596A6ED-150F-4F1F-BF1E-4449A7B9DE21";
paths = (
{
closed = 1;
nodes = (
"100 0 LINE",
"272 626 LINE",
"324 626 LINE",
"496 0 LINE",
"572 0 LINE",
"382 692 LINE",
"214 692 LINE",
"24 0 LINE"
);
},
{
closed = 1;
nodes = (
"469 178 LINE",
"450 247 LINE",
"151 247 LINE",
"132 178 LINE"
);
}
);
width = 596;
},
{
anchors = (
{
name = bottom;
position = "{301, 0}";
},
{
name = ogonek;
position = "{512, 0}";
},
{
name = top;
position = "{301, 723}";
}
);
layerId = "1FB77202-83CB-408E-8929-4AFC59A3446D";
paths = (
{
closed = 1;
nodes = (
"155 0 LINE",
"277 566 LINE",
"325 566 LINE",
"447 0 LINE",
"585 0 LINE",
"432 680 LINE",
"170 680 LINE",
"17 0 LINE"
);
},
{
closed = 1;
nodes = (
"437 123 LINE",
"408 243 LINE",
"192 243 LINE",
"162 123 LINE"
);
}
);
width = 602;
}
);
unicode = 0041;
},
{
glyphname = AE;
lastChange = "2017-03-20 23:29:15 +0000";
layers = (
{
components = (
{
name = E;
transform = "{1, 0, 0, 1, 324, 0}";
}
);
layerId = "8FFE84BD-9390-4D75-BABD-68166BF44E93";
paths = (
{
closed = 1;
nodes = (
"86 0 LINE",
"315 680 LINE",
"256 639 LINE",
"458 639 LINE",
"458 695 LINE",
"256 695 LINE",
"22 0 LINE"
);
},
{
closed = 1;
nodes = (
"422 190 LINE",
"422 249 LINE",
"160 249 LINE",
"141 190 LINE"
);
}
);
width = 877;
},
{
components = (
{
name = E;
transform = "{1, 0, 0, 1, 323, 0}";
}
);
layerId = "0596A6ED-150F-4F1F-BF1E-4449A7B9DE21";
paths = (
{
closed = 1;
nodes = (
"99 0 LINE",
"314 662 LINE",
"255 624 LINE",
"463 624 LINE",
"463 692 LINE",
"244 692 LINE",
"20 0 LINE"
);
},
{
closed = 1;
nodes = (
"426 175 LINE",
"426 249 LINE",
"170 249 LINE",
"147 175 LINE"
);
}
);
width = 876;
},
{
components = (
{
name = E;
transform = "{1, 0, 0, 1, 316, 0}";
}
);
layerId = "1FB77202-83CB-408E-8929-4AFC59A3446D";
paths = (
{
closed = 1;
nodes = (
"150 0 LINE",
"304 602 LINE",
"248 560 LINE",
"429 560 LINE",
"429 680 LINE",
"187 680 LINE",
"12 0 LINE"
);
},
{
closed = 1;
nodes = (
"415 116 LINE",
"415 249 LINE",
"208 249 LINE",
"169 116 LINE"
);
}
);
width = 871;
}
);
unicode = 00C6;
},
{
glyphname = B;
lastChange = "2017-03-20 23:48:11 +0000";
layers = (
{
anchors = (
{
name = bottom;
position = "{309, 0}";
},
{
name = top;
position = "{309, 695}";
}
);
layerId = "8FFE84BD-9390-4D75-BABD-68166BF44E93";
paths = (
{
closed = 1;
nodes = (
"349 0 LINE SMOOTH",
"485 0 OFFCURVE",
"562 53 OFFCURVE",
"562 188 CURVE SMOOTH",
"562 295 OFFCURVE",
"513 348 OFFCURVE",
"413 366 CURVE",
"417 348 LINE",
"499 368 OFFCURVE",
"539 428 OFFCURVE",
"539 519 CURVE SMOOTH",
"539 637 OFFCURVE",
"472 695 OFFCURVE",
"334 695 CURVE SMOOTH",
"87 695 LINE",
"87 0 LINE"
);
},
{
closed = 1;
nodes = (
"149 372 LINE",
"114 327 LINE",
"342 327 LINE SMOOTH",
"450 327 OFFCURVE",
"499 283 OFFCURVE",
"499 191 CURVE SMOOTH",
"499 91 OFFCURVE",
"442 55 OFFCURVE",
"348 55 CURVE SMOOTH",
"114 55 LINE",
"149 20 LINE"
);
},
{
closed = 1;
nodes = (
"149 675 LINE",
"114 640 LINE",
"332 640 LINE SMOOTH",
"430 640 OFFCURVE",
"476 602 OFFCURVE",
"476 513 CURVE SMOOTH",
"476 426 OFFCURVE",
"433 381 OFFCURVE",
"341 381 CURVE SMOOTH",
"114 381 LINE",
"149 336 LINE"
);
}
);
width = 617;
},
{
anchors = (
{
name = bottom;
position = "{308, 0}";
},
{
name = top;
position = "{308, 692}";
}
);
layerId = "0596A6ED-150F-4F1F-BF1E-4449A7B9DE21";
paths = (
{
closed = 1;
nodes = (
"349 0 LINE SMOOTH",
"485 0 OFFCURVE",
"563 55 OFFCURVE",
"563 189 CURVE SMOOTH",
"563 294 OFFCURVE",
"515 344 OFFCURVE",
"421 366 CURVE",
"423 345 LINE",
"502 372 OFFCURVE",
"542 417 OFFCURVE",
"542 513 CURVE SMOOTH",
"542 637 OFFCURVE",
"475 692 OFFCURVE",
"336 692 CURVE SMOOTH",
"85 692 LINE",
"85 0 LINE"
);
},
{
closed = 1;
nodes = (
"162 363 LINE",
"117 318 LINE",
"341 318 LINE SMOOTH",
"420 318 OFFCURVE",
"485 291 OFFCURVE",
"485 191 CURVE SMOOTH",
"485 101 OFFCURVE",
"433 68 OFFCURVE",
"346 68 CURVE SMOOTH",
"117 68 LINE",
"162 23 LINE"
);
},
{
closed = 1;
nodes = (
"162 669 LINE",
"117 624 LINE",
"333 624 LINE SMOOTH",
"423 624 OFFCURVE",
"463 590 OFFCURVE",
"463 507 CURVE SMOOTH",
"463 426 OFFCURVE",
"425 385 OFFCURVE",
"340 385 CURVE SMOOTH",
"117 385 LINE",
"162 340 LINE"
);
}
);
width = 616;
},
{
anchors = (
{
name = bottom;
position = "{305, 0}";
},
{
name = top;
position = "{305, 680}";
}
);
layerId = "1FB77202-83CB-408E-8929-4AFC59A3446D";
paths = (
{
closed = 1;
nodes = (
"345 0 LINE SMOOTH",
"485 0 OFFCURVE",
"566 62 OFFCURVE",
"566 198 CURVE SMOOTH",
"566 292 OFFCURVE",
"527 340 OFFCURVE",
"448 360 CURVE",
"445 332 LINE",
"527 371 OFFCURVE",
"553 416 OFFCURVE",
"553 496 CURVE SMOOTH",
"553 627 OFFCURVE",
"484 680 OFFCURVE",
"341 680 CURVE SMOOTH",
"74 680 LINE",
"74 0 LINE"
);
},
{
closed = 1;
nodes = (
"212 329 LINE",
"167 284 LINE",
"338 284 LINE SMOOTH",
"399 284 OFFCURVE",
"426 257 OFFCURVE",
"426 199 CURVE SMOOTH",
"426 138 OFFCURVE",
"396 118 OFFCURVE",
"338 118 CURVE SMOOTH",
"167 118 LINE",
"212 73 LINE"
);
},
{
closed = 1;
nodes = (
"212 607 LINE",
"167 562 LINE",
"334 562 LINE SMOOTH",
"387 562 OFFCURVE",
"413 535 OFFCURVE",
"413 481 CURVE SMOOTH",
"413 427 OFFCURVE",
"387 400 OFFCURVE",
"335 400 CURVE SMOOTH",
"167 400 LINE",
"212 355 LINE"
);
}
);
width = 609;
}
);
unicode = 0042;
},
{
glyphname = C;
lastChange = "2017-03-20 23:49:24 +0000";
layers = (
{
anchors = (
{
name = bottom;
position = "{272, 0}";
},
{
name = top;
position = "{292, 765}";
}
);
layerId = "8FFE84BD-9390-4D75-BABD-68166BF44E93";
paths = (
{
closed = 1;
nodes = (
"376 -10 OFFCURVE",
"433 -3 OFFCURVE",
"502 11 CURVE",
"499 65 LINE",
"430 52 OFFCURVE",
"373 46 OFFCURVE",
"326 46 CURVE SMOOTH",
"170 46 OFFCURVE",
"124 112 OFFCURVE",
"124 342 CURVE SMOOTH",
"124 587 OFFCURVE",
"176 649 OFFCURVE",
"329 649 CURVE SMOOTH",
"376 649 OFFCURVE",
"430 643 OFFCURVE",
"499 630 CURVE",
"502 684 LINE",
"432 698 OFFCURVE",
"369 705 OFFCURVE",
"313 705 CURVE SMOOTH",
"151 705 OFFCURVE",
"62 646 OFFCURVE",
"62 338 CURVE SMOOTH",
"62 108 OFFCURVE",
"112 -10 OFFCURVE",
"324 -10 CURVE SMOOTH"
);
}
);
width = 544;
},
{
anchors = (
{
name = bottom;
position = "{272, 0}";
},
{
name = top;
position = "{302, 752}";
}
);
layerId = "0596A6ED-150F-4F1F-BF1E-4449A7B9DE21";
paths = (
{
closed = 1;
nodes = (
"372 -10 OFFCURVE",
"434 -3 OFFCURVE",
"503 11 CURVE",
"500 77 LINE",
"436 65 OFFCURVE",
"380 59 OFFCURVE",
"335 59 CURVE SMOOTH",
"160 59 OFFCURVE",
"139 151 OFFCURVE",
"139 335 CURVE SMOOTH",
"139 558 OFFCURVE",
"170 633 OFFCURVE",
"326 633 CURVE SMOOTH",
"370 633 OFFCURVE",
"433 627 OFFCURVE",
"500 615 CURVE",
"503 680 LINE",
"431 695 OFFCURVE",
"367 702 OFFCURVE",
"316 702 CURVE SMOOTH",
"103 702 OFFCURVE",
"59 577 OFFCURVE",
"59 346 CURVE SMOOTH",
"59 115 OFFCURVE",
"103 -10 OFFCURVE",
"321 -10 CURVE SMOOTH"
);
}
);
width = 544;
},
{
anchors = (
{
name = bottom;
position = "{272, 0}";
},
{
name = top;
position = "{292, 722}";
}
);
layerId = "1FB77202-83CB-408E-8929-4AFC59A3446D";
paths = (
{
closed = 1;
nodes = (
"371 -12 OFFCURVE",
"434 -4 OFFCURVE",
"505 11 CURVE",
"502 124 LINE",
"440 115 OFFCURVE",
"378 110 OFFCURVE",
"338 110 CURVE SMOOTH",
"209 110 OFFCURVE",
"192 161 OFFCURVE",
"189 319 CURVE SMOOTH",
"185 506 OFFCURVE",
"207 570 OFFCURVE",
"341 570 CURVE SMOOTH",
"379 570 OFFCURVE",
"436 565 OFFCURVE",
"502 555 CURVE",
"506 665 LINE",
"431 683 OFFCURVE",
"365 692 OFFCURVE",
"303 692 CURVE SMOOTH",
"108 692 OFFCURVE",
"47 603 OFFCURVE",
"47 337 CURVE SMOOTH",
"47 106 OFFCURVE",
"93 -12 OFFCURVE",
"314 -12 CURVE SMOOTH"
);
}
);
width = 543;
},
{
associatedMasterId = "8FFE84BD-9390-4D75-BABD-68166BF44E93";
layerId = "6D49E500-1909-4F61-9A35-931A7C6BDA93";
name = "Mar 21 17, 01:36";
paths = (
{
closed = 1;
nodes = (
"376 -10 OFFCURVE",
"433 -3 OFFCURVE",
"502 11 CURVE",
"499 65 LINE",
"430 52 OFFCURVE",
"372 46 OFFCURVE",
"328 46 CURVE SMOOTH",
"149 46 OFFCURVE",
"126 145 OFFCURVE",
"126 357 CURVE SMOOTH",
"126 528 OFFCURVE",
"141 649 OFFCURVE",
"332 649 CURVE SMOOTH",
"374 649 OFFCURVE",
"430 643 OFFCURVE",
"499 630 CURVE",
"502 684 LINE",
"432 698 OFFCURVE",
"369 705 OFFCURVE",
"313 705 CURVE SMOOTH",
"151 705 OFFCURVE",
"62 646 OFFCURVE",
"62 338 CURVE SMOOTH",
"62 108 OFFCURVE",
"112 -10 OFFCURVE",
"324 -10 CURVE SMOOTH"
);
}
);
width = 544;
},
{
associatedMasterId = "8FFE84BD-9390-4D75-BABD-68166BF44E93";
layerId = "899D077D-4700-4851-BA63-E770192BF9E2";
name = "Mar 21 17, 01:40";
paths = (
{
closed = 1;
nodes = (
"376 -10 OFFCURVE",
"433 -3 OFFCURVE",
"502 11 CURVE",
"499 65 LINE",
"427 50 OFFCURVE",
"372 45 OFFCURVE",
"327 45 CURVE SMOOTH",
"167 45 OFFCURVE",
"124 110 OFFCURVE",
"124 348 CURVE SMOOTH",
"124 588 OFFCURVE",
"168 650 OFFCURVE",
"324 650 CURVE SMOOTH",
"363 650 OFFCURVE",
"428 646 OFFCURVE",
"499 630 CURVE",
"502 684 LINE",
"432 698 OFFCURVE",
"369 705 OFFCURVE",
"313 705 CURVE SMOOTH",
"151 705 OFFCURVE",
"62 646 OFFCURVE",
"62 338 CURVE SMOOTH",
"62 108 OFFCURVE",
"112 -10 OFFCURVE",
"324 -10 CURVE SMOOTH"
);
}
);
width = 544;
},
{
associatedMasterId = "0596A6ED-150F-4F1F-BF1E-4449A7B9DE21";
layerId = "1A3F8472-A314-4EB7-ABFB-F642F80561EF";
name = "Mar 21 17, 01:45";
paths = (
{
closed = 1;
nodes = (
"372 -10 OFFCURVE",
"434 -3 OFFCURVE",
"503 11 CURVE",
"500 77 LINE",
"436 65 OFFCURVE",
"380 59 OFFCURVE",
"335 59 CURVE SMOOTH",
"160 59 OFFCURVE",
"139 151 OFFCURVE",
"139 335 CURVE SMOOTH",
"139 558 OFFCURVE",
"170 633 OFFCURVE",
"326 633 CURVE SMOOTH",
"370 633 OFFCURVE",
"433 627 OFFCURVE",
"500 615 CURVE",
"503 680 LINE",
"431 695 OFFCURVE",
"367 702 OFFCURVE",
"316 702 CURVE SMOOTH",
"103 702 OFFCURVE",
"59 577 OFFCURVE",
"59 346 CURVE SMOOTH",
"59 115 OFFCURVE",
"103 -10 OFFCURVE",
"321 -10 CURVE SMOOTH"
);
}
);
width = 544;
},
{
associatedMasterId = "1FB77202-83CB-408E-8929-4AFC59A3446D";
layerId = "4017FE35-1F89-4D00-906C-8E0599360260";
name = "Mar 21 17, 01:45";
paths = (
{
closed = 1;
nodes = (
"371 -12 OFFCURVE",
"434 -4 OFFCURVE",
"505 11 CURVE",
"502 124 LINE",
"440 115 OFFCURVE",
"378 110 OFFCURVE",
"338 110 CURVE SMOOTH",
"209 110 OFFCURVE",
"192 161 OFFCURVE",
"189 319 CURVE SMOOTH",
"185 508 OFFCURVE",
"208 570 OFFCURVE",
"341 570 CURVE SMOOTH",
"379 570 OFFCURVE",
"436 565 OFFCURVE",
"502 555 CURVE",
"506 665 LINE",
"431 683 OFFCURVE",
"365 692 OFFCURVE",
"303 692 CURVE SMOOTH",
"108 692 OFFCURVE",
"47 603 OFFCURVE",
"47 337 CURVE SMOOTH",
"47 106 OFFCURVE",
"93 -12 OFFCURVE",
"314 -12 CURVE SMOOTH"
);
}
);
width = 543;
}
);
unicode = 0043;
},
{
glyphname = D;
lastChange = "2017-03-21 00:15:31 +0000";
layers = (
{
anchors = (
{
name = bottom;
position = "{293, 0}";
},
{
name = top;
position = "{293, 767}";
}
);
layerId = "8FFE84BD-9390-4D75-BABD-68166BF44E93";
paths = (
{
closed = 1;
nodes = (
"340 0 LINE SMOOTH",
"505 0 OFFCURVE",
"587 121 OFFCURVE",
"587 352 CURVE SMOOTH",
"587 581 OFFCURVE",
"507 695 OFFCURVE",
"340 695 CURVE SMOOTH",
"87 695 LINE",
"87 0 LINE"
);
},
{
closed = 1;
nodes = (
"149 684 LINE",
"104 639 LINE",
"340 639 LINE SMOOTH",
"463 639 OFFCURVE",
"525 546 OFFCURVE",
"525 353 CURVE SMOOTH",
"525 158 OFFCURVE",
"462 55 OFFCURVE",
"340 55 CURVE SMOOTH",
"104 55 LINE",
"149 10 LINE"
);
}
);
width = 646;
},
{
anchors = (
{
name = bottom;
position = "{293, 0}";
},
{
name = top;
position = "{293, 747}";
}
);
layerId = "0596A6ED-150F-4F1F-BF1E-4449A7B9DE21";
paths = (
{
closed = 1;
nodes = (
"332 0 LINE SMOOTH",
"504 0 OFFCURVE",
"588 106 OFFCURVE",
"588 363 CURVE SMOOTH",
"588 524 OFFCURVE",
"555 692 OFFCURVE",
"332 692 CURVE SMOOTH",
"85 692 LINE",
"85 0 LINE"
);
},
{
closed = 1;
nodes = (
"162 669 LINE",
"117 624 LINE",
"332 624 LINE SMOOTH",
"452 624 OFFCURVE",
"511 545 OFFCURVE",
"511 356 CURVE SMOOTH",
"511 164 OFFCURVE",
"450 68 OFFCURVE",
"332 68 CURVE SMOOTH",
"117 68 LINE",
"162 23 LINE"
);
}
);
width = 645;
},
{
anchors = (
{
name = bottom;
position = "{303, 0}";
},
{
name = top;
position = "{303, 717}";
}
);
layerId = "1FB77202-83CB-408E-8929-4AFC59A3446D";
paths = (
{
closed = 1;
nodes = (
"303 0 LINE",
"537 0 OFFCURVE",
"592 106 OFFCURVE",
"592 351 CURVE",
"592 588 OFFCURVE",
"535 680 OFFCURVE",
"303 680 CURVE",
"74 680 LINE",
"74 0 LINE"
);
},
{
closed = 1;
nodes = (
"212 630 LINE",
"144 560 LINE",
"303 560 LINE",
"425 560 OFFCURVE",
"454 504 OFFCURVE",
"454 359 CURVE",
"454 201 OFFCURVE",
"428 120 OFFCURVE",
"303 120 CURVE",
"144 120 LINE",
"212 52 LINE"
);
}
);
width = 638;
}
);
unicode = 0044;
},
{
glyphname = E;
lastChange = "2017-03-21 00:24:52 +0000";
layers = (
{
anchors = (
{
name = bottom;
position = "{276, 0}";
},
{
name = ogonek;
position = "{457, 10}";
},
{
name = top;
position = "{286, 765}";
},
{
name = topleft;
position = "{20, 0}";
}
);
layerId = "8FFE84BD-9390-4D75-BABD-68166BF44E93";
paths = (
{
closed = 1;
nodes = (
"504 0 LINE",
"504 55 LINE",
"104 55 LINE",
"149 10 LINE",
"149 371 LINE",
"104 326 LINE",
"444 326 LINE",
"444 381 LINE",
"104 381 LINE",
"149 336 LINE",
"149 684 LINE",
"104 639 LINE",
"504 639 LINE",
"504 695 LINE",
"87 695 LINE",
"87 0 LINE"
);
}
);
width = 552;
},
{
anchors = (
{
name = bottom;
position = "{277, 0}";
},
{
name = ogonek;
position = "{448, 10}";
},
{
name = top;
position = "{297, 752}";
},
{
name = topleft;
position = "{20, 0}";
}
);
layerId = "0596A6ED-150F-4F1F-BF1E-4449A7B9DE21";
paths = (
{
closed = 1;
nodes = (
"506 0 LINE",
"506 68 LINE",
"117 68 LINE",
"162 23 LINE",
"162 363 LINE",
"117 318 LINE",
"446 318 LINE",
"446 385 LINE",
"117 385 LINE",
"162 340 LINE",
"162 669 LINE",
"117 624 LINE",
"506 624 LINE",
"506 692 LINE",
"85 692 LINE",
"85 0 LINE"
);
}
);
width = 553;
},
{
anchors = (
{
name = bottom;
position = "{277, 0}";
},
{
name = ogonek;
position = "{429, 10}";
},
{
name = top;
position = "{297, 720}";
},
{
name = topleft;
position = "{20, 0}";
}
);
layerId = "1FB77202-83CB-408E-8929-4AFC59A3446D";
paths = (
{
closed = 1;
nodes = (
"514 0 LINE",
"514 120 LINE",
"167 120 LINE",
"212 75 LINE",
"212 328 LINE",
"167 283 LINE",
"454 283 LINE",
"454 401 LINE",
"167 401 LINE",
"212 356 LINE",
"212 605 LINE",
"167 560 LINE",
"514 560 LINE",
"514 680 LINE",
"74 680 LINE",
"74 0 LINE"
);
}
);
width = 554;
}
);
unicode = 0045;
},
{
glyphname = F;
lastChange = "2017-03-21 00:25:42 +0000";
layers = (
{
anchors = (
{
name = bottom;
position = "{263, 0}";
},
{
name = top;
position = "{263, 695}";
}
);
layerId = "8FFE84BD-9390-4D75-BABD-68166BF44E93";
paths = (
{
closed = 1;
nodes = (
"87 0 LINE",
"87 695 LINE",
"497 695 LINE",
"497 639 LINE",
"104 639 LINE",
"149 684 LINE",
"149 307 LINE",
"104 352 LINE",
"445 352 LINE",
"445 297 LINE",
"104 297 LINE",
"149 342 LINE",
"149 0 LINE"
);
}
);
width = 525;
},
{
anchors = (
{
name = bottom;
position = "{263, 0}";
},
{
name = top;
position = "{263, 692}";
}
);
layerId = "0596A6ED-150F-4F1F-BF1E-4449A7B9DE21";
paths = (
{
closed = 1;
nodes = (
"85 0 LINE",
"85 692 LINE",
"499 692 LINE",
"499 624 LINE",
"117 624 LINE",
"162 669 LINE",
"162 309 LINE",
"117 354 LINE",
"447 354 LINE",
"447 286 LINE",
"117 286 LINE",
"162 331 LINE",
"162 0 LINE"
);
}
);
width = 526;
},
{
anchors = (
{
name = bottom;
position = "{266, 0}";
},
{
name = top;
position = "{266, 680}";
}
);
layerId = "1FB77202-83CB-408E-8929-4AFC59A3446D";
paths = (
{
closed = 1;
nodes = (
"74 0 LINE",
"74 680 LINE",
"508 680 LINE",
"508 560 LINE",
"167 560 LINE",
"212 605 LINE",
"212 315 LINE",
"167 360 LINE",
"454 360 LINE",
"454 240 LINE",
"167 240 LINE",
"212 285 LINE",
"212 0 LINE"
);
}
);
width = 531;
}
);
unicode = 0046;
},
{
glyphname = G;
lastChange = "2017-03-21 00:31:05 +0000";
layers = (
{
anchors = (
{
name = bottom;
position = "{309, 0}";
},
{
name = top;
position = "{329, 785}";
}
);
layerId = "8FFE84BD-9390-4D75-BABD-68166BF44E93";
paths = (
{
closed = 1;
nodes = (
"390 -10 OFFCURVE",
"510 7 OFFCURVE",
"549 15 CURVE",
"549 351 LINE",
"360 351 LINE",
"360 296 LINE",
"488 296 LINE",
"488 62 LINE",
"429 51 OFFCURVE",
"376 46 OFFCURVE",
"329 46 CURVE SMOOTH",
"169 46 OFFCURVE",
"124 135 OFFCURVE",
"124 346 CURVE SMOOTH",
"124 557 OFFCURVE",
"169 649 OFFCURVE",
"330 649 CURVE SMOOTH",
"391 649 OFFCURVE",
"463 641 OFFCURVE",
"546 626 CURVE",
"549 679 LINE",
"449 699 OFFCURVE",
"396 705 OFFCURVE",
"325 705 CURVE SMOOTH",
"116 705 OFFCURVE",
"60 572 OFFCURVE",
"60 345 CURVE SMOOTH",
"60 106 OFFCURVE",
"126 -10 OFFCURVE",
"326 -10 CURVE SMOOTH"
);
}
);
width = 617;
},
{
anchors = (
{
name = bottom;
position = "{308, 0}";
},
{
name = top;
position = "{328, 752}";
}
);
layerId = "0596A6ED-150F-4F1F-BF1E-4449A7B9DE21";
paths = (
{
closed = 1;
nodes = (
"391 -10 OFFCURVE",
"466 -2 OFFCURVE",
"550 14 CURVE",
"550 354 LINE",
"359 354 LINE",
"359 285 LINE",
"474 285 LINE",
"474 72 LINE",
"425 63 OFFCURVE",
"378 58 OFFCURVE",
"331 58 CURVE SMOOTH",
"179 58 OFFCURVE",
"137 140 OFFCURVE",
"137 346 CURVE SMOOTH",
"137 552 OFFCURVE",
"179 633 OFFCURVE",
"332 633 CURVE SMOOTH",
"393 633 OFFCURVE",
"464 626 OFFCURVE",
"547 612 CURVE",
"550 676 LINE",
"452 695 OFFCURVE",
"388 702 OFFCURVE",
"323 702 CURVE SMOOTH",
"124 702 OFFCURVE",
"57 588 OFFCURVE",
"57 346 CURVE SMOOTH",
"57 104 OFFCURVE",
"124 -10 OFFCURVE",
"325 -10 CURVE SMOOTH"
);
}
);
width = 616;
},
{
anchors = (
{
name = bottom;
position = "{306, 0}";
},
{
name = top;
position = "{316, 723}";
}
);
layerId = "1FB77202-83CB-408E-8929-4AFC59A3446D";
paths = (
{
closed = 1;
nodes = (
"382 -12 OFFCURVE",
"460 -4 OFFCURVE",
"555 11 CURVE",
"555 364 LINE",
"357 364 LINE",
"357 244 LINE",
"419 244 LINE",
"419 112 LINE",
"401 109 OFFCURVE",
"357 108 OFFCURVE",
"336 108 CURVE",
"217 108 OFFCURVE",
"187 163 OFFCURVE",
"187 320 CURVE",
"187 477 OFFCURVE",
"184 570 OFFCURVE",
"355 570 CURVE",
"406 570 OFFCURVE",
"471 566 OFFCURVE",
"551 557 CURVE",
"555 664 LINE",
"450 684 OFFCURVE",
"383 692 OFFCURVE",
"318 692 CURVE",
"119 692 OFFCURVE",
"45 590 OFFCURVE",
"45 343 CURVE",
"45 96 OFFCURVE",
"111 -12 OFFCURVE",
"323 -12 CURVE"
);
}
);
width = 611;
}
);
unicode = 0047;
},
{
glyphname = H;
lastChange = "2017-04-18 23:31:26 +0000";
layers = (
{
anchors = (
{
name = bottom;
position = "{338, 0}";
},
{
name = center;
position = "{338, 0}";
},
{
name = top;
position = "{338, 785}";
},
{
name = topleft;
position = "{20, 695}";
}
);
layerId = "8FFE84BD-9390-4D75-BABD-68166BF44E93";
paths = (
{
closed = 1;
nodes = (
"149 0 LINE",
"149 695 LINE",
"87 695 LINE",
"87 0 LINE"
);
},
{
closed = 1;
nodes = (
"544 321 LINE",
"544 376 LINE",
"132 376 LINE",
"132 321 LINE"
);
},
{
closed = 1;
nodes = (
"587 0 LINE",
"587 695 LINE",
"526 695 LINE",
"526 0 LINE"
);
}
);
width = 675;
},
{
anchors = (
{
name = bottom;
position = "{338, 0}";
},
{
name = center;
position = "{338, 0}";
},
{
name = top;
position = "{338, 752}";
},
{
name = topleft;
position = "{20, 692}";
}
);
layerId = "0596A6ED-150F-4F1F-BF1E-4449A7B9DE21";
paths = (
{
closed = 1;
nodes = (
"162 0 LINE",
"162 692 LINE",
"85 692 LINE",
"85 0 LINE"
);
},
{
closed = 1;
nodes = (
"524 313 LINE",
"524 382 LINE",
"152 382 LINE",
"152 313 LINE"
);
},
{
closed = 1;
nodes = (
"590 0 LINE",
"590 692 LINE",
"514 692 LINE",
"514 0 LINE"
);
}
);
width = 675;
},
{
anchors = (
{
name = bottom;
position = "{339, 0}";
},
{
name = center;
position = "{339, 0}";
},
{
name = top;
position = "{339, 720}";
},
{
name = topleft;
position = "{20, 680}";
}
);
layerId = "1FB77202-83CB-408E-8929-4AFC59A3446D";
paths = (
{
closed = 1;
nodes = (
"212 0 LINE",
"212 680 LINE",
"74 680 LINE",
"74 0 LINE"
);
},
{
closed = 1;
nodes = (
"475 284 LINE",
"475 400 LINE",
"197 400 LINE",
"197 284 LINE"
);
},
{
closed = 1;
nodes = (
"603 0 LINE",
"603 680 LINE",
"465 680 LINE",
"465 0 LINE"
);
}
);
width = 677;
}
);
unicode = 0048;
},
{
glyphname = Hbar;
lastChange = "2017-03-21 00:38:36 +0000";
layers = (
{
components = (
{
name = H;
}
);
layerId = "8FFE84BD-9390-4D75-BABD-68166BF44E93";
paths = (
{
closed = 1;
nodes = (
"677 513 LINE",
"677 566 LINE",
"14 566 LINE",
"14 513 LINE"
);
}
);
width = 686;
},
{
components = (
{
name = H;
}
);
layerId = "0596A6ED-150F-4F1F-BF1E-4449A7B9DE21";
paths = (
{
closed = 1;
nodes = (
"677 508 LINE",
"677 573 LINE",
"15 573 LINE",
"15 508 LINE"
);
}
);
width = 686;
},
{
components = (
{
name = H;
}
);
layerId = "1FB77202-83CB-408E-8929-4AFC59A3446D";
paths = (
{
closed = 1;
nodes = (
"673 486 LINE",
"673 602 LINE",
"19 602 LINE",
"19 486 LINE"
);
}
);
width = 685;
}
);
unicode = 0126;
},
{
glyphname = I;
lastChange = "2017-04-18 23:31:14 +0000";
layers = (
{
anchors = (
{
name = bottom;
position = "{118, 0}";
},
{
name = ogonek;
position = "{117, -1}";
},
{
name = top;
position = "{118, 765}";
},
{
name = topleft;
position = "{20, 695}";
}
);
layerId = "8FFE84BD-9390-4D75-BABD-68166BF44E93";
paths = (
{
closed = 1;
nodes = (
"149 0 LINE",
"149 695 LINE",
"87 695 LINE",
"87 0 LINE"
);
}
);
width = 236;
},
{
anchors = (
{
name = bottom;
position = "{123, 0}";
},
{
name = ogonek;
position = "{129, -1}";
},
{
name = top;
position = "{123, 748}";
},
{
name = topleft;
position = "{20, 692}";
}
);
layerId = "0596A6ED-150F-4F1F-BF1E-4449A7B9DE21";
paths = (
{
closed = 1;
nodes = (
"162 0 LINE",
"162 692 LINE",
"85 692 LINE",
"85 0 LINE"
);
}
);
width = 246;
},
{
anchors = (
{
name = bottom;
position = "{143, 0}";
},
{
name = ogonek;
position = "{152, 0}";
},
{
name = top;
position = "{143, 720}";
},
{
name = topleft;
position = "{20, 680}";
}
);
layerId = "1FB77202-83CB-408E-8929-4AFC59A3446D";
paths = (
{
closed = 1;
nodes = (
"212 0 LINE",
"212 680 LINE",
"74 680 LINE",
"74 0 LINE"
);
}
);
width = 286;
}
);
unicode = 0049;
},
{
glyphname = J;
lastChange = "2017-03-21 12:22:22 +0000";
layers = (
{
anchors = (
{
name = bottom;
position = "{143, 0}";
},
{
name = top;
position = "{169, 777}";
}
);
layerId = "8FFE84BD-9390-4D75-BABD-68166BF44E93";
paths = (
{
closed = 1;
nodes = (
"161 -72 OFFCURVE",
"201 -52 OFFCURVE",
"201 89 CURVE SMOOTH",
"201 695 LINE",
"140 695 LINE",
"140 102 LINE SMOOTH",
"140 -2 OFFCURVE",
"130 -17 OFFCURVE",
"18 -17 CURVE",
"18 -72 LINE"
);
}
);
width = 285;
},
{
anchors = (
{
name = bottom;
position = "{145, 0}";
},
{
name = top;
position = "{169, 749}";
}
);
layerId = "0596A6ED-150F-4F1F-BF1E-4449A7B9DE21";
paths = (
{
closed = 1;
nodes = (
"138 -72 OFFCURVE",
"208 -64 OFFCURVE",
"208 95 CURVE SMOOTH",
"207 692 LINE",
"131 692 LINE",
"131 106 LINE SMOOTH",
"131 7 OFFCURVE",
"114 -3 OFFCURVE",
"18 -3 CURVE",
"18 -72 LINE"
);
}
);
width = 289;
},
{
anchors = (
{
name = bottom;
position = "{151, 0}";
},
{
name = top;
position = "{160, 724}";
}
);
layerId = "1FB77202-83CB-408E-8929-4AFC59A3446D";
paths = (
{
closed = 1;
nodes = (
"175 -70 OFFCURVE",
"233 -30 OFFCURVE",
"233 115 CURVE SMOOTH",
"232 680 LINE",
"95 680 LINE",
"95 121 LINE SMOOTH",
"95 66 OFFCURVE",
"72 50 OFFCURVE",
"19 50 CURVE",
"19 -70 LINE"
);
}
);
width = 302;
}
);
unicode = 004A;
},
{
glyphname = K;
lastChange = "2017-03-21 12:30:29 +0000";
layers = (
{
anchors = (
{
name = bottom;
position = "{282, 0}";
},
{
name = top;
position = "{282, 695}";
}
);
layerId = "8FFE84BD-9390-4D75-BABD-68166BF44E93";
paths = (
{
closed = 1;
nodes = (
"546 0 LINE",
"299 384 LINE",
"300 307 LINE",
"533 695 LINE",
"462 695 LINE",
"246 331 LINE",
"246 352 LINE",
"472 0 LINE"
);
},
{
closed = 1;
nodes = (
"149 0 LINE",
"149 695 LINE",
"87 695 LINE",
"87 0 LINE"
);
},
{
closed = 1;
nodes = (
"292 315 LINE",
"292 371 LINE",
"123 364 LINE",
"123 308 LINE"
);
}
);
width = 563;
},
{
anchors = (
{
name = bottom;
position = "{285, 0}";
},
{
name = top;
position = "{285, 692}";
}
);
layerId = "0596A6ED-150F-4F1F-BF1E-4449A7B9DE21";
paths = (
{
closed = 1;
nodes = (
"552 0 LINE",
"320 382 LINE",
"321 305 LINE",
"541 692 LINE",
"453 692 LINE",
"250 329 LINE",
"249 354 LINE",
"461 0 LINE"
);
},
{
closed = 1;
nodes = (
"162 0 LINE",
"162 692 LINE",
"85 692 LINE",
"85 0 LINE"
);
},
{
closed = 1;
nodes = (
"293 307 LINE",
"292 375 LINE",
"146 369 LINE",
"146 301 LINE"
);
}
);
width = 569;
},
{
anchors = (
{
name = bottom;
position = "{297, 0}";
},
{
name = top;
position = "{297, 680}";
}
);
layerId = "1FB77202-83CB-408E-8929-4AFC59A3446D";
paths = (
{
closed = 1;
nodes = (
"577 0 LINE",
"407 380 LINE",
"407 298 LINE",
"573 680 LINE",
"416 680 LINE",
"274 312 LINE",
"270 352 LINE",
"418 0 LINE"
);
},
{
closed = 1;
nodes = (
"212 0 LINE",
"212 680 LINE",
"74 680 LINE",
"74 0 LINE"
);
},
{
closed = 1;
nodes = (
"349 276 LINE",
"349 396 LINE",
"167 376 LINE",
"167 256 LINE"
);
}
);
width = 593;
}
);
unicode = 004B;
},
{
glyphname = L;
lastChange = "2017-04-18 23:31:07 +0000";
layers = (
{
anchors = (
{
name = bottom;
position = "{260, 0}";
},
{
name = center;
position = "{250, 0}";
},
{
name = top;
position = "{247, 762}";
},
{
name = topright;
position = "{460, 0}";
}
);
layerId = "8FFE84BD-9390-4D75-BABD-68166BF44E93";
paths = (
{
closed = 1;
nodes = (
"467 0 LINE",
"467 56 LINE",
"104 56 LINE",
"149 11 LINE",
"149 695 LINE",
"87 695 LINE",
"87 0 LINE"
);
}
);
width = 480;
},
{
anchors = (
{
name = bottom;
position = "{260, 0}";
},
{
name = center;
position = "{230, 0}";
},
{
name = top;
position = "{250, 752}";
},
{
name = topright;
position = "{459, 0}";
}
);
layerId = "0596A6ED-150F-4F1F-BF1E-4449A7B9DE21";
paths = (
{
closed = 1;
nodes = (
"466 0 LINE",
"466 69 LINE",
"117 69 LINE",
"162 24 LINE",
"162 692 LINE",
"85 692 LINE",
"85 0 LINE"
);
}
);
width = 479;
},
{
anchors = (
{
name = bottom;
position = "{246, 0}";
},
{
name = center;
position = "{226, 0}";
},
{
name = top;
position = "{251, 724}";
},
{
name = topright;
position = "{452, 0}";
}
);
layerId = "1FB77202-83CB-408E-8929-4AFC59A3446D";
paths = (
{
closed = 1;
nodes = (
"461 0 LINE",
"461 122 LINE",
"167 122 LINE",
"212 77 LINE",
"212 680 LINE",
"74 680 LINE",
"74 0 LINE"
);
}
);
width = 472;
}
);
unicode = 004C;
},
{
glyphname = Lcaron;
lastChange = "2017-03-21 12:36:14 +0000";
layers = (
{
components = (
{
name = L;
}
);
layerId = "8FFE84BD-9390-4D75-BABD-68166BF44E93";
paths = (
{
closed = 1;
nodes = (
"433 697 LINE",
"433 470 LINE",
"375 470 LINE",
"375 697 LINE"
);
}
);
width = 493;
},
{
components = (
{
name = L;
}
);
layerId = "0596A6ED-150F-4F1F-BF1E-4449A7B9DE21";
paths = (
{
closed = 1;
nodes = (
"439 696 LINE",
"439 462 LINE",
"366 462 LINE",
"366 696 LINE"
);
}
);
width = 494;
},
{
components = (
{
name = L;
}
);
layerId = "1FB77202-83CB-408E-8929-4AFC59A3446D";
paths = (
{
closed = 1;
nodes = (
"461 690 LINE",
"461 430 LINE",
"331 430 LINE",
"331 690 LINE"
);
}
);
width = 498;
}
);
unicode = 013D;
},
{
glyphname = Lslash;
lastChange = "2017-03-21 12:39:19 +0000";
layers = (
{
components = (
{
name = L;
}
);
layerId = "8FFE84BD-9390-4D75-BABD-68166BF44E93";
paths = (
{
closed = 1;
nodes = (
"336 457 LINE",
"306 499 LINE",
"1 285 LINE",
"31 243 LINE"
);
}
);
width = 484;
},
{
components = (
{
name = L;
}
);
layerId = "0596A6ED-150F-4F1F-BF1E-4449A7B9DE21";
paths = (
{
closed = 1;
nodes = (
"346 452 LINE",
"309 503 LINE",
"-4 284 LINE",
"33 232 LINE"
);
}
);
width = 483;
},
{
components = (
{
name = L;
}
);
layerId = "1FB77202-83CB-408E-8929-4AFC59A3446D";
paths = (
{
closed = 1;
nodes = (
"385 429 LINE",
"320 519 LINE",
"-24 278 LINE",
"41 188 LINE"
);
}
);
width = 481;
}
);
unicode = 0141;
},
{
glyphname = M;
lastChange = "2017-03-21 23:57:25 +0000";
layers = (
{
anchors = (
{
name = bottom;
position = "{418, 0}";
},
{
name = top;
position = "{418, 695}";
}
);
layerId = "8FFE84BD-9390-4D75-BABD-68166BF44E93";
paths = (
{
closed = 1;
nodes = (
"149 0 LINE",
"149 631 LINE",
"163 631 LINE",
"381 23 LINE",
"454 23 LINE",
"672 631 LINE",
"686 631 LINE",
"686 0 LINE",
"748 0 LINE",
"748 695 LINE",
"632 695 LINE",
"403 45 LINE",
"433 45 LINE",
"203 695 LINE",
"87 695 LINE",
"87 0 LINE"
);
}
);
width = 835;
},
{
anchors = (
{
name = bottom;
position = "{420, 0}";
},
{
name = top;
position = "{420, 692}";
}
);
layerId = "0596A6ED-150F-4F1F-BF1E-4449A7B9DE21";
paths = (
{
closed = 1;
nodes = (
"162 0 LINE",
"162 610 LINE",
"176 610 LINE",
"377 25 LINE",
"463 25 LINE",
"664 610 LINE",
"678 610 LINE",
"678 0 LINE",
"755 0 LINE",
"755 692 LINE",
"616 692 LINE",
"406 64 LINE",
"434 64 LINE",
"224 692 LINE",
"85 692 LINE",
"85 0 LINE"
);
}
);
width = 840;
},
{
anchors = (
{
name = bottom;
position = "{429, 0}";
},
{
name = top;
position = "{429, 680}";
}
);
layerId = "1FB77202-83CB-408E-8929-4AFC59A3446D";
paths = (
{
closed = 1;
nodes = (
"212 0 LINE",
"212 526 LINE",
"227 526 LINE",
"360 30 LINE",
"498 30 LINE",
"631 526 LINE",
"646 526 LINE",
"646 0 LINE",
"784 0 LINE",
"784 680 LINE",
"549 680 LINE",
"418 140 LINE",
"440 140 LINE",
"309 680 LINE",
"74 680 LINE",
"74 0 LINE"
);
}
);
width = 858;
}
);
unicode = 004D;
},
{
glyphname = N;
lastChange = "2017-03-22 00:00:40 +0000";
layers = (
{
anchors = (
{
name = bottom;
position = "{340, 0}";
},
{
name = top;
position = "{326, 765}";
}
);
layerId = "8FFE84BD-9390-4D75-BABD-68166BF44E93";
paths = (
{
closed = 1;
nodes = (
"149 0 LINE",
"149 639 LINE",
"171 639 LINE",
"464 0 LINE",
"584 0 LINE",
"584 695 LINE",
"523 695 LINE",
"523 55 LINE",
"500 55 LINE",
"209 695 LINE",
"87 695 LINE",
"87 0 LINE"
);
}
);
width = 672;
},
{
anchors = (
{
name = bottom;
position = "{340, 0}";
},
{
name = top;
position = "{338, 752}";
}
);
layerId = "0596A6ED-150F-4F1F-BF1E-4449A7B9DE21";
paths = (
{
closed = 1;
nodes = (
"162 0 LINE",
"162 624 LINE",
"181 624 LINE",
"450 0 LINE",
"591 0 LINE",
"591 692 LINE",
"515 692 LINE",
"515 68 LINE",
"494 68 LINE",
"229 692 LINE",
"85 692 LINE",
"85 0 LINE"
);
}
);
width = 676;
},
{
anchors = (
{
name = bottom;
position = "{344, 0}";
},
{
name = top;
position = "{347, 724}";
}
);
layerId = "1FB77202-83CB-408E-8929-4AFC59A3446D";
paths = (
{
closed = 1;
nodes = (
"212 0 LINE",
"212 560 LINE",
"222 560 LINE",
"392 0 LINE",
"619 0 LINE",
"619 680 LINE",
"481 680 LINE",
"481 120 LINE",
"471 120 LINE",
"307 680 LINE",
"74 680 LINE",
"74 0 LINE"
);
}
);
width = 693;
}
);
unicode = 004E;
},
{
glyphname = Eng;
lastChange = "2017-03-22 00:04:53 +0000";
layers = (
{
components = (
{
name = N;
}
);
layerId = "8FFE84BD-9390-4D75-BABD-68166BF44E93";
paths = (
{
closed = 1;
nodes = (
"544 -183 OFFCURVE",
"584 -163 OFFCURVE",
"584 -22 CURVE SMOOTH",
"584 26 LINE",
"523 26 LINE",
"523 -9 LINE SMOOTH",
"523 -113 OFFCURVE",
"513 -128 OFFCURVE",
"401 -128 CURVE",
"401 -183 LINE"
);
}
);
width = 672;
},
{
components = (
{
name = N;
}
);
layerId = "0596A6ED-150F-4F1F-BF1E-4449A7B9DE21";
paths = (
{
closed = 1;
nodes = (
"519 -189 OFFCURVE",
"591 -181 OFFCURVE",
"591 -22 CURVE SMOOTH",
"591 39 LINE",
"512 39 LINE",
"512 -11 LINE SMOOTH",
"512 -110 OFFCURVE",
"495 -120 OFFCURVE",
"399 -120 CURVE",
"399 -189 LINE"
);
}
);
width = 676;
},
{
components = (
{
name = N;
}
);
layerId = "1FB77202-83CB-408E-8929-4AFC59A3446D";
paths = (
{
closed = 1;
nodes = (
"533 -212 OFFCURVE",
"619 -191 OFFCURVE",
"619 -27 CURVE SMOOTH",
"619 37 LINE",
"481 38 LINE",
"481 -21 LINE SMOOTH",
"481 -76 OFFCURVE",
"458 -92 OFFCURVE",
"405 -92 CURVE",
"405 -212 LINE"
);
}
);
width = 693;
}
);
unicode = 014A;
},
{
glyphname = O;
lastChange = "2017-03-22 00:13:34 +0000";
layers = (
{
anchors = (
{
name = bottom;
position = "{331, 0}";
},
{
name = center;
position = "{311, 0}";
},
{
name = ogonek;
position = "{596, 10}";
},
{
name = top;
position = "{331, 785}";
},
{
name = topleft;
position = "{20, 705}";
},
{
name = topright;
position = "{642, 705}";
}
);
layerId = "8FFE84BD-9390-4D75-BABD-68166BF44E93";
paths = (
{
closed = 1;
nodes = (
"538 -10 OFFCURVE",
"603 94 OFFCURVE",
"603 342 CURVE SMOOTH",
"603 590 OFFCURVE",
"535 705 OFFCURVE",
"331 705 CURVE SMOOTH",
"127 705 OFFCURVE",
"60 588 OFFCURVE",
"60 344 CURVE SMOOTH",
"60 99 OFFCURVE",
"126 -10 OFFCURVE",
"332 -10 CURVE SMOOTH"
);
},
{
closed = 1;
nodes = (
"167 46 OFFCURVE",
"124 132 OFFCURVE",
"124 344 CURVE SMOOTH",
"124 532 OFFCURVE",
"158 649 OFFCURVE",
"331 649 CURVE SMOOTH",
"491 649 OFFCURVE",
"539 554 OFFCURVE",
"539 342 CURVE SMOOTH",
"539 129 OFFCURVE",
"496 46 OFFCURVE",
"332 46 CURVE SMOOTH"
);
}
);
width = 662;
},
{
anchors = (
{
name = bottom;
position = "{330, 0}";
},
{
name = center;
position = "{320, 0}";
},
{
name = ogonek;
position = "{594, 10}";
},
{
name = top;
position = "{330, 752}";
},
{
name = topleft;
position = "{20, 702}";
},
{
name = topright;
position = "{640, 702}";
}
);
layerId = "0596A6ED-150F-4F1F-BF1E-4449A7B9DE21";
paths = (
{
closed = 1;
nodes = (
"538 -10 OFFCURVE",
"604 94 OFFCURVE",
"604 341 CURVE SMOOTH",
"604 588 OFFCURVE",
"534 702 OFFCURVE",
"330 702 CURVE SMOOTH",
"126 702 OFFCURVE",
"57 586 OFFCURVE",
"57 343 CURVE SMOOTH",
"57 99 OFFCURVE",
"123 -10 OFFCURVE",
"331 -10 CURVE SMOOTH"
);
},
{
closed = 1;
nodes = (
"178 58 OFFCURVE",
"136 140 OFFCURVE",
"136 343 CURVE SMOOTH",
"136 546 OFFCURVE",
"180 634 OFFCURVE",
"330 634 CURVE SMOOTH",
"480 634 OFFCURVE",
"524 545 OFFCURVE",
"524 341 CURVE SMOOTH",
"524 137 OFFCURVE",
"483 58 OFFCURVE",
"331 58 CURVE SMOOTH"
);
}
);
width = 660;
},
{
anchors = (
{
name = bottom;
position = "{326, 0}";
},
{
name = center;
position = "{316, 0}";
},
{
name = ogonek;
position = "{587, 10}";
},
{
name = top;
position = "{326, 723}";
},
{
name = topleft;
position = "{20, 692}";
},
{
name = topright;
position = "{632, 692}";
}
);
layerId = "1FB77202-83CB-408E-8929-4AFC59A3446D";
paths = (
{
closed = 1;
nodes = (
"539 -12 OFFCURVE",
"608 106 OFFCURVE",
"608 337 CURVE SMOOTH",
"608 577 OFFCURVE",
"533 692 OFFCURVE",
"326 692 CURVE SMOOTH",
"119 692 OFFCURVE",
"44 577 OFFCURVE",
"44 337 CURVE SMOOTH",
"44 97 OFFCURVE",
"119 -12 OFFCURVE",
"326 -12 CURVE SMOOTH"
);
},
{
closed = 1;
nodes = (
"209 108 OFFCURVE",
"186 192 OFFCURVE",
"186 337 CURVE SMOOTH",
"186 501 OFFCURVE",
"219 572 OFFCURVE",
"326 572 CURVE SMOOTH",
"433 572 OFFCURVE",
"466 501 OFFCURVE",
"466 337 CURVE SMOOTH",
"466 172 OFFCURVE",
"434 108 OFFCURVE",
"326 108 CURVE SMOOTH"
);
}
);
width = 652;
}
);
unicode = 004F;
},
{
glyphname = Oslash;
lastChange = "2017-03-22 00:22:39 +0000";
layers = (
{
anchors = (
{
name = bottom;
position = "{331, 0}";
},
{
name = top;
position = "{331, 785}";
}
);
components = (
{
name = O;
}
);
layerId = "8FFE84BD-9390-4D75-BABD-68166BF44E93";
paths = (
{
closed = 1;
nodes = (
"565 777 LINE",
"518 796 LINE",
"102 -93 LINE",
"149 -114 LINE"
);
}
);
width = 662;
},
{
anchors = (
{
name = bottom;
position = "{330, 0}";
},
{
name = top;
position = "{330, 752}";
}
);
components = (
{
name = O;
}
);
layerId = "0596A6ED-150F-4F1F-BF1E-4449A7B9DE21";
paths = (
{
closed = 1;
nodes = (
"570 775 LINE",
"512 799 LINE",
"96 -90 LINE",
"153 -116 LINE"
);
}
);
width = 660;
},
{
anchors = (
{
name = bottom;
position = "{326, 0}";
},
{
name = top;
position = "{326, 723}";
}
);
components = (
{
name = O;
}
);
layerId = "1FB77202-83CB-408E-8929-4AFC59A3446D";
paths = (
{
closed = 1;
nodes = (
"588 767 LINE",
"488 810 LINE",
"74 -78 LINE",
"172 -127 LINE"
);
}
);
width = 652;
}
);
unicode = 00D8;
},
{
glyphname = P;
lastChange = "2017-03-22 00:28:53 +0000";
layers = (
{
anchors = (
{
name = bottom;
position = "{297, 0}";
},
{
name = top;
position = "{297, 739}";
}
);
layerId = "8FFE84BD-9390-4D75-BABD-68166BF44E93";
paths = (
{
closed = 1;
nodes = (
"149 665 LINE",
"124 640 LINE",
"341 640 LINE SMOOTH",
"448 640 OFFCURVE",
"493 588 OFFCURVE",
"493 475 CURVE SMOOTH",
"493 356 OFFCURVE",
"442 297 OFFCURVE",
"341 297 CURVE SMOOTH",
"104 297 LINE",
"104 242 LINE",
"341 242 LINE SMOOTH",
"485 242 OFFCURVE",
"557 320 OFFCURVE",
"557 475 CURVE SMOOTH",
"557 624 OFFCURVE",
"489 695 OFFCURVE",
"341 695 CURVE SMOOTH",
"87 695 LINE",
"87 0 LINE",
"149 0 LINE"
);
}
);
width = 593;
},
{
anchors = (
{
name = bottom;
position = "{297, 0}";
},
{
name = top;
position = "{297, 721}";
}
);
layerId = "0596A6ED-150F-4F1F-BF1E-4449A7B9DE21";
paths = (
{
closed = 1;
nodes = (
"162 649 LINE",
"137 624 LINE",
"337 624 LINE SMOOTH",
"437 624 OFFCURVE",
"480 576 OFFCURVE",
"480 469 CURVE SMOOTH",
"480 357 OFFCURVE",
"432 301 OFFCURVE",
"337 301 CURVE SMOOTH",
"117 301 LINE",
"117 233 LINE",
"338 233 LINE SMOOTH",
"485 233 OFFCURVE",
"559 312 OFFCURVE",
"559 469 CURVE SMOOTH",
"559 620 OFFCURVE",
"489 692 OFFCURVE",
"338 692 CURVE SMOOTH",
"85 692 LINE",
"85 0 LINE",
"162 0 LINE"
);
}
);
width = 593;
},
{
anchors = (
{
name = bottom;
position = "{295, 0}";
},
{
name = top;
position = "{295, 713}";
}
);
layerId = "1FB77202-83CB-408E-8929-4AFC59A3446D";
paths = (
{
closed = 1;
nodes = (
"212 607 LINE",
"167 562 LINE",
"323 562 LINE SMOOTH",
"394 562 OFFCURVE",
"426 528 OFFCURVE",
"426 444 CURVE SMOOTH",
"426 359 OFFCURVE",
"392 316 OFFCURVE",
"323 316 CURVE SMOOTH",
"136 316 LINE",
"136 198 LINE",
"324 198 LINE SMOOTH",
"483 198 OFFCURVE",
"566 285 OFFCURVE",
"566 444 CURVE SMOOTH",
"566 601 OFFCURVE",
"485 680 OFFCURVE",
"324 680 CURVE SMOOTH",
"74 680 LINE",
"74 0 LINE",
"212 0 LINE"
);
}
);
width = 589;
}
);
unicode = 0050;
},
{
glyphname = Thorn;
lastChange = "2017-03-22 00:32:06 +0000";
layers = (
{
layerId = "8FFE84BD-9390-4D75-BABD-68166BF44E93";
paths = (
{
closed = 1;
nodes = (
"149 0 LINE",
"149 548 LINE",
"124 523 LINE",
"341 523 LINE SMOOTH",
"448 523 OFFCURVE",
"493 471 OFFCURVE",
"493 358 CURVE SMOOTH",
"493 239 OFFCURVE",
"442 180 OFFCURVE",
"341 180 CURVE SMOOTH",
"104 180 LINE",
"104 125 LINE",
"341 125 LINE SMOOTH",
"485 125 OFFCURVE",
"557 203 OFFCURVE",
"557 358 CURVE SMOOTH",
"557 507 OFFCURVE",
"489 578 OFFCURVE",
"341 578 CURVE SMOOTH",
"87 578 LINE",
"87 0 LINE"
);
},
{
closed = 1;
nodes = (
"149 556 LINE",
"149 697 LINE",
"87 697 LINE",
"87 556 LINE"
);
}
);
width = 600;
},
{
layerId = "0596A6ED-150F-4F1F-BF1E-4449A7B9DE21";
paths = (
{
closed = 1;
nodes = (
"162 0 LINE",
"162 535 LINE",
"137 510 LINE",
"337 510 LINE SMOOTH",
"437 510 OFFCURVE",
"480 462 OFFCURVE",
"480 355 CURVE SMOOTH",
"480 243 OFFCURVE",
"432 187 OFFCURVE",
"337 187 CURVE SMOOTH",
"117 187 LINE",
"117 119 LINE",
"338 119 LINE SMOOTH",
"485 119 OFFCURVE",
"559 198 OFFCURVE",
"559 355 CURVE SMOOTH",
"559 506 OFFCURVE",
"489 578 OFFCURVE",
"338 578 CURVE SMOOTH",
"85 578 LINE",
"85 0 LINE"
);
},
{
closed = 1;
nodes = (
"162 552 LINE",
"162 696 LINE",
"85 696 LINE",
"85 552 LINE"
);
}
);
width = 599;
},
{
layerId = "1FB77202-83CB-408E-8929-4AFC59A3446D";
paths = (
{
closed = 1;
nodes = (
"212 0 LINE",
"212 505 LINE",
"167 460 LINE",
"323 460 LINE SMOOTH",
"394 460 OFFCURVE",
"426 426 OFFCURVE",
"426 342 CURVE SMOOTH",
"426 257 OFFCURVE",
"392 214 OFFCURVE",
"323 214 CURVE SMOOTH",
"136 214 LINE",
"136 96 LINE",
"324 96 LINE SMOOTH",
"483 96 OFFCURVE",
"566 183 OFFCURVE",
"566 342 CURVE SMOOTH",
"566 499 OFFCURVE",
"485 578 OFFCURVE",
"324 578 CURVE SMOOTH",
"74 578 LINE",
"74 0 LINE"
);
},
{
closed = 1;
nodes = (
"212 540 LINE",
"212 690 LINE",
"74 690 LINE",
"74 540 LINE"
);
}
);
width = 596;
}
);
unicode = 00DE;
},
{
glyphname = Q;
lastChange = "2017-03-22 00:33:20 +0000";
layers = (
{
components = (
{
name = O;
}
);
layerId = "8FFE84BD-9390-4D75-BABD-68166BF44E93";
paths = (
{
closed = 1;
nodes = (
"571 -115 LINE",
"486 23 LINE",
"425 1 LINE",
"512 -143 LINE"
);
}
);
width = 662;
},
{
components = (
{
name = O;
}
);
layerId = "0596A6ED-150F-4F1F-BF1E-4449A7B9DE21";
paths = (
{
closed = 1;
nodes = (
"574 -111 LINE",
"489 26 LINE",
"414 -1 LINE",
"502 -145 LINE"
);
}
);
width = 660;
},
{
components = (
{
name = O;
}
);
layerId = "1FB77202-83CB-408E-8929-4AFC59A3446D";
paths = (
{
closed = 1;
nodes = (
"586 -97 LINE",
"503 37 LINE",
"370 -9 LINE",
"460 -156 LINE"
);
}
);
width = 652;
}
);
unicode = 0051;
},
{
glyphname = R;
lastChange = "2017-03-22 00:37:51 +0000";
layers = (
{
anchors = (
{
name = bottom;
position = "{308, 0}";
},
{
name = top;
position = "{308, 762}";
}
);
layerId = "8FFE84BD-9390-4D75-BABD-68166BF44E93";
paths = (
{
closed = 1;
nodes = (
"124 640 LINE",
"342 640 LINE SMOOTH",
"446 640 OFFCURVE",
"494 592 OFFCURVE",
"494 488 CURVE SMOOTH",
"494 382 OFFCURVE",
"443 329 OFFCURVE",
"342 329 CURVE SMOOTH",
"104 329 LINE",
"104 274 LINE",
"406 274 LINE",
"341 314 LINE",
"498 0 LINE",
"567 0 LINE",
"404 326 LINE",
"392 280 LINE",
"502 295 OFFCURVE",
"558 365 OFFCURVE",
"558 489 CURVE SMOOTH",
"558 632 OFFCURVE",
"487 695 OFFCURVE",
"342 695 CURVE SMOOTH",
"87 695 LINE",
"87 0 LINE",
"149 0 LINE",
"149 665 LINE"
);
}
);
width = 615;
},
{
anchors = (
{
name = bottom;
position = "{308, 0}";
},
{
name = top;
position = "{308, 751}";
}
);
layerId = "0596A6ED-150F-4F1F-BF1E-4449A7B9DE21";
paths = (
{
closed = 1;
nodes = (
"137 624 LINE",
"341 624 LINE SMOOTH",
"436 624 OFFCURVE",
"483 576 OFFCURVE",
"483 479 CURVE SMOOTH",
"483 382 OFFCURVE",
"436 333 OFFCURVE",
"342 333 CURVE SMOOTH",
"117 333 LINE",
"117 265 LINE",
"403 265 LINE",
"339 306 LINE",
"483 0 LINE",
"568 0 LINE",
"416 322 LINE",
"403 273 LINE",
"510 293 OFFCURVE",
"562 363 OFFCURVE",
"562 482 CURVE SMOOTH",
"562 626 OFFCURVE",
"488 692 OFFCURVE",
"341 692 CURVE SMOOTH",
"85 692 LINE",
"85 0 LINE",
"162 0 LINE",
"162 649 LINE"
);
}
);
width = 616;
},
{
anchors = (
{
name = bottom;
position = "{310, 0}";
},
{
name = top;
position = "{313, 722}";
}
);
layerId = "1FB77202-83CB-408E-8929-4AFC59A3446D";
paths = (
{
closed = 1;
nodes = (
"187 562 LINE",
"338 562 LINE SMOOTH",
"402 562 OFFCURVE",
"437 520 OFFCURVE",
"437 455 CURVE SMOOTH",
"437 390 OFFCURVE",
"405 346 OFFCURVE",
"340 346 CURVE SMOOTH",
"167 346 LINE",
"167 228 LINE",
"390 228 LINE",
"330 271 LINE",
"424 0 LINE",
"575 0 LINE",
"462 302 LINE",
"450 245 LINE",
"536 285 OFFCURVE",
"578 355 OFFCURVE",
"578 456 CURVE SMOOTH",
"578 605 OFFCURVE",
"498 680 OFFCURVE",
"338 680 CURVE SMOOTH",
"74 680 LINE",
"74 0 LINE",
"212 0 LINE",
"212 587 LINE"
);
}
);
width = 620;
}
);
unicode = 0052;
},
{
glyphname = S;
lastChange = "2017-03-22 00:43:42 +0000";
layers = (
{
anchors = (
{
name = bottom;
position = "{271, 0}";
},
{
name = top;
position = "{281, 762}";
}
);
layerId = "8FFE84BD-9390-4D75-BABD-68166BF44E93";
paths = (
{
closed = 1;
nodes = (
"416 -8 OFFCURVE",
"491 54 OFFCURVE",
"491 203 CURVE SMOOTH",
"491 319 OFFCURVE",
"436 357 OFFCURVE",
"294 385 CURVE SMOOTH",
"152 413 OFFCURVE",
"114 432 OFFCURVE",
"114 528 CURVE SMOOTH",
"114 610 OFFCURVE",
"168 651 OFFCURVE",
"275 651 CURVE SMOOTH",
"314 651 OFFCURVE",
"379 645 OFFCURVE",
"471 634 CURVE",
"476 687 LINE",
"370 701 OFFCURVE",
"326 706 OFFCURVE",
"271 706 CURVE SMOOTH",
"124 706 OFFCURVE",
"51 645 OFFCURVE",
"51 524 CURVE SMOOTH",
"51 387 OFFCURVE",
"122 356 OFFCURVE",
"284 326 CURVE SMOOTH",
"384 307 OFFCURVE",
"428 285 OFFCURVE",
"428 191 CURVE SMOOTH",
"428 97 OFFCURVE",
"375 47 OFFCURVE",
"275 47 CURVE SMOOTH",
"225 47 OFFCURVE",
"154 53 OFFCURVE",
"63 64 CURVE",
"56 11 LINE",
"158 -3 OFFCURVE",
"218 -8 OFFCURVE",
"273 -8 CURVE SMOOTH"
);
}
);
width = 541;
},
{
anchors = (
{
name = bottom;
position = "{271, 0}";
},
{
name = top;
position = "{281, 746}";
}
);
layerId = "0596A6ED-150F-4F1F-BF1E-4449A7B9DE21";
paths = (
{
closed = 1;
nodes = (
"420 -9 OFFCURVE",
"494 62 OFFCURVE",
"494 204 CURVE SMOOTH",
"494 319 OFFCURVE",
"441 357 OFFCURVE",
"301 389 CURVE SMOOTH",
"160 420 OFFCURVE",
"126 438 OFFCURVE",
"126 522 CURVE SMOOTH",
"126 597 OFFCURVE",
"176 635 OFFCURVE",
"276 635 CURVE SMOOTH",
"315 635 OFFCURVE",
"380 629 OFFCURVE",
"473 618 CURVE",
"480 683 LINE",
"381 698 OFFCURVE",
"323 703 OFFCURVE",
"271 703 CURVE SMOOTH",
"122 703 OFFCURVE",
"48 641 OFFCURVE",
"48 517 CURVE SMOOTH",
"48 393 OFFCURVE",
"107 353 OFFCURVE",
"263 320 CURVE SMOOTH",
"382 297 OFFCURVE",
"417 273 OFFCURVE",
"417 198 CURVE SMOOTH",
"417 105 OFFCURVE",
"368 59 OFFCURVE",
"269 59 CURVE SMOOTH",
"222 59 OFFCURVE",
"153 65 OFFCURVE",
"62 77 CURVE",
"54 13 LINE",
"160 -3 OFFCURVE",
"221 -9 OFFCURVE",
"273 -9 CURVE SMOOTH"
);
}
);
width = 542;
},
{
anchors = (
{
name = bottom;
position = "{262, 0}";
},
{
name = top;
position = "{290, 725}";
}
);
layerId = "1FB77202-83CB-408E-8929-4AFC59A3446D";
paths = (
{
closed = 1;
nodes = (
"412 -12 OFFCURVE",
"507 62 OFFCURVE",
"507 205 CURVE SMOOTH",
"507 317 OFFCURVE",
"460 359 OFFCURVE",
"328 402 CURVE SMOOTH",
"236 431 OFFCURVE",
"174 447 OFFCURVE",
"174 500 CURVE SMOOTH",
"174 548 OFFCURVE",
"210 572 OFFCURVE",
"283 572 CURVE SMOOTH",
"322 572 OFFCURVE",
"388 567 OFFCURVE",
"482 556 CURVE",
"493 665 LINE",
"379 685 OFFCURVE",
"329 692 OFFCURVE",
"269 692 CURVE SMOOTH",
"125 692 OFFCURVE",
"37 626 OFFCURVE",
"37 490 CURVE SMOOTH",
"37 382 OFFCURVE",
"93 329 OFFCURVE",
"248 285 CURVE SMOOTH",
"322 264 OFFCURVE",
"370 248 OFFCURVE",
"370 196 CURVE SMOOTH",
"370 137 OFFCURVE",
"335 108 OFFCURVE",
"264 108 CURVE SMOOTH",
"217 108 OFFCURVE",
"148 114 OFFCURVE",
"59 126 CURVE",
"45 19 LINE",
"153 -3 OFFCURVE",
"217 -12 OFFCURVE",
"272 -12 CURVE SMOOTH"
);
}
);
width = 544;
}
);
unicode = 0053;
},
{
glyphname = T;
lastChange = "2017-03-22 00:46:18 +0000";
layers = (
{
anchors = (
{
name = bottom;
position = "{263, 0}";
},
{
name = center;
position = "{263, 0}";
},
{
name = top;
position = "{263, 765}";
}
);
layerId = "8FFE84BD-9390-4D75-BABD-68166BF44E93";
paths = (
{
closed = 1;
nodes = (
"295 0 LINE",
"295 639 LINE",
"513 639 LINE",
"513 695 LINE",
"13 695 LINE",
"13 639 LINE",
"233 639 LINE",
"233 0 LINE"
);
}
);
width = 526;
},
{
anchors = (
{
name = bottom;
position = "{263, 0}";
},
{
name = center;
position = "{263, 0}";
},
{
name = top;
position = "{263, 752}";
}
);
layerId = "0596A6ED-150F-4F1F-BF1E-4449A7B9DE21";
paths = (
{
closed = 1;
nodes = (
"302 0 LINE",
"302 623 LINE",
"513 623 LINE",
"513 692 LINE",
"13 692 LINE",
"13 623 LINE",
"226 623 LINE",
"226 0 LINE"
);
}
);
width = 526;
},
{
anchors = (
{
name = bottom;
position = "{263, 0}";
},
{
name = center;
position = "{263, 0}";
},
{
name = top;
position = "{263, 720}";
}
);
layerId = "1FB77202-83CB-408E-8929-4AFC59A3446D";
paths = (
{
closed = 1;
nodes = (
"333 0 LINE",
"333 558 LINE",
"513 558 LINE",
"513 680 LINE",
"13 680 LINE",
"13 558 LINE",
"195 558 LINE",
"195 0 LINE"
);
}
);
width = 526;
}
);
unicode = 0054;
},
{
glyphname = Tbar;
lastChange = "2017-03-22 00:45:26 +0000";
layers = (
{
components = (
{
name = T;
}
);
layerId = "8FFE84BD-9390-4D75-BABD-68166BF44E93";
paths = (
{
closed = 1;
nodes = (
"467 312 LINE",
"467 365 LINE",
"65 365 LINE",
"65 312 LINE"
);
}
);
width = 529;
},
{
components = (
{
name = T;
}
);
layerId = "0596A6ED-150F-4F1F-BF1E-4449A7B9DE21";
paths = (
{
closed = 1;
nodes = (
"468 300 LINE",
"468 366 LINE",
"65 366 LINE",
"65 300 LINE"
);
}
);
width = 529;
},
{
components = (
{
name = T;
}
);
layerId = "1FB77202-83CB-408E-8929-4AFC59A3446D";
paths = (
{
closed = 1;
nodes = (
"473 253 LINE",
"473 369 LINE",
"64 369 LINE",
"64 253 LINE"
);
}
);
width = 528;
}
);
unicode = 0166;
},
{
glyphname = U;
lastChange = "2017-03-22 00:53:24 +0000";
layers = (
{
anchors = (
{
name = bottom;
position = "{321, 0}";
},
{
name = ogonek;
position = "{321, 10}";
},
{
name = top;
position = "{321, 764}";
},
{
name = topright;
position = "{622, 764}";
}
);
layerId = "8FFE84BD-9390-4D75-BABD-68166BF44E93";
paths = (
{
closed = 1;
nodes = (
"476 -10 OFFCURVE",
"559 53 OFFCURVE",
"559 204 CURVE SMOOTH",
"559 695 LINE",
"497 695 LINE",
"497 204 LINE SMOOTH",
"497 92 OFFCURVE",
"437 46 OFFCURVE",
"317 46 CURVE SMOOTH",
"202 46 OFFCURVE",
"144 99 OFFCURVE",
"144 204 CURVE SMOOTH",
"144 695 LINE",
"83 695 LINE",
"83 204 LINE SMOOTH",
"83 53 OFFCURVE",
"163 -10 OFFCURVE",
"320 -10 CURVE SMOOTH"
);
}
);
width = 642;
},
{
anchors = (
{
name = bottom;
position = "{322, 0}";
},
{
name = ogonek;
position = "{322, 10}";
},
{
name = top;
position = "{322, 750}";
},
{
name = topright;
position = "{624, 750}";
}
);
layerId = "0596A6ED-150F-4F1F-BF1E-4449A7B9DE21";
paths = (
{
closed = 1;
nodes = (
"481 -10 OFFCURVE",
"564 55 OFFCURVE",
"564 210 CURVE SMOOTH",
"564 692 LINE",
"488 692 LINE",
"488 208 LINE SMOOTH",
"488 103 OFFCURVE",
"431 58 OFFCURVE",
"319 58 CURVE SMOOTH",
"211 58 OFFCURVE",
"157 108 OFFCURVE",
"157 208 CURVE SMOOTH",
"157 692 LINE",
"80 692 LINE",
"80 210 LINE SMOOTH",
"80 55 OFFCURVE",
"161 -10 OFFCURVE",
"321 -10 CURVE SMOOTH"
);
}
);
width = 644;
},
{
anchors = (
{
name = bottom;
position = "{327, 0}";
},
{
name = ogonek;
position = "{327, 10}";
},
{
name = top;
position = "{327, 726}";
},
{
name = topright;
position = "{634, 726}";
}
);
layerId = "1FB77202-83CB-408E-8929-4AFC59A3446D";
paths = (
{
closed = 1;
nodes = (
"500 -12 OFFCURVE",
"586 63 OFFCURVE",
"586 230 CURVE SMOOTH",
"586 680 LINE",
"448 680 LINE",
"448 227 LINE SMOOTH",
"448 148 OFFCURVE",
"408 108 OFFCURVE",
"327 108 CURVE SMOOTH",
"246 108 OFFCURVE",
"206 148 OFFCURVE",
"206 227 CURVE SMOOTH",
"206 680 LINE",
"68 680 LINE",
"68 230 LINE SMOOTH",
"68 63 OFFCURVE",
"154 -12 OFFCURVE",
"327 -12 CURVE SMOOTH"
);
}
);
width = 654;
}
);
unicode = 0055;
},
{
glyphname = V;
lastChange = "2017-03-22 00:55:28 +0000";
layers = (
{
layerId = "8FFE84BD-9390-4D75-BABD-68166BF44E93";
paths = (
{
closed = 1;
nodes = (
"364 0 LINE",
"550 695 LINE",
"487 695 LINE",
"318 55 LINE",
"259 55 LINE",
"90 695 LINE",
"26 695 LINE",
"213 0 LINE"
);
}
);
width = 577;
},
{
layerId = "0596A6ED-150F-4F1F-BF1E-4449A7B9DE21";
paths = (
{
closed = 1;
nodes = (
"377 0 LINE",
"558 692 LINE",
"478 692 LINE",
"319 68 LINE",
"263 68 LINE",
"104 692 LINE",
"24 692 LINE",
"205 0 LINE"
);
}
);
width = 582;
},
{
layerId = "1FB77202-83CB-408E-8929-4AFC59A3446D";
paths = (
{
closed = 1;
nodes = (
"429 0 LINE",
"587 680 LINE",
"442 680 LINE",
"324 120 LINE",
"279 120 LINE",
"161 680 LINE",
"16 680 LINE",
"174 0 LINE"
);
}
);
width = 603;
}
);
unicode = 0056;
},
{
glyphname = W;
lastChange = "2017-03-22 00:56:57 +0000";
layers = (
{
anchors = (
{
name = bottom;
position = "{437, 0}";
},
{
name = top;
position = "{437, 760}";
}
);
layerId = "8FFE84BD-9390-4D75-BABD-68166BF44E93";
paths = (
{
closed = 1;
nodes = (
"300 0 LINE",
"447 654 LINE",
"427 654 LINE",
"574 0 LINE",
"698 0 LINE",
"841 695 LINE",
"778 695 LINE",
"652 55 LINE",
"619 55 LINE",
"474 687 LINE",
"401 687 LINE",
"255 55 LINE",
"222 55 LINE",
"96 695 LINE",
"33 695 LINE",
"176 0 LINE"
);
}
);
width = 874;
},
{
anchors = (
{
name = bottom;
position = "{443, 0}";
},
{
name = top;
position = "{443, 741}";
}
);
layerId = "0596A6ED-150F-4F1F-BF1E-4449A7B9DE21";
paths = (
{
closed = 1;
nodes = (
"312 0 LINE",
"453 635 LINE",
"433 635 LINE",
"574 0 LINE",
"715 0 LINE",
"855 692 LINE",
"776 692 LINE",
"658 68 LINE",
"629 68 LINE",
"488 686 LINE",
"398 686 LINE",
"257 68 LINE",
"228 68 LINE",
"110 692 LINE",
"30 692 LINE",
"171 0 LINE"
);
}
);
width = 886;
},
{
anchors = (
{
name = bottom;
position = "{465, 0}";
},
{
name = top;
position = "{465, 722}";
}
);
layerId = "1FB77202-83CB-408E-8929-4AFC59A3446D";
paths = (
{
closed = 1;
nodes = (
"358 0 LINE",
"474 561 LINE",
"456 561 LINE",
"572 0 LINE",
"781 0 LINE",
"911 680 LINE",
"766 680 LINE",
"682 118 LINE",
"667 118 LINE",
"545 680 LINE",
"385 680 LINE",
"263 118 LINE",
"248 118 LINE",
"164 680 LINE",
"19 680 LINE",
"149 0 LINE"
);
}
);
width = 930;
}
);
unicode = 0057;
},
{
glyphname = X;
lastChange = "2017-03-22 00:58:52 +0000";
layers = (
{
layerId = "8FFE84BD-9390-4D75-BABD-68166BF44E93";
paths = (
{
closed = 1;
nodes = (
"89 0 LINE",
"302 338 LINE",
"254 338 LINE",
"464 0 LINE",
"534 0 LINE",
"294 381 LINE",
"294 305 LINE",
"534 695 LINE",
"466 695 LINE",
"256 350 LINE",
"303 350 LINE",
"91 695 LINE",
"21 695 LINE",
"263 304 LINE",
"263 380 LINE",
"21 0 LINE"
);
}
);
width = 555;
},
{
layerId = "0596A6ED-150F-4F1F-BF1E-4449A7B9DE21";
paths = (
{
closed = 1;
nodes = (
"102 0 LINE",
"303 325 LINE",
"256 325 LINE",
"453 0 LINE",
"540 0 LINE",
"303 379 LINE",
"304 303 LINE",
"540 692 LINE",
"457 692 LINE",
"258 357 LINE",
"304 357 LINE",
"106 692 LINE",
"19 692 LINE",
"256 301 LINE",
"257 377 LINE",
"19 0 LINE"
);
}
);
width = 558;
},
{
layerId = "1FB77202-83CB-408E-8929-4AFC59A3446D";
paths = (
{
closed = 1;
nodes = (
"152 0 LINE",
"303 274 LINE",
"260 275 LINE",
"407 0 LINE",
"560 0 LINE",
"341 372 LINE",
"342 294 LINE",
"560 680 LINE",
"417 680 LINE",
"267 390 LINE",
"308 390 LINE",
"162 680 LINE",
"9 680 LINE",
"227 287 LINE",
"228 365 LINE",
"9 0 LINE"
);
}
);
width = 569;
}
);
unicode = 0058;
},
{
glyphname = Y;
lastChange = "2017-03-22 01:00:12 +0000";
layers = (
{
anchors = (
{
name = bottom;
position = "{267, 0}";
},
{
name = top;
position = "{267, 755}";
},
{
name = topleft;
position = "{20, 755}";
}
);
layerId = "8FFE84BD-9390-4D75-BABD-68166BF44E93";
paths = (
{
closed = 1;
nodes = (
"298 0 LINE",
"298 339 LINE",
"276 255 LINE",
"521 695 LINE",
"451 695 LINE",
"245 319 LINE",
"289 319 LINE",
"82 695 LINE",
"13 695 LINE",
"258 255 LINE",
"236 339 LINE",
"236 0 LINE"
);
}
);
width = 534;
},
{
anchors = (
{
name = bottom;
position = "{269, 0}";
},
{
name = top;
position = "{269, 759}";
},
{
name = topleft;
position = "{20, 759}";
}
);
layerId = "0596A6ED-150F-4F1F-BF1E-4449A7B9DE21";
paths = (
{
closed = 1;
nodes = (
"308 0 LINE",
"308 336 LINE",
"286 252 LINE",
"528 692 LINE",
"441 692 LINE",
"248 328 LINE",
"290 328 LINE",
"97 692 LINE",
"10 692 LINE",
"253 252 LINE",
"231 336 LINE",
"231 0 LINE"
);
}
);
width = 538;
},
{
anchors = (
{
name = bottom;
position = "{279, 0}";
},
{
name = top;
position = "{279, 727}";
},
{
name = topleft;
position = "{20, 727}";
}
);
layerId = "1FB77202-83CB-408E-8929-4AFC59A3446D";
paths = (
{
closed = 1;
nodes = (
"348 0 LINE",
"348 320 LINE",
"327 235 LINE",
"556 680 LINE",
"403 680 LINE",
"259 368 LINE",
"297 368 LINE",
"153 680 LINE",
"0 680 LINE",
"231 235 LINE",
"210 320 LINE",
"210 0 LINE"
);
}
);
width = 557;
}
);
unicode = 0059;
},
{
glyphname = Z;
lastChange = "2017-03-22 01:02:41 +0000";
layers = (
{
anchors = (
{
name = bottom;
position = "{269, 0}";
},
{
name = top;
position = "{269, 758}";
}
);
layerId = "8FFE84BD-9390-4D75-BABD-68166BF44E93";
paths = (
{
closed = 1;
nodes = (
"43 639 LINE",
"43 695 LINE",
"493 695 LINE",
"493 612 LINE",
"112 76 LINE",
"112 55 LINE",
"493 55 LINE",
"493 -1 LINE",
"43 -1 LINE",
"43 81 LINE",
"424 617 LINE",
"424 639 LINE"
);
}
);
width = 537;
},
{
anchors = (
{
name = bottom;
position = "{268, 0}";
},
{
name = top;
position = "{268, 749}";
}
);
layerId = "0596A6ED-150F-4F1F-BF1E-4449A7B9DE21";
paths = (
{
closed = 1;
nodes = (
"43 624 LINE",
"43 692 LINE",
"493 692 LINE",
"493 602 LINE",
"131 88 LINE",
"131 68 LINE",
"493 68 LINE",
"493 -1 LINE",
"43 -1 LINE",
"43 88 LINE",
"404 602 LINE",
"404 624 LINE"
);
}
);
width = 536;
},
{
anchors = (
{
name = bottom;
position = "{266, 0}";
},
{
name = top;
position = "{266, 730}";
}
);
layerId = "1FB77202-83CB-408E-8929-4AFC59A3446D";
paths = (
{
closed = 1;
nodes = (
"41 560 LINE",
"41 680 LINE",
"491 680 LINE",
"491 560 LINE",
"207 138 LINE",
"207 120 LINE",
"491 120 LINE",
"491 0 LINE",
"41 0 LINE",
"41 119 LINE",
"325 542 LINE",
"325 560 LINE"
);
}
);
width = 532;
}
);
unicode = 005A;
},
{
glyphname = a;
lastChange = "2017-03-25 23:00:49 +0000";
layers = (
{
anchors = (
{
name = bottom;
position = "{250, 0}";
},
{
name = ogonek;
position = "{426, 0}";
},
{
name = top;
position = "{240, 573}";
}
);
layerId = "8FFE84BD-9390-4D75-BABD-68166BF44E93";
paths = (
{
closed = 1;
nodes = (
"484 39 LINE",
"443 44 OFFCURVE",
"422 58 OFFCURVE",
"419 83 CURVE",
"419 351 LINE SMOOTH",
"419 459 OFFCURVE",
"373 510 OFFCURVE",
"263 510 CURVE SMOOTH",
"208 510 OFFCURVE",
"143 503 OFFCURVE",
"70 489 CURVE",
"73 441 LINE",
"173 452 OFFCURVE",
"226 456 OFFCURVE",
"270 456 CURVE SMOOTH",
"325 456 OFFCURVE",
"360 426 OFFCURVE",
"360 351 CURVE SMOOTH",
"360 35 LINE",
"353 53 LINE",
"374 11 OFFCURVE",
"418 -9 OFFCURVE",
"481 -9 CURVE"
);
},
{
closed = 1;
nodes = (
"253 -10 OFFCURVE",
"324 9 OFFCURVE",
"397 44 CURVE",
"389 87 LINE",
"323 60 OFFCURVE",
"251 41 OFFCURVE",
"188 41 CURVE SMOOTH",
"133 41 OFFCURVE",
"105 75 OFFCURVE",
"105 142 CURVE SMOOTH",
"105 203 OFFCURVE",
"132 235 OFFCURVE",
"197 240 CURVE SMOOTH",
"405 262 LINE",
"405 308 LINE",
"190 287 LINE SMOOTH",
"89 276 OFFCURVE",
"43 234 OFFCURVE",
"43 139 CURVE SMOOTH",
"43 43 OFFCURVE",
"91 -10 OFFCURVE",
"180 -10 CURVE SMOOTH"
);
}
);
width = 499;
},
{
anchors = (
{
name = bottom;
position = "{251, 0}";
},
{
name = ogonek;
position = "{424, 0}";
},
{
name = top;
position = "{240, 564}";
}
);
layerId = "0596A6ED-150F-4F1F-BF1E-4449A7B9DE21";
paths = (
{
closed = 1;
nodes = (
"483 49 LINE",
"446 54 OFFCURVE",
"427 68 OFFCURVE",
"425 93 CURVE",
"425 349 LINE SMOOTH",
"425 460 OFFCURVE",
"376 510 OFFCURVE",
"263 510 CURVE SMOOTH",
"206 510 OFFCURVE",
"141 503 OFFCURVE",
"68 488 CURVE",
"71 431 LINE",
"160 441 OFFCURVE",
"214 444 OFFCURVE",
"268 444 CURVE SMOOTH",
"319 444 OFFCURVE",
"350 417 OFFCURVE",
"350 349 CURVE SMOOTH",
"350 30 LINE",
"344 51 LINE",
"371 10 OFFCURVE",
"415 -10 OFFCURVE",
"480 -10 CURVE"
);
},
{
closed = 1;
nodes = (
"251 -10 OFFCURVE",
"320 8 OFFCURVE",
"390 44 CURVE",
"390 98 LINE",
"299 64 OFFCURVE",
"252 53 OFFCURVE",
"193 53 CURVE SMOOTH",
"142 53 OFFCURVE",
"117 84 OFFCURVE",
"117 145 CURVE SMOOTH",
"117 201 OFFCURVE",
"142 230 OFFCURVE",
"202 235 CURVE SMOOTH",
"395 253 LINE",
"395 310 LINE",
"193 291 LINE SMOOTH",
"88 280 OFFCURVE",
"40 238 OFFCURVE",
"40 141 CURVE SMOOTH",
"40 44 OFFCURVE",
"89 -10 OFFCURVE",
"181 -10 CURVE SMOOTH"
);
}
);
width = 501;
},
{
anchors = (
{
name = bottom;
position = "{256, 0}";
},
{
name = ogonek;
position = "{397, 0}";
},
{
name = top;
position = "{243, 538}";
}
);
layerId = "1FB77202-83CB-408E-8929-4AFC59A3446D";
paths = (
{
closed = 1;
nodes = (
"478 89 LINE",
"453 94 OFFCURVE",
"448 104 OFFCURVE",
"445 136 CURVE",
"445 344 LINE",
"445 461 OFFCURVE",
"392 512 OFFCURVE",
"264 512 CURVE",
"199 512 OFFCURVE",
"131 502 OFFCURVE",
"60 483 CURVE",
"64 390 LINE",
"103 393 OFFCURVE",
"205 398 OFFCURVE",
"252 398 CURVE",
"293 398 OFFCURVE",
"311 385 OFFCURVE",
"311 344 CURVE SMOOTH",
"311 28 LINE",
"305 42 LINE",
"360 -2 OFFCURVE",
"392 -12 OFFCURVE",
"474 -12 CURVE"
);
},
{
closed = 1;
nodes = (
"244 -12 OFFCURVE",
"302 5 OFFCURVE",
"359 38 CURVE",
"353 125 LINE",
"286 105 OFFCURVE",
"249 97 OFFCURVE",
"213 97 CURVE",
"180 97 OFFCURVE",
"164 115 OFFCURVE",
"164 152 CURVE",
"164 189 OFFCURVE",
"183 209 OFFCURVE",
"220 212 CURVE",
"356 224 LINE",
"356 316 LINE",
"204 305 LINE",
"85 297 OFFCURVE",
"29 259 OFFCURVE",
"29 152 CURVE",
"29 43 OFFCURVE",
"81 -12 OFFCURVE",
"184 -12 CURVE"
);
}
);
width = 511;
}
);
unicode = 0061;
},
{
glyphname = ae;
lastChange = "2017-03-25 23:23:44 +0000";
layers = (
{
components = (
{
name = e;
transform = "{1, 0, 0, 1, 306, 0}";
}
);
layerId = "8FFE84BD-9390-4D75-BABD-68166BF44E93";
paths = (
{
closed = 1;
nodes = (
"419 83 LINE",
"419 351 LINE SMOOTH",
"419 459 OFFCURVE",
"373 510 OFFCURVE",
"263 510 CURVE SMOOTH",
"208 510 OFFCURVE",
"143 503 OFFCURVE",
"70 489 CURVE",
"73 441 LINE",
"173 452 OFFCURVE",
"226 456 OFFCURVE",
"270 456 CURVE SMOOTH",
"325 456 OFFCURVE",
"360 426 OFFCURVE",
"360 351 CURVE SMOOTH",
"360 35 LINE"
);
},
{
closed = 1;
nodes = (
"263 -10 OFFCURVE",
"343 14 OFFCURVE",
"426 59 CURVE",
"389 87 LINE",
"323 60 OFFCURVE",
"251 41 OFFCURVE",
"188 41 CURVE SMOOTH",
"133 41 OFFCURVE",
"105 75 OFFCURVE",
"105 142 CURVE SMOOTH",
"105 203 OFFCURVE",
"132 235 OFFCURVE",
"197 240 CURVE SMOOTH",
"405 262 LINE",
"405 308 LINE",
"190 287 LINE SMOOTH",
"89 276 OFFCURVE",
"43 234 OFFCURVE",
"43 139 CURVE SMOOTH",
"43 43 OFFCURVE",
"91 -10 OFFCURVE",
"180 -10 CURVE SMOOTH"
);
}
);
width = 809;
},
{
components = (
{
name = e;
transform = "{1, 0, 0, 1, 299, 0}";
}
);
layerId = "0596A6ED-150F-4F1F-BF1E-4449A7B9DE21";
paths = (
{
closed = 1;
nodes = (
"424 93 LINE",
"424 349 LINE SMOOTH",
"424 460 OFFCURVE",
"375 510 OFFCURVE",
"262 510 CURVE SMOOTH",
"205 510 OFFCURVE",
"140 503 OFFCURVE",
"67 488 CURVE",
"70 431 LINE",
"159 441 OFFCURVE",
"213 444 OFFCURVE",
"267 444 CURVE SMOOTH",
"318 444 OFFCURVE",
"349 417 OFFCURVE",
"349 349 CURVE SMOOTH",
"349 30 LINE"
);
},
{
closed = 1;
nodes = (
"260 -10 OFFCURVE",
"338 13 OFFCURVE",
"418 60 CURVE",
"389 98 LINE",
"298 64 OFFCURVE",
"251 53 OFFCURVE",
"192 53 CURVE SMOOTH",
"141 53 OFFCURVE",
"116 84 OFFCURVE",
"116 145 CURVE SMOOTH",
"116 201 OFFCURVE",
"141 230 OFFCURVE",
"201 235 CURVE SMOOTH",
"394 253 LINE",
"394 310 LINE",
"192 291 LINE SMOOTH",
"87 280 OFFCURVE",
"39 238 OFFCURVE",
"39 141 CURVE SMOOTH",
"39 44 OFFCURVE",
"88 -10 OFFCURVE",
"180 -10 CURVE SMOOTH"
);
}
);
width = 804;
},
{
components = (
{
name = e;
transform = "{1, 0, 0, 1, 273, 0}";
}
);
layerId = "1FB77202-83CB-408E-8929-4AFC59A3446D";
paths = (
{
closed = 1;
nodes = (
"444 136 LINE",
"444 344 LINE",
"444 461 OFFCURVE",
"391 512 OFFCURVE",
"263 512 CURVE",
"198 512 OFFCURVE",
"130 502 OFFCURVE",
"59 483 CURVE",
"63 390 LINE",
"102 393 OFFCURVE",
"204 398 OFFCURVE",
"251 398 CURVE",
"292 398 OFFCURVE",
"310 385 OFFCURVE",
"310 344 CURVE SMOOTH",
"310 28 LINE"
);
},
{
closed = 1;
nodes = (
"253 -12 OFFCURVE",
"320 11 OFFCURVE",
"386 55 CURVE",
"352 125 LINE",
"285 105 OFFCURVE",
"248 97 OFFCURVE",
"212 97 CURVE",
"179 97 OFFCURVE",
"163 115 OFFCURVE",
"163 152 CURVE",
"163 189 OFFCURVE",
"182 209 OFFCURVE",
"219 212 CURVE",
"355 224 LINE",
"355 316 LINE",
"203 305 LINE",
"84 297 OFFCURVE",
"28 259 OFFCURVE",
"28 152 CURVE",
"28 43 OFFCURVE",
"80 -12 OFFCURVE",
"183 -12 CURVE"
);
}
);
width = 784;
}
);
unicode = 00E6;
},
{
glyphname = b;
lastChange = "2017-03-25 23:29:45 +0000";
layers = (
{
anchors = (
{
name = bottom;
position = "{261, 0}";
},
{
name = top;
position = "{261, 591}";
}
);
layerId = "8FFE84BD-9390-4D75-BABD-68166BF44E93";
paths = (
{
closed = 1;
nodes = (
"414 -10 OFFCURVE",
"468 62 OFFCURVE",
"468 252 CURVE SMOOTH",
"468 442 OFFCURVE",
"423 510 OFFCURVE",
"290 510 CURVE SMOOTH",
"228 510 OFFCURVE",
"167 493 OFFCURVE",
"105 458 CURVE",
"109 411 LINE",
"158 435 OFFCURVE",
"227 456 OFFCURVE",
"285 456 CURVE SMOOTH",
"378 456 OFFCURVE",
"406 399 OFFCURVE",
"406 258 CURVE SMOOTH",
"406 118 OFFCURVE",
"381 44 OFFCURVE",
"247 44 CURVE SMOOTH",
"217 44 OFFCURVE",
"179 46 OFFCURVE",
"131 50 CURVE",
"74 0 LINE",
"153 -7 OFFCURVE",
"198 -10 OFFCURVE",
"234 -10 CURVE SMOOTH"
);
},
{
closed = 1;
nodes = (
"134 33 LINE",
"134 722 LINE",
"74 722 LINE",
"74 0 LINE"
);
}
);
width = 521;
},
{
anchors = (
{
name = bottom;
position = "{263, 0}";
},
{
name = top;
position = "{263, 670}";
}
);
layerId = "0596A6ED-150F-4F1F-BF1E-4449A7B9DE21";
paths = (
{
closed = 1;
nodes = (
"419 -9 OFFCURVE",
"475 51 OFFCURVE",
"475 253 CURVE SMOOTH",
"475 439 OFFCURVE",
"428 510 OFFCURVE",
"298 510 CURVE SMOOTH",
"234 510 OFFCURVE",
"179 493 OFFCURVE",
"116 461 CURVE",
"106 399 LINE",
"186 431 OFFCURVE",
"237 443 OFFCURVE",
"281 443 CURVE SMOOTH",
"370 443 OFFCURVE",
"399 395 OFFCURVE",
"399 255 CURVE SMOOTH",
"399 112 OFFCURVE",
"369 57 OFFCURVE",
"242 57 CURVE SMOOTH",
"218 57 OFFCURVE",
"189 59 OFFCURVE",
"146 62 CURVE",
"72 1 LINE",
"159 -8 OFFCURVE",
"209 -9 OFFCURVE",
"234 -9 CURVE SMOOTH"
);
},
{
closed = 1;
nodes = (
"146 37 LINE",
"146 718 LINE",
"72 718 LINE",
"72 0 LINE"
);
}
);
width = 526;
},
{
anchors = (
{
name = bottom;
position = "{272, 0}";
},
{
name = top;
position = "{272, 593}";
}
);
layerId = "1FB77202-83CB-408E-8929-4AFC59A3446D";
paths = (
{
closed = 1;
nodes = (
"440 -12 OFFCURVE",
"506 57 OFFCURVE",
"506 251 CURVE SMOOTH",
"506 440 OFFCURVE",
"444 512 OFFCURVE",
"314 512 CURVE SMOOTH",
"257 512 OFFCURVE",
"229 498 OFFCURVE",
"159 470 CURVE",
"150 366 LINE",
"215 387 OFFCURVE",
"256 392 OFFCURVE",
"280 392 CURVE SMOOTH",
"342 392 OFFCURVE",
"370 355 OFFCURVE",
"370 250 CURVE SMOOTH",
"370 144 OFFCURVE",
"342 108 OFFCURVE",
"260 108 CURVE SMOOTH",
"246 108 OFFCURVE",
"227 109 OFFCURVE",
"196 112 CURVE",
"62 2 LINE",
"155 -8 OFFCURVE",
"224 -12 OFFCURVE",
"268 -12 CURVE SMOOTH"
);
},
{
closed = 1;
nodes = (
"196 34 LINE",
"196 700 LINE",
"62 700 LINE",
"62 2 LINE"
);
}
);
width = 544;
}
);
unicode = 0062;
},
{
glyphname = c;
lastChange = "2017-03-25 23:31:58 +0000";
layers = (
{
anchors = (
{
name = bottom;
position = "{217, 0}";
},
{
name = top;
position = "{248, 573}";
}
);
layerId = "8FFE84BD-9390-4D75-BABD-68166BF44E93";
paths = (
{
closed = 1;
nodes = (
"289 -10 OFFCURVE",
"333 -6 OFFCURVE",
"392 2 CURVE",
"390 53 LINE",
"271 44 LINE",
"144 44 OFFCURVE",
"116 97 OFFCURVE",
"116 253 CURVE SMOOTH",
"116 408 OFFCURVE",
"152 456 OFFCURVE",
"271 456 CURVE SMOOTH",
"296 456 OFFCURVE",
"335 453 OFFCURVE",
"388 446 CURVE",
"391 497 LINE",
"326 507 OFFCURVE",
"291 510 OFFCURVE",
"261 510 CURVE SMOOTH",
"112 510 OFFCURVE",
"54 444 OFFCURVE",
"54 252 CURVE SMOOTH",
"54 60 OFFCURVE",
"101 -10 OFFCURVE",
"260 -10 CURVE SMOOTH"
);
}
);
width = 433;
},
{
anchors = (
{
name = bottom;
position = "{218, 0}";
},
{
name = top;
position = "{246, 560}";
}
);
layerId = "0596A6ED-150F-4F1F-BF1E-4449A7B9DE21";
paths = (
{
closed = 1;
nodes = (
"290 -10 OFFCURVE",
"334 -5 OFFCURVE",
"396 4 CURVE",
"393 66 LINE",
"275 57 LINE",
"156 57 OFFCURVE",
"128 108 OFFCURVE",
"128 248 CURVE SMOOTH",
"128 398 OFFCURVE",
"160 443 OFFCURVE",
"271 443 CURVE SMOOTH",
"300 443 OFFCURVE",
"339 440 OFFCURVE",
"392 434 CURVE",
"395 495 LINE",
"316 509 OFFCURVE",
"282 511 OFFCURVE",
"246 511 CURVE SMOOTH",
"76 511 OFFCURVE",
"51 380 OFFCURVE",
"51 250 CURVE SMOOTH",
"51 67 OFFCURVE",
"101 -10 OFFCURVE",
"252 -10 CURVE SMOOTH"
);
}
);
width = 436;
},
{
anchors = (
{
name = bottom;
position = "{223, 0}";
},
{
name = top;
position = "{243, 538}";
}
);
layerId = "1FB77202-83CB-408E-8929-4AFC59A3446D";
paths = (
{
closed = 1;
nodes = (
"285 -12 OFFCURVE",
"338 -5 OFFCURVE",
"409 9 CURVE",
"405 116 LINE",
"289 108 LINE",
"196 108 OFFCURVE",
"174 142 OFFCURVE",
"174 251 CURVE SMOOTH",
"174 359 OFFCURVE",
"196 392 OFFCURVE",
"287 392 CURVE SMOOTH",
"314 392 OFFCURVE",
"352 389 OFFCURVE",
"405 384 CURVE",
"409 490 LINE",
"329 507 OFFCURVE",
"289 512 OFFCURVE",
"251 512 CURVE SMOOTH",
"101 512 OFFCURVE",
"38 436 OFFCURVE",
"38 250 CURVE SMOOTH",
"38 69 OFFCURVE",
"98 -12 OFFCURVE",
"243 -12 CURVE SMOOTH"
);
}
);
width = 446;
}
);
unicode = 0063;
},
{
glyphname = d;
lastChange = "2017-03-25 23:38:29 +0000";
layers = (
{
anchors = (
{
name = bottom;
position = "{262, 0}";
},
{
name = center;
position = "{272, 0}";
},
{
name = top;
position = "{262, 593}";
},
{
name = topright;
position = "{503, 0}";
}
);
layerId = "8FFE84BD-9390-4D75-BABD-68166BF44E93";
paths = (
{
closed = 1;
nodes = (
"293 -10 OFFCURVE",
"355 12 OFFCURVE",
"417 55 CURVE",
"418 101 LINE",
"357 71 OFFCURVE",
"297 44 OFFCURVE",
"240 44 CURVE SMOOTH",
"144 44 OFFCURVE",
"115 111 OFFCURVE",
"115 244 CURVE SMOOTH",
"115 389 OFFCURVE",
"152 457 OFFCURVE",
"265 457 CURVE SMOOTH",
"299 457 OFFCURVE",
"351 452 OFFCURVE",
"418 441 CURVE",
"415 493 LINE",
"348 505 OFFCURVE",
"297 510 OFFCURVE",
"263 510 CURVE SMOOTH",
"111 510 OFFCURVE",
"53 430 OFFCURVE",
"53 232 CURVE SMOOTH",
"53 78 OFFCURVE",
"99 -10 OFFCURVE",
"229 -10 CURVE SMOOTH"
);
},
{
closed = 1;
nodes = (
"449 0 LINE",
"449 722 LINE",
"389 722 LINE",
"389 0 LINE"
);
}
);
width = 523;
},
{
anchors = (
{
name = bottom;
position = "{265, 0}";
},
{
name = center;
position = "{275, 0}";
},
{
name = top;
position = "{265, 572}";
},
{
name = topright;
position = "{509, 0}";
}
);
layerId = "0596A6ED-150F-4F1F-BF1E-4449A7B9DE21";
paths = (
{
closed = 1;
nodes = (
"291 -10 OFFCURVE",
"349 11 OFFCURVE",
"410 51 CURVE",
"410 107 LINE",
"356 82 OFFCURVE",
"298 57 OFFCURVE",
"241 57 CURVE SMOOTH",
"154 57 OFFCURVE",
"127 124 OFFCURVE",
"127 247 CURVE SMOOTH",
"127 386 OFFCURVE",
"162 445 OFFCURVE",
"269 445 CURVE SMOOTH",
"304 445 OFFCURVE",
"362 439 OFFCURVE",
"416 426 CURVE",
"414 489 LINE",
"361 504 OFFCURVE",
"306 510 OFFCURVE",
"263 510 CURVE SMOOTH",
"111 510 OFFCURVE",
"50 431 OFFCURVE",
"50 241 CURVE SMOOTH",
"50 75 OFFCURVE",
"97 -10 OFFCURVE",
"227 -10 CURVE SMOOTH"
);
},
{
closed = 1;
nodes = (
"456 0 LINE",
"456 718 LINE",
"382 718 LINE",
"382 0 LINE"
);
}
);
width = 529;
},
{
anchors = (
{
name = bottom;
position = "{275, 0}";
},
{
name = center;
position = "{285, 0}";
},
{
name = top;
position = "{275, 562}";
},
{
name = topright;
position = "{529, 0}";
}
);
layerId = "1FB77202-83CB-408E-8929-4AFC59A3446D";
paths = (
{
closed = 1;
nodes = (
"270 -12 OFFCURVE",
"311 -3 OFFCURVE",
"397 43 CURVE",
"395 134 LINE",
"331 117 OFFCURVE",
"287 108 OFFCURVE",
"257 108 CURVE SMOOTH",
"196 108 OFFCURVE",
"174 147 OFFCURVE",
"174 246 CURVE SMOOTH",
"174 356 OFFCURVE",
"201 396 OFFCURVE",
"264 396 CURVE SMOOTH",
"287 396 OFFCURVE",
"341 391 OFFCURVE",
"390 378 CURVE",
"402 489 LINE",
"314 506 OFFCURVE",
"279 512 OFFCURVE",
"240 512 CURVE SMOOTH",
"104 512 OFFCURVE",
"38 432 OFFCURVE",
"38 243 CURVE SMOOTH",
"38 78 OFFCURVE",
"88 -12 OFFCURVE",
"226 -12 CURVE SMOOTH"
);
},
{
closed = 1;
nodes = (
"487 0 LINE",
"487 700 LINE",
"353 700 LINE",
"353 0 LINE"
);
}
);
width = 549;
}
);
unicode = 0064;
},
{
glyphname = eth;
lastChange = "2017-03-25 23:47:42 +0000";
layers = (
{
layerId = "8FFE84BD-9390-4D75-BABD-68166BF44E93";
paths = (
{
closed = 1;
nodes = (
"424 -9 OFFCURVE",
"488 91 OFFCURVE",
"488 352 CURVE SMOOTH",
"488 582 OFFCURVE",
"319 683 OFFCURVE",
"113 732 CURVE",
"99 685 LINE",
"385 605 OFFCURVE",
"425 472 OFFCURVE",
"425 377 CURVE SMOOTH",
"425 127 OFFCURVE",
"386 46 OFFCURVE",
"269 46 CURVE SMOOTH",
"159 46 OFFCURVE",
"106 108 OFFCURVE",
"106 209 CURVE SMOOTH",
"106 309 OFFCURVE",
"162 373 OFFCURVE",
"256 373 CURVE SMOOTH",
"311 373 OFFCURVE",
"378 355 OFFCURVE",
"461 320 CURVE",
"468 373 LINE",
"362 413 OFFCURVE",
"304 428 OFFCURVE",
"251 428 CURVE SMOOTH",
"120 428 OFFCURVE",
"43 345 OFFCURVE",
"43 209 CURVE SMOOTH",
"43 72 OFFCURVE",
"124 -9 OFFCURVE",
"263 -9 CURVE SMOOTH"
);
},
{
closed = 1;
nodes = (
"409 704 LINE",
"380 743 LINE",
"127 573 LINE",
"156 534 LINE"
);
}
);
width = 543;
},
{
layerId = "0596A6ED-150F-4F1F-BF1E-4449A7B9DE21";
paths = (
{
closed = 1;
nodes = (
"429 -9 OFFCURVE",
"496 94 OFFCURVE",
"496 352 CURVE SMOOTH",
"496 585 OFFCURVE",
"326 687 OFFCURVE",
"111 728 CURVE",
"96 672 LINE",
"263 628 OFFCURVE",
"417 555 OFFCURVE",
"417 372 CURVE SMOOTH",
"417 282 OFFCURVE",
"438 59 OFFCURVE",
"271 59 CURVE SMOOTH",
"169 59 OFFCURVE",
"121 117 OFFCURVE",
"121 210 CURVE SMOOTH",
"121 303 OFFCURVE",
"169 363 OFFCURVE",
"260 363 CURVE SMOOTH",
"313 363 OFFCURVE",
"378 346 OFFCURVE",
"452 313 CURVE",
"459 379 LINE",
"338 423 OFFCURVE",
"309 430 OFFCURVE",
"252 430 CURVE SMOOTH",
"119 430 OFFCURVE",
"42 348 OFFCURVE",
"42 210 CURVE SMOOTH",
"42 72 OFFCURVE",
"122 -9 OFFCURVE",
"265 -9 CURVE SMOOTH"
);
},
{
closed = 1;
nodes = (
"419 695 LINE",
"385 742 LINE",
"125 567 LINE",
"158 520 LINE"
);
}
);
width = 548;
},
{
layerId = "1FB77202-83CB-408E-8929-4AFC59A3446D";
paths = (
{
closed = 1;
nodes = (
"453 -9 OFFCURVE",
"528 102 OFFCURVE",
"528 351 CURVE SMOOTH",
"528 620 OFFCURVE",
"333 695 OFFCURVE",
"100 712 CURVE",
"82 618 LINE",
"273 581 OFFCURVE",
"388 550 OFFCURVE",
"388 379 CURVE",
"388 187 OFFCURVE",
"357 111 OFFCURVE",
"273 111 CURVE SMOOTH",
"211 111 OFFCURVE",
"180 146 OFFCURVE",
"180 216 CURVE SMOOTH",
"180 273 OFFCURVE",
"209 320 OFFCURVE",
"264 320 CURVE SMOOTH",
"324 320 OFFCURVE",
"372 309 OFFCURVE",
"408 286 CURVE",
"424 400 LINE",
"350 429 OFFCURVE",
"307 438 OFFCURVE",
"256 438 CURVE SMOOTH",
"111 438 OFFCURVE",
"38 355 OFFCURVE",
"38 216 CURVE SMOOTH",
"38 66 OFFCURVE",
"116 -9 OFFCURVE",
"273 -9 CURVE SMOOTH"
);
},
{
closed = 1;
nodes = (
"437 699 LINE",
"376 770 LINE",
"104 549 LINE",
"165 479 LINE"
);
}
);
width = 567;
}
);
unicode = 00F0;
},
{
glyphname = dcaron;
lastChange = "2017-03-25 23:48:36 +0000";
layers = (
{
components = (
{
name = d;
}
);
layerId = "8FFE84BD-9390-4D75-BABD-68166BF44E93";
paths = (
{
closed = 1;
nodes = (
"562 484 LINE",
"610 685 LINE",
"550 685 LINE",
"511 484 LINE"
);
}
);
width = 552;
},
{
components = (
{
name = d;
}
);
layerId = "0596A6ED-150F-4F1F-BF1E-4449A7B9DE21";
paths = (
{
closed = 1;
nodes = (
"583 476 LINE",
"632 683 LINE",
"558 683 LINE",
"518 476 LINE"
);
}
);
width = 575;
},
{
components = (
{
name = d;
}
);
layerId = "1FB77202-83CB-408E-8929-4AFC59A3446D";
paths = (
{
closed = 1;
nodes = (
"665 444 LINE",
"720 678 LINE",
"590 678 LINE",
"544 444 LINE"
);
}
);
width = 664;
}
);
unicode = 010F;
},
{
glyphname = e;
lastChange = "2017-03-25 23:56:59 +0000";
layers = (
{
anchors = (
{
name = bottom;
position = "{252, 0}";
},
{
name = ogonek;
position = "{378, 0}";
},
{
name = top;
position = "{269, 576}";
}
);
layerId = "8FFE84BD-9390-4D75-BABD-68166BF44E93";
paths = (
{
closed = 1;
nodes = (
"316 -10 OFFCURVE",
"372 -4 OFFCURVE",
"438 4 CURVE",
"436 53 LINE",
"357 46 OFFCURVE",
"309 44 OFFCURVE",
"254 44 CURVE SMOOTH",
"140 44 OFFCURVE",
"106 116 OFFCURVE",
"115 269 CURVE",
"116 229 LINE",
"103 390 OFFCURVE",
"153 458 OFFCURVE",
"260 458 CURVE SMOOTH",
"355 458 OFFCURVE",
"396 407 OFFCURVE",
"396 275 CURVE",
"69 275 LINE",
"69 225 LINE",
"454 225 LINE",
"456 273 LINE",
"456 438 OFFCURVE",
"391 510 OFFCURVE",
"259 510 CURVE SMOOTH",
"122 510 OFFCURVE",
"53 423 OFFCURVE",
"53 248 CURVE SMOOTH",
"53 47 OFFCURVE",
"115 -10 OFFCURVE",
"269 -10 CURVE SMOOTH"
);
}
);
width = 504;
},
{
anchors = (
{
name = bottom;
position = "{253, 0}";
},
{
name = ogonek;
position = "{369, 0}";
},
{
name = top;
position = "{264, 558}";
}
);
layerId = "0596A6ED-150F-4F1F-BF1E-4449A7B9DE21";
paths = (
{
closed = 1;
nodes = (
"298 -10 OFFCURVE",
"367 -5 OFFCURVE",
"443 6 CURVE",
"441 65 LINE",
"378 59 OFFCURVE",
"307 56 OFFCURVE",
"276 56 CURVE SMOOTH",
"148 56 OFFCURVE",
"119 109 OFFCURVE",
"127 264 CURVE",
"127 234 LINE",
"116 383 OFFCURVE",
"159 447 OFFCURVE",
"261 447 CURVE SMOOTH",
"348 447 OFFCURVE",
"385 401 OFFCURVE",
"385 279 CURVE",
"80 279 LINE",
"81 219 LINE",
"456 219 LINE",
"460 276 LINE",
"460 436 OFFCURVE",
"394 510 OFFCURVE",
"261 510 CURVE SMOOTH",
"115 510 OFFCURVE",
"50 421 OFFCURVE",
"50 237 CURVE SMOOTH",
"50 70 OFFCURVE",
"104 -10 OFFCURVE",
"259 -10 CURVE SMOOTH"
);
}
);
width = 505;
},
{
anchors = (
{
name = bottom;
position = "{255, 0}";
},
{
name = ogonek;
position = "{333, 0}";
},
{
name = top;
position = "{255, 543}";
}
);
layerId = "1FB77202-83CB-408E-8929-4AFC59A3446D";
paths = (
{
closed = 1;
nodes = (
"312 -12 OFFCURVE",
"383 -3 OFFCURVE",
"460 16 CURVE",
"458 115 LINE",
"400 109 OFFCURVE",
"319 106 OFFCURVE",
"284 106 CURVE SMOOTH",
"173 106 OFFCURVE",
"164 137 OFFCURVE",
"175 288 CURVE",
"176 216 LINE",
"162 352 OFFCURVE",
"176 402 OFFCURVE",
"260 402 CURVE SMOOTH",
"322 402 OFFCURVE",
"344 375 OFFCURVE",
"344 295 CURVE",
"126 295 LINE",
"127 193 LINE",
"466 193 LINE",
"476 286 LINE",
"476 437 OFFCURVE",
"401 512 OFFCURVE",
"261 512 CURVE SMOOTH",
"107 512 OFFCURVE",
"37 421 OFFCURVE",
"37 238 CURVE SMOOTH",
"37 63 OFFCURVE",
"101 -12 OFFCURVE",
"258 -12 CURVE SMOOTH"
);
}
);
width = 510;
}
);
unicode = 0065;
},
{
glyphname = f;
lastChange = "2017-03-26 00:01:11 +0000";
layers = (
{
anchors = (
{
name = bottom;
position = "{162, 0}";
},
{
name = top;
position = "{162, 776}";
}
);
layerId = "8FFE84BD-9390-4D75-BABD-68166BF44E93";
paths = (
{
closed = 1;
nodes = (
"155 0 LINE",
"155 550 LINE SMOOTH",
"155 651 OFFCURVE",
"173 678 OFFCURVE",
"236 678 CURVE SMOOTH",
"255 678 OFFCURVE",
"324 676 OFFCURVE",
"324 676 CURVE",
"324 727 LINE",
"227 732 LINE",
"128 732 OFFCURVE",
"95 692 OFFCURVE",
"95 551 CURVE SMOOTH",
"95 0 LINE"
);
},
{
closed = 1;
nodes = (
"306 447 LINE",
"306 500 LINE",
"30 500 LINE",
"30 447 LINE"
);
}
);
width = 324;
},
{
anchors = (
{
name = bottom;
position = "{166, 0}";
},
{
name = top;
position = "{166, 765}";
}
);
layerId = "0596A6ED-150F-4F1F-BF1E-4449A7B9DE21";
paths = (
{
closed = 1;
nodes = (
"168 0 LINE",
"168 544 LINE SMOOTH",
"168 614 OFFCURVE",
"179 662 OFFCURVE",
"232 662 CURVE SMOOTH",
"259 662 OFFCURVE",
"328 659 OFFCURVE",
"328 659 CURVE",
"329 721 LINE",
"228 728 LINE",
"128 728 OFFCURVE",
"93 686 OFFCURVE",
"93 545 CURVE SMOOTH",
"93 0 LINE"
);
},
{
closed = 1;
nodes = (
"313 435 LINE",
"313 500 LINE",
"30 500 LINE",
"30 435 LINE"
);
}
);
width = 331;
},
{
anchors = (
{
name = bottom;
position = "{179, 0}";
},
{
name = top;
position = "{179, 748}";
}
);
layerId = "1FB77202-83CB-408E-8929-4AFC59A3446D";
paths = (
{
closed = 1;
nodes = (
"220 0 LINE",
"220 521 LINE SMOOTH",
"220 555 OFFCURVE",
"230 594 OFFCURVE",
"261 594 CURVE SMOOTH",
"276 594 OFFCURVE",
"344 590 OFFCURVE",
"344 590 CURVE",
"346 703 LINE",
"232 712 LINE",
"123 712 OFFCURVE",
"86 666 OFFCURVE",
"86 522 CURVE SMOOTH",
"86 0 LINE"
);
},
{
closed = 1;
nodes = (
"341 386 LINE",
"341 500 LINE",
"32 500 LINE",
"32 386 LINE"
);
}
);
width = 357;
}
);
unicode = 0066;
},
{
glyphname = g;
lastChange = "2017-03-26 16:52:09 +0000";
layers = (
{
anchors = (
{
name = bottom;
position = "{255, 0}";
},
{
name = top;
position = "{255, 587}";
}
);
layerId = "8FFE84BD-9390-4D75-BABD-68166BF44E93";
paths = (
{
closed = 1;
nodes = (
"415 -237 OFFCURVE",
"480 -189 OFFCURVE",
"480 -69 CURVE SMOOTH",
"480 41 OFFCURVE",
"425 67 OFFCURVE",
"289 67 CURVE SMOOTH",
"223 67 OFFCURVE",
"166 61 OFFCURVE",
"166 113 CURVE SMOOTH",
"166 123 OFFCURVE",
"168 131 OFFCURVE",
"186 177 CURVE",
"128 197 LINE",
"109 148 OFFCURVE",
"104 131 OFFCURVE",
"104 113 CURVE SMOOTH",
"104 -1 OFFCURVE",
"227 12 OFFCURVE",
"289 12 CURVE SMOOTH",
"404 12 OFFCURVE",
"418 -1 OFFCURVE",
"418 -69 CURVE SMOOTH",
"418 -155 OFFCURVE",
"384 -182 OFFCURVE",
"252 -182 CURVE SMOOTH",
"136 -182 OFFCURVE",
"115 -164 OFFCURVE",
"115 -88 CURVE SMOOTH",
"115 -37 OFFCURVE",
"123 -36 OFFCURVE",
"224 38 CURVE",
"134 43 LINE",
"69 -5 OFFCURVE",
"53 -28 OFFCURVE",
"53 -88 CURVE SMOOTH",
"53 -200 OFFCURVE",
"108 -237 OFFCURVE",
"252 -237 CURVE SMOOTH"
);
},
{
closed = 1;
nodes = (
"368 167 OFFCURVE",
"428 223 OFFCURVE",
"428 340 CURVE SMOOTH",
"428 457 OFFCURVE",
"367 514 OFFCURVE",
"244 514 CURVE SMOOTH",
"120 514 OFFCURVE",
"59 457 OFFCURVE",
"59 340 CURVE SMOOTH",
"59 224 OFFCURVE",
"120 167 OFFCURVE",
"244 167 CURVE SMOOTH"
);
},
{
closed = 1;
nodes = (
"155 222 OFFCURVE",
"121 254 OFFCURVE",
"121 340 CURVE SMOOTH",
"121 426 OFFCURVE",
"155 459 OFFCURVE",
"244 459 CURVE SMOOTH",
"332 459 OFFCURVE",
"366 427 OFFCURVE",
"366 340 CURVE SMOOTH",
"366 252 OFFCURVE",
"332 222 OFFCURVE",
"244 222 CURVE SMOOTH"
);
},
{
closed = 1;
nodes = (
"490 500 LINE",
"335 497 LINE",
"390 449 LINE",
"490 447 LINE"
);
}
);
width = 509;
},
{
anchors = (
{
name = bottom;
position = "{257, 0}";
},
{
name = top;
position = "{257, 560}";
}
);
layerId = "0596A6ED-150F-4F1F-BF1E-4449A7B9DE21";
paths = (
{
closed = 1;
nodes = (
"423 -235 OFFCURVE",
"487 -182 OFFCURVE",
"487 -68 CURVE SMOOTH",
"487 53 OFFCURVE",
"415 71 OFFCURVE",
"296 71 CURVE SMOOTH",
"228 71 OFFCURVE",
"173 65 OFFCURVE",
"173 113 CURVE SMOOTH",
"173 129 OFFCURVE",
"179 144 OFFCURVE",
"191 174 CURVE",
"120 199 LINE",
"102 153 OFFCURVE",
"97 134 OFFCURVE",
"97 113 CURVE SMOOTH",
"97 -10 OFFCURVE",
"233 5 OFFCURVE",
"296 5 CURVE SMOOTH",
"401 5 OFFCURVE",
"411 -4 OFFCURVE",
"411 -68 CURVE SMOOTH",
"411 -145 OFFCURVE",
"381 -169 OFFCURVE",
"255 -169 CURVE SMOOTH",
"144 -169 OFFCURVE",
"126 -153 OFFCURVE",
"126 -90 CURVE SMOOTH",
"126 -43 OFFCURVE",
"129 -49 OFFCURVE",
"232 33 CURVE",
"129 40 LINE",
"72 -4 OFFCURVE",
"50 -25 OFFCURVE",
"50 -90 CURVE SMOOTH",
"50 -193 OFFCURVE",
"105 -235 OFFCURVE",
"255 -235 CURVE SMOOTH"
);
},
{
closed = 1;
nodes = (
"368 170 OFFCURVE",
"434 228 OFFCURVE",
"434 340 CURVE SMOOTH",
"434 452 OFFCURVE",
"368 510 OFFCURVE",
"245 510 CURVE SMOOTH",
"120 510 OFFCURVE",
"53 451 OFFCURVE",
"53 340 CURVE SMOOTH",
"53 228 OFFCURVE",
"120 170 OFFCURVE",
"244 170 CURVE SMOOTH"
);
},
{
closed = 1;
nodes = (
"163 230 OFFCURVE",
"130 260 OFFCURVE",
"130 339 CURVE SMOOTH",
"130 418 OFFCURVE",
"163 449 OFFCURVE",
"245 449 CURVE SMOOTH",
"325 449 OFFCURVE",
"357 419 OFFCURVE",
"357 340 CURVE SMOOTH",
"357 260 OFFCURVE",
"325 230 OFFCURVE",
"244 230 CURVE SMOOTH"
);
},
{
closed = 1;
nodes = (
"495 501 LINE",
"327 497 LINE",
"400 439 LINE",
"495 437 LINE"
);
}
);
width = 514;
},
{
anchors = (
{
name = bottom;
position = "{267, 0}";
},
{
name = top;
position = "{267, 541}";
}
);
layerId = "1FB77202-83CB-408E-8929-4AFC59A3446D";
paths = (
{
closed = 1;
nodes = (
"431 -230 OFFCURVE",
"514 -176 OFFCURVE",
"514 -53 CURVE SMOOTH",
"514 70 OFFCURVE",
"432 87 OFFCURVE",
"296 89 CURVE SMOOTH",
"236 90 OFFCURVE",
"199 89 OFFCURVE",
"199 120 CURVE SMOOTH",
"199 129 OFFCURVE",
"202 144 OFFCURVE",
"209 161 CURVE",
"107 205 LINE",
"96 179 OFFCURVE",
"89 144 OFFCURVE",
"89 120 CURVE SMOOTH",
"89 -30 OFFCURVE",
"237 -27 OFFCURVE",
"294 -27 CURVE SMOOTH",
"346 -27 OFFCURVE",
"388 -25 OFFCURVE",
"388 -67 CURVE SMOOTH",
"388 -103 OFFCURVE",
"357 -120 OFFCURVE",
"280 -120 CURVE SMOOTH",
"211 -120 OFFCURVE",
"177 -106 OFFCURVE",
"177 -74 CURVE SMOOTH",
"177 -50 OFFCURVE",
"197 -18 OFFCURVE",
"237 4 CURVE",
"140 51 LINE",
"71 3 OFFCURVE",
"36 -35 OFFCURVE",
"36 -96 CURVE SMOOTH",
"36 -196 OFFCURVE",
"128 -230 OFFCURVE",
"262 -230 CURVE SMOOTH"
);
},
{
closed = 1;
nodes = (
"376 155 OFFCURVE",
"463 210 OFFCURVE",
"463 333 CURVE SMOOTH",
"463 456 OFFCURVE",
"377 510 OFFCURVE",
"253 510 CURVE SMOOTH",
"129 510 OFFCURVE",
"42 455 OFFCURVE",
"42 333 CURVE SMOOTH",
"42 210 OFFCURVE",
"129 155 OFFCURVE",
"253 155 CURVE SMOOTH"
);
},
{
closed = 1;
nodes = (
"203 259 OFFCURVE",
"177 284 OFFCURVE",
"177 333 CURVE SMOOTH",
"177 382 OFFCURVE",
"203 406 OFFCURVE",
"254 406 CURVE SMOOTH",
"305 406 OFFCURVE",
"330 382 OFFCURVE",
"330 333 CURVE SMOOTH",
"330 284 OFFCURVE",
"305 259 OFFCURVE",
"254 259 CURVE SMOOTH"
);
},
{
closed = 1;
nodes = (
"515 502 LINE",
"336 497 LINE",
"440 401 LINE",
"515 395 LINE"
);
}
);
width = 534;
}
);
unicode = 0067;
},
{
glyphname = h;
lastChange = "2017-03-26 16:59:28 +0000";
layers = (
{
anchors = (
{
name = bottom;
position = "{267, 0}";
},
{
name = center;
position = "{267, 0}";
},
{
name = top;
position = "{259, 773}";
}
);
layerId = "8FFE84BD-9390-4D75-BABD-68166BF44E93";
paths = (
{
closed = 1;
nodes = (
"463 0 LINE",
"463 263 LINE SMOOTH",
"463 448 OFFCURVE",
"429 510 OFFCURVE",
"300 510 CURVE SMOOTH",
"239 510 OFFCURVE",
"179 496 OFFCURVE",
"104 456 CURVE",
"109 411 LINE",
"159 435 OFFCURVE",
"228 456 OFFCURVE",
"291 456 CURVE SMOOTH",
"384 456 OFFCURVE",
"403 411 OFFCURVE",
"403 260 CURVE SMOOTH",
"403 0 LINE"
);
},
{
closed = 1;
nodes = (
"134 0 LINE",
"134 722 LINE",
"75 722 LINE",
"75 0 LINE"
);
}
);
width = 533;
},
{
anchors = (
{
name = bottom;
position = "{269, 0}";
},
{
name = center;
position = "{269, 0}";
},
{
name = top;
position = "{270, 739}";
}
);
layerId = "0596A6ED-150F-4F1F-BF1E-4449A7B9DE21";
paths = (
{
closed = 1;
nodes = (
"470 0 LINE",
"470 264 LINE SMOOTH",
"470 445 OFFCURVE",
"434 510 OFFCURVE",
"305 510 CURVE SMOOTH",
"246 510 OFFCURVE",
"189 496 OFFCURVE",
"113 455 CURVE",
"110 399 LINE",
"185 428 OFFCURVE",
"229 443 OFFCURVE",
"285 443 CURVE SMOOTH",
"376 443 OFFCURVE",
"395 403 OFFCURVE",
"395 262 CURVE SMOOTH",
"395 0 LINE"
);
},
{
closed = 1;
nodes = (
"147 0 LINE",
"147 718 LINE",
"72 718 LINE",
"72 0 LINE"
);
}
);
width = 537;
},
{
anchors = (
{
name = bottom;
position = "{277, 0}";
},
{
name = center;
position = "{277, 0}";
},
{
name = top;
position = "{276, 710}";
}
);
layerId = "1FB77202-83CB-408E-8929-4AFC59A3446D";
paths = (
{
closed = 1;
nodes = (
"496 0 LINE",
"496 271 LINE SMOOTH",
"496 431 OFFCURVE",
"453 512 OFFCURVE",
"327 512 CURVE SMOOTH",
"270 512 OFFCURVE",
"230 496 OFFCURVE",
"162 458 CURVE",
"157 363 LINE",
"213 383 OFFCURVE",
"252 392 OFFCURVE",
"284 392 CURVE SMOOTH",
"347 392 OFFCURVE",
"362 355 OFFCURVE",
"362 268 CURVE SMOOTH",
"362 0 LINE"
);
},
{
closed = 1;
nodes = (
"196 0 LINE",
"196 700 LINE",
"62 700 LINE",
"62 0 LINE"
);
}
);
width = 553;
}
);
unicode = 0068;
},
{
glyphname = i;
lastChange = "2017-03-26 17:07:45 +0000";
layers = (
{
anchors = (
{
name = bottom;
position = "{105, 0}";
},
{
name = ogonek;
position = "{102, -1}";
},
{
name = top;
position = "{105, 720}";
}
);
layerId = "8FFE84BD-9390-4D75-BABD-68166BF44E93";
paths = (
{
closed = 1;
nodes = (
"134 0 LINE",
"134 500 LINE",
"75 500 LINE",
"75 0 LINE"
);
},
{
closed = 1;
nodes = (
"134 625 LINE",
"134 700 LINE",
"75 700 LINE",
"75 625 LINE"
);
}
);
width = 209;
},
{
anchors = (
{
name = bottom;
position = "{110, 0}";
},
{
name = ogonek;
position = "{114, -1}";
},
{
name = top;
position = "{110, 720}";
}
);
layerId = "0596A6ED-150F-4F1F-BF1E-4449A7B9DE21";
paths = (
{
closed = 1;
nodes = (
"147 0 LINE",
"147 500 LINE",
"72 500 LINE",
"72 0 LINE"
);
},
{
closed = 1;
nodes = (
"147 613 LINE",
"147 700 LINE",
"72 700 LINE",
"72 613 LINE"
);
}
);
width = 219;
},
{
anchors = (
{
name = bottom;
position = "{129, 0}";
},
{
name = ogonek;
position = "{140, -1}";
},
{
name = top;
position = "{129, 715}";
}
);
layerId = "1FB77202-83CB-408E-8929-4AFC59A3446D";
paths = (
{
closed = 1;
nodes = (
"196 0 LINE",
"196 500 LINE",
"62 500 LINE",
"62 0 LINE"
);
},
{
closed = 1;
nodes = (
"196 564 LINE",
"196 700 LINE",
"62 700 LINE",
"62 564 LINE"
);
}
);
width = 258;
}
);
unicode = 0069;
},
{
glyphname = dotlessi;
lastChange = "2017-03-26 17:04:02 +0000";
layers = (
{
anchors = (
{
name = bottom;
position = "{103, 2}";
},
{
name = ogonek;
position = "{164, 0}";
},
{
name = top;
position = "{103, 572}";
}
);
layerId = "8FFE84BD-9390-4D75-BABD-68166BF44E93";
paths = (
{
closed = 1;
nodes = (
"75 0 LINE",
"75 500 LINE",
"134 500 LINE",
"134 0 LINE"
);
}
);
width = 209;
},
{
anchors = (
{
name = bottom;
position = "{113, 0}";
},
{
name = ogonek;
position = "{164, 0}";
},
{
name = top;
position = "{113, 561}";
}
);
layerId = "0596A6ED-150F-4F1F-BF1E-4449A7B9DE21";
paths = (
{
closed = 1;
nodes = (
"72 0 LINE",
"72 500 LINE",
"147 500 LINE",
"147 0 LINE"
);
}
);
width = 219;
},
{
anchors = (
{
name = bottom;
position = "{129, 0}";
},
{
name = ogonek;
position = "{223, 0}";
},
{
name = top;
position = "{129, 537}";
}
);
layerId = "1FB77202-83CB-408E-8929-4AFC59A3446D";
paths = (
{
closed = 1;
nodes = (
"62 0 LINE",
"62 500 LINE",
"196 500 LINE",
"196 0 LINE"
);
}
);
width = 258;
}
);
unicode = 0131;
},
{
glyphname = j;
lastChange = "2017-03-26 17:09:40 +0000";
layers = (
{
layerId = "8FFE84BD-9390-4D75-BABD-68166BF44E93";
paths = (
{
closed = 1;
nodes = (
"103 -154 OFFCURVE",
"135 -108 OFFCURVE",
"135 9 CURVE SMOOTH",
"135 500 LINE",
"75 500 LINE",
"75 10 LINE SMOOTH",
"75 -87 OFFCURVE",
"55 -112 OFFCURVE",
"-53 -173 CURVE",
"-29 -221 LINE"
);
},
{
closed = 1;
nodes = (
"135 625 LINE",
"135 700 LINE",
"75 700 LINE",
"75 625 LINE"
);
}
);
width = 209;
},
{
layerId = "0596A6ED-150F-4F1F-BF1E-4449A7B9DE21";
paths = (
{
closed = 1;
nodes = (
"114 -155 OFFCURVE",
"147 -111 OFFCURVE",
"147 12 CURVE SMOOTH",
"147 500 LINE",
"73 500 LINE",
"73 13 LINE SMOOTH",
"73 -79 OFFCURVE",
"54 -105 OFFCURVE",
"-49 -165 CURVE",
"-19 -223 LINE"
);
},
{
closed = 1;
nodes = (
"147 613 LINE",
"147 700 LINE",
"73 700 LINE",
"73 613 LINE"
);
}
);
width = 219;
},
{
layerId = "1FB77202-83CB-408E-8929-4AFC59A3446D";
paths = (
{
closed = 1;
nodes = (
"162 -158 OFFCURVE",
"197 -113 OFFCURVE",
"197 23 CURVE SMOOTH",
"197 500 LINE",
"63 500 LINE",
"63 24 LINE SMOOTH",
"63 -53 OFFCURVE",
"52 -73 OFFCURVE",
"-34 -131 CURVE",
"19 -230 LINE"
);
},
{
closed = 1;
nodes = (
"197 579 LINE",
"197 715 LINE",
"63 715 LINE",
"63 579 LINE"
);
}
);
width = 259;
}
);
unicode = 006A;
},
{
glyphname = dotlessj;
lastChange = "2017-03-26 17:11:50 +0000";
layers = (
{
anchors = (
{
name = bottom;
position = "{105, 0}";
},
{
name = top;
position = "{105, 583}";
}
);
layerId = "8FFE84BD-9390-4D75-BABD-68166BF44E93";
paths = (
{
closed = 1;
nodes = (
"103 -154 OFFCURVE",
"135 -108 OFFCURVE",
"135 9 CURVE SMOOTH",
"135 500 LINE",
"75 500 LINE",
"75 10 LINE SMOOTH",
"75 -87 OFFCURVE",
"55 -112 OFFCURVE",
"-53 -173 CURVE",
"-29 -221 LINE"
);
}
);
width = 209;
},
{
anchors = (
{
name = bottom;
position = "{110, 0}";
},
{
name = top;
position = "{110, 560}";
}
);
layerId = "0596A6ED-150F-4F1F-BF1E-4449A7B9DE21";
paths = (
{
closed = 1;
nodes = (
"114 -155 OFFCURVE",
"147 -111 OFFCURVE",
"147 12 CURVE SMOOTH",
"147 500 LINE",
"73 500 LINE",
"73 13 LINE SMOOTH",
"73 -79 OFFCURVE",
"54 -105 OFFCURVE",
"-49 -165 CURVE",
"-19 -223 LINE"
);
}
);
width = 219;
},
{
anchors = (
{
name = bottom;
position = "{130, 0}";
},
{
name = top;
position = "{130, 535}";
}
);
layerId = "1FB77202-83CB-408E-8929-4AFC59A3446D";
paths = (
{
closed = 1;
nodes = (
"162 -158 OFFCURVE",
"197 -113 OFFCURVE",
"197 23 CURVE SMOOTH",
"197 500 LINE",
"63 500 LINE",
"63 24 LINE SMOOTH",
"63 -53 OFFCURVE",
"52 -73 OFFCURVE",
"-34 -131 CURVE",
"19 -230 LINE"
);
}
);
width = 259;
}
);
unicode = F6BE;
},
{
glyphname = k;
lastChange = "2017-03-26 17:17:50 +0000";
layers = (
{
anchors = (
{
name = bottom;
position = "{235, 0}";
},
{
name = ogonek;
position = "{428, 0}";
},
{
name = top;
position = "{235, 727}";
}
);
layerId = "8FFE84BD-9390-4D75-BABD-68166BF44E93";
paths = (
{
closed = 1;
nodes = (
"450 0 LINE",
"246 309 LINE",
"244 235 LINE",
"442 500 LINE",
"373 500 LINE",
"201 270 LINE",
"380 0 LINE"
);
},
{
closed = 1;
nodes = (
"265 242 LINE",
"264 295 LINE",
"89 291 LINE",
"89 238 LINE"
);
},
{
closed = 1;
nodes = (
"134 0 LINE",
"134 722 LINE",
"75 722 LINE",
"75 0 LINE"
);
}
);
width = 470;
},
{
anchors = (
{
name = bottom;
position = "{240, 0}";
},
{
name = ogonek;
position = "{428, 0}";
},
{
name = top;
position = "{240, 579}";
}
);
layerId = "0596A6ED-150F-4F1F-BF1E-4449A7B9DE21";
paths = (
{
closed = 1;
nodes = (
"460 0 LINE",
"266 308 LINE",
"264 233 LINE",
"453 500 LINE",
"368 500 LINE",
"204 268 LINE",
"375 0 LINE"
);
},
{
closed = 1;
nodes = (
"271 234 LINE",
"270 300 LINE",
"102 292 LINE",
"102 227 LINE"
);
},
{
closed = 1;
nodes = (
"147 0 LINE",
"147 718 LINE",
"72 718 LINE",
"72 0 LINE"
);
}
);
width = 479;
},
{
anchors = (
{
name = bottom;
position = "{258, 0}";
},
{
name = ogonek;
position = "{428, 0}";
},
{
name = top;
position = "{258, 587}";
}
);
layerId = "1FB77202-83CB-408E-8929-4AFC59A3446D";
paths = (
{
closed = 1;
nodes = (
"503 0 LINE",
"345 303 LINE",
"344 224 LINE",
"496 500 LINE",
"346 500 LINE",
"227 253 LINE",
"352 0 LINE"
);
},
{
closed = 1;
nodes = (
"295 202 LINE",
"291 319 LINE",
"152 294 LINE",
"152 179 LINE"
);
},
{
closed = 1;
nodes = (
"196 0 LINE",
"196 700 LINE",
"62 700 LINE",
"62 0 LINE"
);
}
);
width = 515;
}
);
unicode = 006B;
},
{
glyphname = l;
lastChange = "2017-04-18 23:31:53 +0000";
layers = (
{
anchors = (
{
name = bottom;
position = "{81, 0}";
},
{
name = center;
position = "{126, 0}";
},
{
name = top;
position = "{111, 782}";
},
{
name = topright;
position = "{201, 0}";
}
);
layerId = "8FFE84BD-9390-4D75-BABD-68166BF44E93";
paths = (
{
closed = 1;
nodes = (
"140 0 LINE",
"140 722 LINE",
"81 722 LINE",
"81 0 LINE"
);
}
);
width = 221;
},
{
anchors = (
{
name = bottom;
position = "{91, 0}";
},
{
name = center;
position = "{128, 0}";
},
{
name = top;
position = "{116, 789}";
},
{
name = topright;
position = "{211, 0}";
}
);
layerId = "0596A6ED-150F-4F1F-BF1E-4449A7B9DE21";
paths = (
{
closed = 1;
nodes = (
"153 0 LINE",
"153 718 LINE",
"78 718 LINE",
"78 0 LINE"
);
}
);
width = 231;
},
{
anchors = (
{
name = bottom;
position = "{109, 0}";
},
{
name = center;
position = "{144, 0}";
},
{
name = top;
position = "{135, 742}";
},
{
name = topright;
position = "{250, 0}";
}
);
layerId = "1FB77202-83CB-408E-8929-4AFC59A3446D";
paths = (
{
closed = 1;
nodes = (
"202 0 LINE",
"202 700 LINE",
"68 700 LINE",
"68 0 LINE"
);
}
);
width = 270;
}
);
unicode = 006C;
},
{
glyphname = lcaron;
lastChange = "2017-03-26 17:21:50 +0000";
layers = (
{
components = (
{
name = l;
}
);
layerId = "8FFE84BD-9390-4D75-BABD-68166BF44E93";
paths = (
{
closed = 1;
nodes = (
"255 484 LINE",
"303 685 LINE",
"243 685 LINE",
"204 484 LINE"
);
}
);
width = 243;
},
{
components = (
{
name = l;
}
);
layerId = "0596A6ED-150F-4F1F-BF1E-4449A7B9DE21";
paths = (
{
closed = 1;
nodes = (
"280 476 LINE",
"329 683 LINE",
"255 683 LINE",
"214 476 LINE"
);
}
);
width = 270;
},
{
components = (
{
name = l;
}
);
layerId = "1FB77202-83CB-408E-8929-4AFC59A3446D";
paths = (
{
closed = 1;
nodes = (
"378 444 LINE",
"433 678 LINE",
"303 678 LINE",
"257 444 LINE"
);
}
);
width = 377;
}
);
unicode = 013E;
},
{
glyphname = lslash;
lastChange = "2017-03-26 17:23:56 +0000";
layers = (
{
components = (
{
name = l;
transform = "{1, 0, 0, 1, 33, 0}";
}
);
layerId = "8FFE84BD-9390-4D75-BABD-68166BF44E93";
paths = (
{
closed = 1;
nodes = (
"280 411 LINE",
"249 454 LINE",
"11 287 LINE",
"42 244 LINE"
);
}
);
width = 292;
},
{
components = (
{
name = l;
transform = "{1, 0, 0, 1, 36, 0}";
}
);
layerId = "0596A6ED-150F-4F1F-BF1E-4449A7B9DE21";
paths = (
{
closed = 1;
nodes = (
"300 409 LINE",
"263 461 LINE",
"10 284 LINE",
"47 232 LINE"
);
}
);
width = 310;
},
{
components = (
{
name = l;
transform = "{1, 0, 0, 1, 52, 0}";
}
);
layerId = "1FB77202-83CB-408E-8929-4AFC59A3446D";
paths = (
{
closed = 1;
nodes = (
"381 402 LINE",
"316 492 LINE",
"3 273 LINE",
"68 183 LINE"
);
}
);
width = 381;
}
);
unicode = 0142;
},
{
glyphname = m;
lastChange = "2017-03-26 17:28:06 +0000";
layers = (
{
anchors = (
{
name = bottom;
position = "{418, 0}";
},
{
name = top;
position = "{418, 532}";
}
);
layerId = "8FFE84BD-9390-4D75-BABD-68166BF44E93";
paths = (
{
closed = 1;
nodes = (
"765 0 LINE",
"765 263 LINE SMOOTH",
"765 444 OFFCURVE",
"731 510 OFFCURVE",
"610 510 CURVE SMOOTH",
"525 510 OFFCURVE",
"443 478 OFFCURVE",
"398 443 CURVE",
"412 398 LINE",
"468 433 OFFCURVE",
"530 456 OFFCURVE",
"595 456 CURVE SMOOTH",
"687 456 OFFCURVE",
"706 410 OFFCURVE",
"706 260 CURVE SMOOTH",
"706 0 LINE"
);
},
{
closed = 1;
nodes = (
"134 0 LINE",
"134 500 LINE",
"75 500 LINE",
"75 0 LINE"
);
},
{
closed = 1;
nodes = (
"454 0 LINE",
"454 260 LINE SMOOTH",
"454 410 OFFCURVE",
"436 510 OFFCURVE",
"295 510 CURVE SMOOTH",
"229 510 OFFCURVE",
"166 488 OFFCURVE",
"107 445 CURVE",
"108 398 LINE",
"160 433 OFFCURVE",
"219 456 OFFCURVE",
"284 456 CURVE SMOOTH",
"375 456 OFFCURVE",
"394 411 OFFCURVE",
"394 258 CURVE SMOOTH",
"394 0 LINE"
);
}
);
width = 835;
},
{
anchors = (
{
name = bottom;
position = "{418, 0}";
},
{
name = top;
position = "{418, 549}";
}
);
layerId = "0596A6ED-150F-4F1F-BF1E-4449A7B9DE21";
paths = (
{
closed = 1;
nodes = (
"769 0 LINE",
"769 264 LINE SMOOTH",
"769 441 OFFCURVE",
"733 510 OFFCURVE",
"611 510 CURVE SMOOTH",
"526 510 OFFCURVE",
"445 477 OFFCURVE",
"404 447 CURVE",
"423 394 LINE",
"473 419 OFFCURVE",
"528 443 OFFCURVE",
"591 443 CURVE SMOOTH",
"676 443 OFFCURVE",
"694 399 OFFCURVE",
"694 262 CURVE SMOOTH",
"694 0 LINE"
);
},
{
closed = 1;
nodes = (
"147 0 LINE",
"146 500 LINE",
"72 500 LINE",
"72 0 LINE"
);
},
{
closed = 1;
nodes = (
"461 0 LINE",
"461 260 LINE SMOOTH",
"461 417 OFFCURVE",
"434 510 OFFCURVE",
"297 510 CURVE SMOOTH",
"232 510 OFFCURVE",
"178 489 OFFCURVE",
"117 446 CURVE",
"120 392 LINE",
"174 421 OFFCURVE",
"221 443 OFFCURVE",
"283 443 CURVE SMOOTH",
"369 443 OFFCURVE",
"386 400 OFFCURVE",
"386 258 CURVE SMOOTH",
"386 0 LINE"
);
}
);
width = 836;
},
{
anchors = (
{
name = bottom;
position = "{420, 0}";
},
{
name = top;
position = "{420, 553}";
}
);
layerId = "1FB77202-83CB-408E-8929-4AFC59A3446D";
paths = (
{
closed = 1;
nodes = (
"782 0 LINE",
"782 271 LINE SMOOTH",
"782 436 OFFCURVE",
"738 512 OFFCURVE",
"611 512 CURVE SMOOTH",
"543 512 OFFCURVE",
"481 490 OFFCURVE",
"407 448 CURVE",
"436 357 LINE",
"514 383 OFFCURVE",
"546 392 OFFCURVE",
"575 392 CURVE SMOOTH",
"634 392 OFFCURVE",
"648 354 OFFCURVE",
"648 267 CURVE SMOOTH",
"648 0 LINE"
);
},
{
closed = 1;
nodes = (
"196 0 LINE",
"195 500 LINE",
"62 500 LINE",
"62 0 LINE"
);
},
{
closed = 1;
nodes = (
"489 0 LINE",
"489 259 LINE SMOOTH",
"489 393 OFFCURVE",
"449 512 OFFCURVE",
"319 512 CURVE SMOOTH",
"266 512 OFFCURVE",
"227 492 OFFCURVE",
"160 451 CURVE",
"159 362 LINE",
"213 380 OFFCURVE",
"243 392 OFFCURVE",
"281 392 CURVE SMOOTH",
"344 392 OFFCURVE",
"355 359 OFFCURVE",
"355 257 CURVE SMOOTH",
"355 0 LINE"
);
}
);
width = 839;
}
);
unicode = 006D;
},
{
glyphname = n;
lastChange = "2017-03-26 17:30:28 +0000";
layers = (
{
anchors = (
{
name = bottom;
position = "{267, 0}";
},
{
name = top;
position = "{280, 575}";
}
);
layerId = "8FFE84BD-9390-4D75-BABD-68166BF44E93";
paths = (
{
closed = 1;
nodes = (
"464 0 LINE",
"464 263 LINE SMOOTH",
"464 451 OFFCURVE",
"430 510 OFFCURVE",
"297 510 CURVE SMOOTH",
"235 510 OFFCURVE",
"171 488 OFFCURVE",
"104 445 CURVE",
"108 400 LINE",
"161 431 OFFCURVE",
"227 456 OFFCURVE",
"288 456 CURVE SMOOTH",
"384 456 OFFCURVE",
"404 413 OFFCURVE",
"404 260 CURVE SMOOTH",
"404 0 LINE"
);
},
{
closed = 1;
nodes = (
"134 0 LINE",
"134 500 LINE",
"75 500 LINE",
"75 0 LINE"
);
}
);
width = 533;
},
{
anchors = (
{
name = bottom;
position = "{269, 0}";
},
{
name = top;
position = "{284, 562}";
}
);
layerId = "0596A6ED-150F-4F1F-BF1E-4449A7B9DE21";
paths = (
{
closed = 1;
nodes = (
"470 0 LINE",
"470 264 LINE SMOOTH",
"470 444 OFFCURVE",
"434 510 OFFCURVE",
"307 510 CURVE SMOOTH",
"246 510 OFFCURVE",
"191 495 OFFCURVE",
"111 445 CURVE",
"122 393 LINE",
"171 420 OFFCURVE",
"228 443 OFFCURVE",
"291 443 CURVE SMOOTH",
"377 443 OFFCURVE",
"396 399 OFFCURVE",
"396 262 CURVE SMOOTH",
"396 0 LINE"
);
},
{
closed = 1;
nodes = (
"147 0 LINE",
"146 500 LINE",
"72 500 LINE",
"72 0 LINE"
);
}
);
width = 537;
},
{
anchors = (
{
name = bottom;
position = "{277, 0}";
},
{
name = top;
position = "{292, 541}";
}
);
layerId = "1FB77202-83CB-408E-8929-4AFC59A3446D";
paths = (
{
closed = 1;
nodes = (
"496 0 LINE",
"496 271 LINE SMOOTH",
"496 430 OFFCURVE",
"453 512 OFFCURVE",
"326 512 CURVE SMOOTH",
"272 512 OFFCURVE",
"231 497 OFFCURVE",
"160 450 CURVE",
"160 362 LINE",
"213 380 OFFCURVE",
"244 392 OFFCURVE",
"282 392 CURVE SMOOTH",
"347 392 OFFCURVE",
"362 356 OFFCURVE",
"362 267 CURVE SMOOTH",
"362 0 LINE"
);
},
{
closed = 1;
nodes = (
"196 0 LINE",
"195 500 LINE",
"62 500 LINE",
"62 0 LINE"
);
}
);
width = 553;
}
);
unicode = 006E;
},
{
glyphname = eng;
lastChange = "2017-03-26 17:34:28 +0000";
layers = (
{
components = (
{
name = n;
}
);
layerId = "8FFE84BD-9390-4D75-BABD-68166BF44E93";
paths = (
{
closed = 1;
nodes = (
"436 -164 OFFCURVE",
"464 -124 OFFCURVE",
"464 -4 CURVE SMOOTH",
"464 260 LINE",
"404 259 LINE",
"404 -5 LINE SMOOTH",
"404 -96 OFFCURVE",
"383 -124 OFFCURVE",
"282 -184 CURVE",
"308 -235 LINE"
);
}
);
width = 534;
},
{
components = (
{
name = n;
}
);
layerId = "0596A6ED-150F-4F1F-BF1E-4449A7B9DE21";
paths = (
{
closed = 1;
nodes = (
"441 -168 OFFCURVE",
"470 -126 OFFCURVE",
"470 -2 CURVE SMOOTH",
"470 260 LINE",
"396 259 LINE",
"396 -4 LINE SMOOTH",
"396 -91 OFFCURVE",
"378 -117 OFFCURVE",
"278 -174 CURVE",
"309 -237 LINE"
);
}
);
width = 538;
},
{
components = (
{
name = n;
}
);
layerId = "1FB77202-83CB-408E-8929-4AFC59A3446D";
paths = (
{
closed = 1;
nodes = (
"466 -179 OFFCURVE",
"496 -135 OFFCURVE",
"496 5 CURVE SMOOTH",
"496 261 LINE",
"362 261 LINE",
"362 0 LINE SMOOTH",
"362 -72 OFFCURVE",
"350 -86 OFFCURVE",
"258 -137 CURVE",
"318 -248 LINE"
);
}
);
width = 552;
}
);
unicode = 014B;
},
{
glyphname = o;
lastChange = "2017-03-26 17:37:03 +0000";
layers = (
{
anchors = (
{
name = bottom;
position = "{264, 0}";
},
{
name = center;
position = "{256, 0}";
},
{
name = ogonek;
position = "{474, 10}";
},
{
name = top;
position = "{273, 573}";
},
{
name = topright;
position = "{507, 561}";
}
);
layerId = "8FFE84BD-9390-4D75-BABD-68166BF44E93";
paths = (
{
closed = 1;
nodes = (
"427 -10 OFFCURVE",
"473 63 OFFCURVE",
"473 251 CURVE SMOOTH",
"473 439 OFFCURVE",
"416 510 OFFCURVE",
"264 510 CURVE SMOOTH",
"111 510 OFFCURVE",
"54 439 OFFCURVE",
"54 251 CURVE SMOOTH",
"54 63 OFFCURVE",
"101 -10 OFFCURVE",
"264 -10 CURVE SMOOTH"
);
},
{
closed = 1;
nodes = (
"140 43 OFFCURVE",
"116 95 OFFCURVE",
"116 253 CURVE SMOOTH",
"116 411 OFFCURVE",
"151 457 OFFCURVE",
"264 457 CURVE SMOOTH",
"377 457 OFFCURVE",
"412 409 OFFCURVE",
"412 253 CURVE SMOOTH",
"412 96 OFFCURVE",
"387 43 OFFCURVE",
"264 43 CURVE SMOOTH"
);
}
);
width = 527;
},
{
anchors = (
{
name = bottom;
position = "{264, 0}";
},
{
name = center;
position = "{275, 0}";
},
{
name = ogonek;
position = "{475, 10}";
},
{
name = top;
position = "{264, 562}";
},
{
name = topright;
position = "{508, 562}";
}
);
layerId = "0596A6ED-150F-4F1F-BF1E-4449A7B9DE21";
paths = (
{
closed = 1;
nodes = (
"426 -10 OFFCURVE",
"478 68 OFFCURVE",
"478 247 CURVE SMOOTH",
"478 433 OFFCURVE",
"422 510 OFFCURVE",
"264 510 CURVE SMOOTH",
"108 510 OFFCURVE",
"50 435 OFFCURVE",
"50 247 CURVE SMOOTH",
"50 67 OFFCURVE",
"103 -10 OFFCURVE",
"264 -10 CURVE SMOOTH"
);
},
{
closed = 1;
nodes = (
"154 55 OFFCURVE",
"127 106 OFFCURVE",
"127 247 CURVE SMOOTH",
"127 399 OFFCURVE",
"158 445 OFFCURVE",
"265 445 CURVE SMOOTH",
"371 445 OFFCURVE",
"401 399 OFFCURVE",
"401 247 CURVE SMOOTH",
"401 105 OFFCURVE",
"375 55 OFFCURVE",
"265 55 CURVE SMOOTH"
);
}
);
width = 528;
},
{
anchors = (
{
name = bottom;
position = "{266, 0}";
},
{
name = center;
position = "{266, 24}";
},
{
name = ogonek;
position = "{479, 10}";
},
{
name = top;
position = "{266, 540}";
},
{
name = topright;
position = "{512, 543}";
}
);
layerId = "1FB77202-83CB-408E-8929-4AFC59A3446D";
paths = (
{
closed = 1;
nodes = (
"419 -12 OFFCURVE",
"496 86 OFFCURVE",
"496 251 CURVE",
"496 416 OFFCURVE",
"419 512 OFFCURVE",
"266 512 CURVE",
"113 512 OFFCURVE",
"36 416 OFFCURVE",
"36 251 CURVE",
"36 86 OFFCURVE",
"113 -12 OFFCURVE",
"266 -12 CURVE"
);
},
{
closed = 1;
nodes = (
"203 102 OFFCURVE",
"172 143 OFFCURVE",
"172 251 CURVE",
"172 359 OFFCURVE",
"203 398 OFFCURVE",
"266 398 CURVE",
"329 398 OFFCURVE",
"360 359 OFFCURVE",
"360 251 CURVE",
"360 143 OFFCURVE",
"329 102 OFFCURVE",
"266 102 CURVE"
);
}
);
width = 532;
}
);
unicode = 006F;
},
{
glyphname = oslash;
lastChange = "2017-03-26 17:41:55 +0000";
layers = (
{
components = (
{
name = o;
}
);
layerId = "8FFE84BD-9390-4D75-BABD-68166BF44E93";
paths = (
{
closed = 1;
nodes = (
"428 590 LINE",
"385 605 LINE",
"98 -98 LINE",
"140 -113 LINE"
);
}
);
width = 527;
},
{
components = (
{
name = o;
}
);
layerId = "0596A6ED-150F-4F1F-BF1E-4449A7B9DE21";
paths = (
{
closed = 1;
nodes = (
"431 587 LINE",
"381 606 LINE",
"95 -94 LINE",
"145 -112 LINE"
);
}
);
width = 528;
},
{
components = (
{
name = o;
}
);
layerId = "1FB77202-83CB-408E-8929-4AFC59A3446D";
paths = (
{
closed = 1;
nodes = (
"443 577 LINE",
"362 607 LINE",
"82 -78 LINE",
"162 -108 LINE"
);
}
);
width = 532;
}
);
unicode = 00F8;
},
{
glyphname = p;
lastChange = "2017-03-26 17:45:59 +0000";
layers = (
{
anchors = (
{
name = bottom;
position = "{262, 0}";
},
{
name = top;
position = "{262, 548}";
}
);
layerId = "8FFE84BD-9390-4D75-BABD-68166BF44E93";
paths = (
{
closed = 1;
nodes = (
"409 -10 OFFCURVE",
"470 64 OFFCURVE",
"470 253 CURVE SMOOTH",
"470 435 OFFCURVE",
"414 510 OFFCURVE",
"296 510 CURVE SMOOTH",
"232 510 OFFCURVE",
"167 488 OFFCURVE",
"107 444 CURVE",
"107 396 LINE",
"163 429 OFFCURVE",
"228 456 OFFCURVE",
"285 456 CURVE SMOOTH",
"367 456 OFFCURVE",
"408 401 OFFCURVE",
"408 252 CURVE SMOOTH",
"408 102 OFFCURVE",
"367 43 OFFCURVE",
"249 43 CURVE SMOOTH",
"212 43 OFFCURVE",
"158 49 OFFCURVE",
"99 62 CURVE",
"105 11 LINE",
"153 -4 OFFCURVE",
"205 -10 OFFCURVE",
"250 -10 CURVE SMOOTH"
);
},
{
closed = 1;
nodes = (
"134 -225 LINE",
"134 500 LINE",
"75 500 LINE",
"75 -225 LINE"
);
}
);
width = 523;
},
{
anchors = (
{
name = bottom;
position = "{264, 0}";
},
{
name = top;
position = "{264, 565}";
}
);
layerId = "0596A6ED-150F-4F1F-BF1E-4449A7B9DE21";
paths = (
{
closed = 1;
nodes = (
"417 -10 OFFCURVE",
"477 65 OFFCURVE",
"477 253 CURVE SMOOTH",
"477 432 OFFCURVE",
"423 510 OFFCURVE",
"299 510 CURVE SMOOTH",
"233 510 OFFCURVE",
"179 488 OFFCURVE",
"118 446 CURVE",
"119 388 LINE",
"174 418 OFFCURVE",
"228 443 OFFCURVE",
"283 443 CURVE SMOOTH",
"361 443 OFFCURVE",
"401 392 OFFCURVE",
"401 251 CURVE SMOOTH",
"401 113 OFFCURVE",
"363 55 OFFCURVE",
"256 55 CURVE SMOOTH",
"221 55 OFFCURVE",
"175 61 OFFCURVE",
"106 72 CURVE",
"120 7 LINE",
"160 -4 OFFCURVE",
"209 -10 OFFCURVE",
"255 -10 CURVE SMOOTH"
);
},
{
closed = 1;
nodes = (
"147 -222 LINE",
"146 500 LINE",
"72 500 LINE",
"72 -222 LINE"
);
}
);
width = 527;
},
{
anchors = (
{
name = bottom;
position = "{272, 0}";
},
{
name = top;
position = "{272, 561}";
}
);
layerId = "1FB77202-83CB-408E-8929-4AFC59A3446D";
paths = (
{
closed = 1;
nodes = (
"440 -12 OFFCURVE",
"506 54 OFFCURVE",
"506 246 CURVE SMOOTH",
"506 433 OFFCURVE",
"444 512 OFFCURVE",
"317 512 CURVE SMOOTH",
"270 512 OFFCURVE",
"236 501 OFFCURVE",
"153 447 CURVE",
"156 355 LINE",
"214 381 OFFCURVE",
"248 392 OFFCURVE",
"280 392 CURVE SMOOTH",
"344 392 OFFCURVE",
"370 347 OFFCURVE",
"370 246 CURVE SMOOTH",
"370 145 OFFCURVE",
"344 104 OFFCURVE",
"268 104 CURVE SMOOTH",
"244 104 OFFCURVE",
"204 108 OFFCURVE",
"156 116 CURVE",
"155 4 LINE",
"215 -8 OFFCURVE",
"243 -12 OFFCURVE",
"281 -12 CURVE SMOOTH"
);
},
{
closed = 1;
nodes = (
"196 -210 LINE",
"195 500 LINE",
"62 500 LINE",
"62 -210 LINE"
);
}
);
width = 544;
}
);
unicode = 0070;
},
{
glyphname = q;
lastChange = "2017-03-26 17:49:38 +0000";
layers = (
{
anchors = (
{
name = bottom;
position = "{261, 0}";
},
{
name = top;
position = "{261, 549}";
}
);
layerId = "8FFE84BD-9390-4D75-BABD-68166BF44E93";
paths = (
{
closed = 1;
nodes = (
"300 -10 OFFCURVE",
"359 7 OFFCURVE",
"414 40 CURVE",
"414 91 LINE",
"369 66 OFFCURVE",
"312 44 OFFCURVE",
"249 44 CURVE SMOOTH",
"148 44 OFFCURVE",
"114 101 OFFCURVE",
"114 244 CURVE SMOOTH",
"114 394 OFFCURVE",
"151 457 OFFCURVE",
"285 457 CURVE SMOOTH",
"309 457 OFFCURVE",
"342 455 OFFCURVE",
"387 451 CURVE",
"446 500 LINE",
"286 510 LINE",
"111 510 OFFCURVE",
"53 434 OFFCURVE",
"53 245 CURVE SMOOTH",
"53 63 OFFCURVE",
"107 -10 OFFCURVE",
"237 -10 CURVE SMOOTH"
);
},
{
closed = 1;
nodes = (
"446 -225 LINE",
"446 500 LINE",
"387 498 LINE",
"387 -225 LINE"
);
}
);
width = 521;
},
{
anchors = (
{
name = bottom;
position = "{263, 0}";
},
{
name = top;
position = "{263, 542}";
}
);
layerId = "0596A6ED-150F-4F1F-BF1E-4449A7B9DE21";
paths = (
{
closed = 1;
nodes = (
"296 -10 OFFCURVE",
"350 6 OFFCURVE",
"408 38 CURVE",
"418 102 LINE",
"343 69 OFFCURVE",
"294 57 OFFCURVE",
"250 57 CURVE SMOOTH",
"159 57 OFFCURVE",
"126 110 OFFCURVE",
"126 245 CURVE SMOOTH",
"126 384 OFFCURVE",
"161 445 OFFCURVE",
"285 445 CURVE SMOOTH",
"308 445 OFFCURVE",
"338 443 OFFCURVE",
"379 439 CURVE",
"453 500 LINE",
"286 510 LINE",
"109 510 OFFCURVE",
"50 437 OFFCURVE",
"50 246 CURVE SMOOTH",
"50 63 OFFCURVE",
"104 -10 OFFCURVE",
"235 -10 CURVE SMOOTH"
);
},
{
closed = 1;
nodes = (
"453 -222 LINE",
"453 500 LINE",
"379 487 LINE",
"379 -222 LINE"
);
}
);
width = 526;
},
{
anchors = (
{
name = bottom;
position = "{272, 0}";
},
{
name = top;
position = "{272, 551}";
}
);
layerId = "1FB77202-83CB-408E-8929-4AFC59A3446D";
paths = (
{
closed = 1;
nodes = (
"284 -12 OFFCURVE",
"312 0 OFFCURVE",
"386 31 CURVE",
"387 132 LINE",
"333 115 OFFCURVE",
"291 108 OFFCURVE",
"263 108 CURVE SMOOTH",
"199 108 OFFCURVE",
"172 147 OFFCURVE",
"172 251 CURVE SMOOTH",
"172 355 OFFCURVE",
"199 396 OFFCURVE",
"287 396 CURVE SMOOTH",
"301 396 OFFCURVE",
"322 395 OFFCURVE",
"347 392 CURVE",
"481 499 LINE",
"286 512 LINE",
"103 512 OFFCURVE",
"38 450 OFFCURVE",
"38 252 CURVE SMOOTH",
"38 59 OFFCURVE",
"99 -12 OFFCURVE",
"230 -12 CURVE SMOOTH"
);
},
{
closed = 1;
nodes = (
"481 -210 LINE",
"481 499 LINE",
"347 482 LINE",
"347 -210 LINE"
);
}
);
width = 543;
}
);
unicode = 0071;
},
{
glyphname = r;
lastChange = "2017-03-26 17:55:08 +0000";
layers = (
{
anchors = (
{
name = bottom;
position = "{74, 0}";
},
{
name = top;
position = "{170, 566}";
}
);
layerId = "8FFE84BD-9390-4D75-BABD-68166BF44E93";
paths = (
{
closed = 1;
nodes = (
"180 402 OFFCURVE",
"245 434 OFFCURVE",
"323 450 CURVE",
"323 510 LINE",
"254 497 OFFCURVE",
"159 452 OFFCURVE",
"115 413 CURVE",
"106 359 LINE"
);
},
{
closed = 1;
nodes = (
"134 0 LINE",
"134 500 LINE",
"75 500 LINE",
"75 0 LINE"
);
}
);
width = 339;
},
{
anchors = (
{
name = bottom;
position = "{82, 0}";
},
{
name = top;
position = "{187, 561}";
}
);
layerId = "0596A6ED-150F-4F1F-BF1E-4449A7B9DE21";
paths = (
{
closed = 1;
nodes = (
"187 390 OFFCURVE",
"262 422 OFFCURVE",
"329 435 CURVE",
"329 511 LINE",
"255 496 OFFCURVE",
"186 464 OFFCURVE",
"120 413 CURVE",
"120 352 LINE"
);
},
{
closed = 1;
nodes = (
"147 0 LINE",
"147 500 LINE",
"72 500 LINE",
"72 0 LINE"
);
}
);
width = 346;
},
{
anchors = (
{
name = bottom;
position = "{100, 0}";
},
{
name = top;
position = "{172, 574}";
}
);
layerId = "1FB77202-83CB-408E-8929-4AFC59A3446D";
paths = (
{
closed = 1;
nodes = (
"251 354 OFFCURVE",
"276 360 OFFCURVE",
"355 377 CURVE",
"355 512 LINE",
"295 500 OFFCURVE",
"233 472 OFFCURVE",
"166 429 CURVE",
"157 322 LINE"
);
},
{
closed = 1;
nodes = (
"196 0 LINE",
"196 500 LINE",
"62 500 LINE",
"62 0 LINE"
);
}
);
width = 372;
}
);
unicode = 0072;
},
{
glyphname = s;
lastChange = "2017-03-26 18:06:38 +0000";
layers = (
{
anchors = (
{
name = bottom;
position = "{232, 0}";
},
{
name = top;
position = "{232, 569}";
}
);
layerId = "8FFE84BD-9390-4D75-BABD-68166BF44E93";
paths = (
{
closed = 1;
nodes = (
"356 -10 OFFCURVE",
"418 36 OFFCURVE",
"418 145 CURVE SMOOTH",
"418 242 OFFCURVE",
"368 263 OFFCURVE",
"252 284 CURVE SMOOTH",
"169 299 OFFCURVE",
"108 301 OFFCURVE",
"108 372 CURVE SMOOTH",
"108 428 OFFCURVE",
"147 455 OFFCURVE",
"232 455 CURVE SMOOTH",
"268 455 OFFCURVE",
"328 450 OFFCURVE",
"399 439 CURVE",
"401 492 LINE",
"317 505 OFFCURVE",
"265 509 OFFCURVE",
"230 509 CURVE SMOOTH",
"123 509 OFFCURVE",
"47 472 OFFCURVE",
"47 364 CURVE SMOOTH",
"47 265 OFFCURVE",
"110 251 OFFCURVE",
"212 233 CURVE SMOOTH",
"327 213 OFFCURVE",
"357 206 OFFCURVE",
"357 144 CURVE SMOOTH",
"357 69 OFFCURVE",
"314 44 OFFCURVE",
"230 44 CURVE SMOOTH",
"190 44 OFFCURVE",
"133 50 OFFCURVE",
"58 61 CURVE",
"54 8 LINE",
"138 -5 OFFCURVE",
"184 -10 OFFCURVE",
"227 -10 CURVE SMOOTH"
);
}
);
width = 464;
},
{
anchors = (
{
name = bottom;
position = "{233, 0}";
},
{
name = top;
position = "{233, 565}";
}
);
layerId = "0596A6ED-150F-4F1F-BF1E-4449A7B9DE21";
paths = (
{
closed = 1;
nodes = (
"358 -10 OFFCURVE",
"422 36 OFFCURVE",
"422 146 CURVE SMOOTH",
"422 244 OFFCURVE",
"372 267 OFFCURVE",
"259 288 CURVE SMOOTH",
"180 303 OFFCURVE",
"120 306 OFFCURVE",
"120 369 CURVE SMOOTH",
"120 419 OFFCURVE",
"157 443 OFFCURVE",
"235 443 CURVE SMOOTH",
"270 443 OFFCURVE",
"330 438 OFFCURVE",
"404 427 CURVE",
"406 491 LINE",
"320 506 OFFCURVE",
"267 509 OFFCURVE",
"233 509 CURVE SMOOTH",
"122 509 OFFCURVE",
"45 474 OFFCURVE",
"45 360 CURVE SMOOTH",
"45 269 OFFCURVE",
"95 245 OFFCURVE",
"207 226 CURVE SMOOTH",
"283 213 OFFCURVE",
"347 212 OFFCURVE",
"347 139 CURVE SMOOTH",
"347 80 OFFCURVE",
"306 57 OFFCURVE",
"228 57 CURVE SMOOTH",
"189 57 OFFCURVE",
"132 63 OFFCURVE",
"56 74 CURVE",
"52 9 LINE",
"135 -5 OFFCURVE",
"183 -10 OFFCURVE",
"229 -10 CURVE SMOOTH"
);
}
);
width = 465;
},
{
anchors = (
{
name = bottom;
position = "{236, 0}";
},
{
name = top;
position = "{236, 542}";
}
);
layerId = "1FB77202-83CB-408E-8929-4AFC59A3446D";
paths = (
{
closed = 1;
nodes = (
"373 -12 OFFCURVE",
"437 42 OFFCURVE",
"437 156 CURVE SMOOTH",
"437 248 OFFCURVE",
"395 285 OFFCURVE",
"289 305 CURVE SMOOTH",
"228 317 OFFCURVE",
"169 318 OFFCURVE",
"169 357 CURVE SMOOTH",
"169 387 OFFCURVE",
"205 391 OFFCURVE",
"242 391 CURVE SMOOTH",
"283 391 OFFCURVE",
"338 386 OFFCURVE",
"421 375 CURVE",
"423 486 LINE",
"327 504 OFFCURVE",
"277 511 OFFCURVE",
"233 511 CURVE SMOOTH",
"115 511 OFFCURVE",
"36 462 OFFCURVE",
"36 344 CURVE SMOOTH",
"36 232 OFFCURVE",
"108 211 OFFCURVE",
"190 196 CURVE SMOOTH",
"256 184 OFFCURVE",
"304 181 OFFCURVE",
"304 146 CURVE SMOOTH",
"304 115 OFFCURVE",
"268 108 OFFCURVE",
"224 108 CURVE SMOOTH",
"187 108 OFFCURVE",
"131 113 OFFCURVE",
"48 124 CURVE",
"44 12 LINE",
"136 -6 OFFCURVE",
"190 -12 OFFCURVE",
"236 -12 CURVE SMOOTH"
);
}
);
width = 472;
},
{
anchors = (
{
name = bottom;
position = "{239, 0}";
},
{
name = top;
position = "{239, 553}";
}
);
associatedMasterId = "1FB77202-83CB-408E-8929-4AFC59A3446D";
layerId = "5AB555BC-8F08-4D87-90D9-398262853361";
name = "Black {900, 100}";
paths = (
{
closed = 1;
nodes = (
"382 -13 OFFCURVE",
"447 46 OFFCURVE",
"447 161 CURVE SMOOTH",
"447 253 OFFCURVE",
"406 298 OFFCURVE",
"309 316 CURVE SMOOTH",
"268 324 OFFCURVE",
"202 328 OFFCURVE",
"202 344 CURVE SMOOTH",
"202 355 OFFCURVE",
"230 356 OFFCURVE",
"250 356 CURVE SMOOTH",
"295 356 OFFCURVE",
"341 351 OFFCURVE",
"432 340 CURVE",
"434 483 LINE",
"323 505 OFFCURVE",
"268 512 OFFCURVE",
"228 512 CURVE SMOOTH",
"111 512 OFFCURVE",
"30 454 OFFCURVE",
"30 333 CURVE SMOOTH",
"30 236 OFFCURVE",
"82 191 OFFCURVE",
"179 175 CURVE SMOOTH",
"210 170 OFFCURVE",
"275 163 OFFCURVE",
"275 151 CURVE SMOOTH",
"275 143 OFFCURVE",
"242 142 OFFCURVE",
"223 142 CURVE SMOOTH",
"184 142 OFFCURVE",
"130 146 OFFCURVE",
"43 157 CURVE",
"39 14 LINE",
"137 -6 OFFCURVE",
"192 -13 OFFCURVE",
"241 -13 CURVE SMOOTH"
);
}
);
width = 477;
}
);
unicode = 0073;
},
{
glyphname = germandbls;
lastChange = "2017-03-26 18:10:31 +0000";
layers = (
{
layerId = "8FFE84BD-9390-4D75-BABD-68166BF44E93";
paths = (
{
closed = 1;
nodes = (
"471 -10 OFFCURVE",
"526 44 OFFCURVE",
"526 180 CURVE SMOOTH",
"526 260 OFFCURVE",
"492 294 OFFCURVE",
"406 338 CURVE SMOOTH",
"353 364 OFFCURVE",
"308 385 OFFCURVE",
"308 411 CURVE SMOOTH",
"308 435 OFFCURVE",
"330 445 OFFCURVE",
"371 463 CURVE SMOOTH",
"423 486 OFFCURVE",
"446 522 OFFCURVE",
"446 591 CURVE SMOOTH",
"446 691 OFFCURVE",
"394 732 OFFCURVE",
"261 732 CURVE SMOOTH",
"128 732 OFFCURVE",
"75 686 OFFCURVE",
"75 551 CURVE SMOOTH",
"75 0 LINE",
"134 0 LINE",
"134 541 LINE SMOOTH",
"134 648 OFFCURVE",
"168 677 OFFCURVE",
"261 677 CURVE SMOOTH",
"353 677 OFFCURVE",
"383 651 OFFCURVE",
"383 595 CURVE SMOOTH",
"383 538 OFFCURVE",
"371 518 OFFCURVE",
"320 495 CURVE SMOOTH",
"269 472 OFFCURVE",
"246 452 OFFCURVE",
"246 407 CURVE SMOOTH",
"246 362 OFFCURVE",
"266 341 OFFCURVE",
"354 298 CURVE SMOOTH",
"441 254 OFFCURVE",
"463 236 OFFCURVE",
"463 162 CURVE SMOOTH",
"463 88 OFFCURVE",
"427 45 OFFCURVE",
"322 45 CURVE SMOOTH",
"298 45 OFFCURVE",
"259 48 OFFCURVE",
"204 55 CURVE",
"201 3 LINE",
"261 -7 OFFCURVE",
"294 -10 OFFCURVE",
"326 -10 CURVE SMOOTH"
);
}
);
width = 564;
},
{
layerId = "0596A6ED-150F-4F1F-BF1E-4449A7B9DE21";
paths = (
{
closed = 1;
nodes = (
"485 -10 OFFCURVE",
"539 41 OFFCURVE",
"539 177 CURVE SMOOTH",
"539 256 OFFCURVE",
"506 289 OFFCURVE",
"419 332 CURVE",
"325 387 OFFCURVE",
"321 381 OFFCURVE",
"321 406 CURVE SMOOTH",
"321 429 OFFCURVE",
"343 439 OFFCURVE",
"384 457 CURVE SMOOTH",
"437 480 OFFCURVE",
"462 513 OFFCURVE",
"462 584 CURVE SMOOTH",
"462 685 OFFCURVE",
"406 728 OFFCURVE",
"267 728 CURVE SMOOTH",
"128 728 OFFCURVE",
"72 680 OFFCURVE",
"72 545 CURVE SMOOTH",
"72 0 LINE",
"147 0 LINE",
"147 536 LINE SMOOTH",
"147 633 OFFCURVE",
"178 661 OFFCURVE",
"267 661 CURVE SMOOTH",
"355 661 OFFCURVE",
"384 638 OFFCURVE",
"384 587 CURVE SMOOTH",
"384 535 OFFCURVE",
"371 517 OFFCURVE",
"319 494 CURVE SMOOTH",
"267 471 OFFCURVE",
"243 449 OFFCURVE",
"243 399 CURVE SMOOTH",
"243 349 OFFCURVE",
"267 323 OFFCURVE",
"354 282 CURVE SMOOTH",
"441 241 OFFCURVE",
"461 223 OFFCURVE",
"461 159 CURVE SMOOTH",
"461 94 OFFCURVE",
"428 57 OFFCURVE",
"332 57 CURVE SMOOTH",
"307 57 OFFCURVE",
"267 61 OFFCURVE",
"210 68 CURVE",
"207 5 LINE",
"265 -6 OFFCURVE",
"302 -10 OFFCURVE",
"338 -10 CURVE SMOOTH"
);
}
);
width = 574;
},
{
layerId = "1FB77202-83CB-408E-8929-4AFC59A3446D";
paths = (
{
closed = 1;
nodes = (
"534 -12 OFFCURVE",
"588 29 OFFCURVE",
"588 164 CURVE SMOOTH",
"588 241 OFFCURVE",
"557 271 OFFCURVE",
"469 312 CURVE SMOOTH",
"413 337 OFFCURVE",
"370 354 OFFCURVE",
"370 380 CURVE SMOOTH",
"370 403 OFFCURVE",
"393 413 OFFCURVE",
"436 432 CURVE SMOOTH",
"495 458 OFFCURVE",
"523 483 OFFCURVE",
"523 555 CURVE SMOOTH",
"523 666 OFFCURVE",
"449 712 OFFCURVE",
"289 712 CURVE SMOOTH",
"129 712 OFFCURVE",
"62 658 OFFCURVE",
"62 522 CURVE SMOOTH",
"62 0 LINE",
"196 0 LINE",
"196 519 LINE SMOOTH",
"196 572 OFFCURVE",
"220 594 OFFCURVE",
"292 594 CURVE SMOOTH",
"344 594 OFFCURVE",
"385 587 OFFCURVE",
"385 551 CURVE SMOOTH",
"385 519 OFFCURVE",
"360 510 OFFCURVE",
"312 490 CURVE SMOOTH",
"253 466 OFFCURVE",
"232 433 OFFCURVE",
"232 365 CURVE SMOOTH",
"232 297 OFFCURVE",
"266 256 OFFCURVE",
"354 219 CURVE SMOOTH",
"416 192 OFFCURVE",
"450 182 OFFCURVE",
"450 144 CURVE SMOOTH",
"450 119 OFFCURVE",
"423 106 OFFCURVE",
"370 106 CURVE SMOOTH",
"345 106 OFFCURVE",
"301 110 OFFCURVE",
"236 118 CURVE",
"232 11 LINE",
"304 -5 OFFCURVE",
"347 -12 OFFCURVE",
"386 -12 CURVE SMOOTH"
);
}
);
width = 611;
}
);
unicode = 00DF;
},
{
glyphname = t;
lastChange = "2017-03-26 18:13:00 +0000";
layers = (
{
anchors = (
{
name = bottom;
position = "{174, 0}";
},
{
name = center;
position = "{189, 0}";
},
{
name = top;
position = "{174, 712}";
},
{
name = topright;
position = "{327, 707}";
}
);
layerId = "8FFE84BD-9390-4D75-BABD-68166BF44E93";
paths = (
{
closed = 1;
nodes = (
"259 -11 OFFCURVE",
"293 -8 OFFCURVE",
"337 -1 CURVE",
"333 50 LINE",
"241 43 LINE",
"163 43 OFFCURVE",
"161 92 OFFCURVE",
"161 200 CURVE SMOOTH",
"161 657 LINE",
"101 657 LINE",
"101 170 LINE SMOOTH",
"101 29 OFFCURVE",
"135 -11 OFFCURVE",
"236 -11 CURVE SMOOTH"
);
},
{
closed = 1;
nodes = (
"328 447 LINE",
"328 500 LINE",
"27 500 LINE",
"27 447 LINE"
);
}
);
width = 347;
},
{
anchors = (
{
name = bottom;
position = "{176, 0}";
},
{
name = center;
position = "{193, 0}";
},
{
name = top;
position = "{176, 710}";
},
{
name = topright;
position = "{331, 710}";
}
);
layerId = "0596A6ED-150F-4F1F-BF1E-4449A7B9DE21";
paths = (
{
closed = 1;
nodes = (
"261 -11 OFFCURVE",
"293 -7 OFFCURVE",
"338 0 CURVE",
"333 62 LINE",
"244 56 LINE",
"175 56 OFFCURVE",
"172 100 OFFCURVE",
"172 196 CURVE SMOOTH",
"172 653 LINE",
"98 653 LINE",
"98 172 LINE SMOOTH",
"98 31 OFFCURVE",
"132 -11 OFFCURVE",
"231 -11 CURVE SMOOTH"
);
},
{
closed = 1;
nodes = (
"331 435 LINE",
"331 500 LINE",
"27 500 LINE",
"27 435 LINE"
);
}
);
width = 351;
},
{
anchors = (
{
name = bottom;
position = "{182, 0}";
},
{
name = center;
position = "{200, 0}";
},
{
name = top;
position = "{182, 700}";
},
{
name = topright;
position = "{344, 700}";
}
);
layerId = "1FB77202-83CB-408E-8929-4AFC59A3446D";
paths = (
{
closed = 1;
nodes = (
"264 -12 OFFCURVE",
"289 -8 OFFCURVE",
"340 3 CURVE",
"334 110 LINE",
"258 108 LINE SMOOTH",
"216 107 OFFCURVE",
"216 140 OFFCURVE",
"216 181 CURVE SMOOTH",
"216 639 LINE",
"82 639 LINE",
"82 178 LINE SMOOTH",
"82 37 OFFCURVE",
"118 -12 OFFCURVE",
"232 -12 CURVE SMOOTH"
);
},
{
closed = 1;
nodes = (
"339 386 LINE",
"339 500 LINE",
"23 500 LINE",
"23 386 LINE"
);
}
);
width = 364;
}
);
unicode = 0074;
},
{
glyphname = tbar;
lastChange = "2017-03-26 18:13:48 +0000";
layers = (
{
components = (
{
name = t;
}
);
layerId = "8FFE84BD-9390-4D75-BABD-68166BF44E93";
paths = (
{
closed = 1;
nodes = (
"309 264 LINE",
"309 313 LINE",
"44 313 LINE",
"44 264 LINE"
);
}
);
width = 351;
},
{
components = (
{
name = t;
}
);
layerId = "0596A6ED-150F-4F1F-BF1E-4449A7B9DE21";
paths = (
{
closed = 1;
nodes = (
"309 253 LINE",
"309 312 LINE",
"45 312 LINE",
"45 253 LINE"
);
}
);
width = 354;
},
{
components = (
{
name = t;
}
);
layerId = "1FB77202-83CB-408E-8929-4AFC59A3446D";
paths = (
{
closed = 1;
nodes = (
"311 209 LINE",
"311 309 LINE",
"52 309 LINE",
"52 209 LINE"
);
}
);
width = 365;
}
);
unicode = 0167;
},
{
glyphname = tcaron;
lastChange = "2017-03-26 18:14:10 +0000";
layers = (
{
components = (
{
name = t;
}
);
layerId = "8FFE84BD-9390-4D75-BABD-68166BF44E93";
paths = (
{
closed = 1;
nodes = (
"426 470 LINE",
"426 697 LINE",
"368 697 LINE",
"368 470 LINE"
);
}
);
width = 418;
},
{
components = (
{
name = t;
}
);
layerId = "0596A6ED-150F-4F1F-BF1E-4449A7B9DE21";
paths = (
{
closed = 1;
nodes = (
"442 462 LINE",
"442 696 LINE",
"370 696 LINE",
"370 462 LINE"
);
}
);
width = 432;
},
{
components = (
{
name = t;
}
);
layerId = "1FB77202-83CB-408E-8929-4AFC59A3446D";
paths = (
{
closed = 1;
nodes = (
"506 430 LINE",
"506 690 LINE",
"376 690 LINE",
"376 430 LINE"
);
}
);
width = 487;
}
);
unicode = 0165;
},
{
glyphname = u;
lastChange = "2017-03-26 18:23:23 +0000";
layers = (
{
anchors = (
{
name = bottom;
position = "{263, 0}";
},
{
name = ogonek;
position = "{418, -1}";
},
{
name = top;
position = "{280, 574}";
},
{
name = topright;
position = "{505, 0}";
}
);
layerId = "8FFE84BD-9390-4D75-BABD-68166BF44E93";
paths = (
{
closed = 1;
nodes = (
"297 -10 OFFCURVE",
"359 12 OFFCURVE",
"419 56 CURVE",
"417 102 LINE",
"365 67 OFFCURVE",
"303 44 OFFCURVE",
"244 44 CURVE SMOOTH",
"148 44 OFFCURVE",
"129 85 OFFCURVE",
"129 240 CURVE SMOOTH",
"129 500 LINE",
"70 500 LINE",
"70 239 LINE SMOOTH",
"70 46 OFFCURVE",
"101 -10 OFFCURVE",
"237 -10 CURVE SMOOTH"
);
},
{
closed = 1;
nodes = (
"450 0 LINE",
"450 500 LINE",
"391 500 LINE",
"391 0 LINE"
);
}
);
width = 525;
},
{
anchors = (
{
name = bottom;
position = "{266, 0}";
},
{
name = ogonek;
position = "{426, -1}";
},
{
name = top;
position = "{275, 564}";
},
{
name = topright;
position = "{511, 0}";
}
);
layerId = "0596A6ED-150F-4F1F-BF1E-4449A7B9DE21";
paths = (
{
closed = 1;
nodes = (
"300 -10 OFFCURVE",
"346 10 OFFCURVE",
"414 54 CURVE",
"409 107 LINE",
"361 80 OFFCURVE",
"309 57 OFFCURVE",
"244 57 CURVE SMOOTH",
"158 57 OFFCURVE",
"142 97 OFFCURVE",
"142 240 CURVE SMOOTH",
"142 500 LINE",
"67 500 LINE",
"67 239 LINE SMOOTH",
"67 53 OFFCURVE",
"100 -10 OFFCURVE",
"228 -10 CURVE SMOOTH"
);
},
{
closed = 1;
nodes = (
"459 0 LINE",
"459 500 LINE",
"384 500 LINE",
"384 0 LINE"
);
}
);
width = 531;
},
{
anchors = (
{
name = bottom;
position = "{277, 0}";
},
{
name = ogonek;
position = "{435, -1}";
},
{
name = top;
position = "{277, 555}";
},
{
name = topright;
position = "{533, 0}";
}
);
layerId = "1FB77202-83CB-408E-8929-4AFC59A3446D";
paths = (
{
closed = 1;
nodes = (
"275 -12 OFFCURVE",
"314 0 OFFCURVE",
"398 52 CURVE",
"396 138 LINE",
"334 120 OFFCURVE",
"309 108 OFFCURVE",
"264 108 CURVE SMOOTH",
"200 108 OFFCURVE",
"191 134 OFFCURVE",
"191 236 CURVE SMOOTH",
"191 500 LINE",
"57 500 LINE",
"57 238 LINE SMOOTH",
"57 65 OFFCURVE",
"94 -12 OFFCURVE",
"224 -12 CURVE SMOOTH"
);
},
{
closed = 1;
nodes = (
"491 0 LINE",
"491 500 LINE",
"357 500 LINE",
"358 0 LINE"
);
}
);
width = 553;
}
);
unicode = 0075;
},
{
glyphname = v;
lastChange = "2017-03-26 18:24:57 +0000";
layers = (
{
anchors = (
{
name = bottom;
position = "{239, 0}";
},
{
name = top;
position = "{239, 524}";
}
);
layerId = "8FFE84BD-9390-4D75-BABD-68166BF44E93";
paths = (
{
closed = 1;
nodes = (
"304 0 LINE",
"450 500 LINE",
"388 500 LINE",
"258 52 LINE",
"218 52 LINE",
"93 500 LINE",
"27 500 LINE",
"173 0 LINE"
);
}
);
width = 477;
},
{
anchors = (
{
name = bottom;
position = "{241, 0}";
},
{
name = top;
position = "{241, 528}";
}
);
layerId = "0596A6ED-150F-4F1F-BF1E-4449A7B9DE21";
paths = (
{
closed = 1;
nodes = (
"316 0 LINE",
"457 500 LINE",
"380 500 LINE",
"259 65 LINE",
"222 65 LINE",
"105 500 LINE",
"25 500 LINE",
"166 0 LINE"
);
}
);
width = 481;
},
{
anchors = (
{
name = bottom;
position = "{249, 0}";
},
{
name = top;
position = "{249, 528}";
}
);
layerId = "1FB77202-83CB-408E-8929-4AFC59A3446D";
paths = (
{
closed = 1;
nodes = (
"363 0 LINE",
"483 500 LINE",
"347 500 LINE",
"263 114 LINE",
"235 114 LINE",
"155 500 LINE",
"15 500 LINE",
"135 0 LINE"
);
}
);
width = 498;
}
);
unicode = 0076;
},
{
glyphname = w;
lastChange = "2017-03-26 18:26:41 +0000";
layers = (
{
anchors = (
{
name = bottom;
position = "{380, 0}";
},
{
name = top;
position = "{380, 563}";
}
);
layerId = "8FFE84BD-9390-4D75-BABD-68166BF44E93";
paths = (
{
closed = 1;
nodes = (
"261 0 LINE",
"392 455 LINE",
"368 455 LINE",
"498 0 LINE",
"602 0 LINE",
"727 500 LINE",
"666 500 LINE",
"556 52 LINE",
"541 52 LINE",
"411 490 LINE",
"348 490 LINE",
"218 52 LINE",
"204 52 LINE",
"94 500 LINE",
"33 500 LINE",
"158 0 LINE"
);
}
);
width = 760;
},
{
anchors = (
{
name = bottom;
position = "{381, 0}";
},
{
name = top;
position = "{381, 568}";
}
);
layerId = "0596A6ED-150F-4F1F-BF1E-4449A7B9DE21";
paths = (
{
closed = 1;
nodes = (
"275 0 LINE",
"393 434 LINE",
"369 434 LINE",
"487 0 LINE",
"612 0 LINE",
"731 500 LINE",
"656 500 LINE",
"556 65 LINE",
"539 65 LINE",
"420 490 LINE",
"342 490 LINE",
"223 65 LINE",
"207 65 LINE",
"106 500 LINE",
"31 500 LINE",
"150 0 LINE"
);
}
);
width = 762;
},
{
anchors = (
{
name = bottom;
position = "{386, 0}";
},
{
name = top;
position = "{386, 532}";
}
);
layerId = "1FB77202-83CB-408E-8929-4AFC59A3446D";
paths = (
{
closed = 1;
nodes = (
"329 0 LINE",
"394 350 LINE",
"378 350 LINE",
"443 0 LINE",
"653 0 LINE",
"748 500 LINE",
"616 500 LINE",
"555 114 LINE",
"531 114 LINE",
"455 490 LINE",
"317 490 LINE",
"241 114 LINE",
"217 114 LINE",
"156 500 LINE",
"24 500 LINE",
"119 0 LINE"
);
}
);
width = 772;
}
);
unicode = 0077;
},
{
glyphname = x;
lastChange = "2017-03-26 18:28:28 +0000";
layers = (
{
anchors = (
{
name = bottom;
position = "{223, 0}";
},
{
name = top;
position = "{223, 515}";
}
);
layerId = "8FFE84BD-9390-4D75-BABD-68166BF44E93";
paths = (
{
closed = 1;
nodes = (
"91 0 LINE",
"247 243 LINE",
"199 243 LINE",
"355 0 LINE",
"421 0 LINE",
"235 289 LINE",
"234 213 LINE",
"422 500 LINE",
"355 500 LINE",
"199 256 LINE",
"247 256 LINE",
"91 500 LINE",
"24 500 LINE",
"209 212 LINE",
"209 288 LINE",
"24 0 LINE"
);
}
);
width = 446;
},
{
anchors = (
{
name = bottom;
position = "{226, 0}";
},
{
name = top;
position = "{226, 523}";
}
);
layerId = "0596A6ED-150F-4F1F-BF1E-4449A7B9DE21";
paths = (
{
closed = 1;
nodes = (
"104 0 LINE",
"250 233 LINE",
"202 233 LINE",
"347 0 LINE",
"429 0 LINE",
"247 290 LINE",
"247 214 LINE",
"430 500 LINE",
"348 500 LINE",
"202 266 LINE",
"250 266 LINE",
"104 500 LINE",
"22 500 LINE",
"203 212 LINE",
"203 288 LINE",
"22 0 LINE"
);
}
);
width = 452;
},
{
anchors = (
{
name = bottom;
position = "{237, 0}";
},
{
name = top;
position = "{237, 521}";
}
);
layerId = "1FB77202-83CB-408E-8929-4AFC59A3446D";
paths = (
{
closed = 1;
nodes = (
"157 0 LINE",
"258 193 LINE",
"216 193 LINE",
"318 0 LINE",
"461 0 LINE",
"297 294 LINE",
"296 216 LINE",
"461 500 LINE",
"318 500 LINE",
"216 305 LINE",
"258 305 LINE",
"157 500 LINE",
"14 500 LINE",
"173 212 LINE",
"173 290 LINE",
"14 0 LINE"
);
}
);
width = 474;
}
);
unicode = 0078;
},
{
glyphname = y;
lastChange = "2017-03-26 18:30:27 +0000";
layers = (
{
anchors = (
{
name = bottom;
position = "{239, 0}";
},
{
name = top;
position = "{239, 583}";
}
);
layerId = "8FFE84BD-9390-4D75-BABD-68166BF44E93";
paths = (
{
closed = 1;
nodes = (
"236 -225 LINE",
"452 500 LINE",
"391 500 LINE",
"176 -225 LINE"
);
},
{
closed = 1;
nodes = (
"288 0 LINE",
"302 52 LINE",
"176 52 LINE",
"234 9 LINE",
"88 500 LINE",
"27 500 LINE",
"174 0 LINE"
);
}
);
width = 478;
},
{
anchors = (
{
name = bottom;
position = "{242, 0}";
},
{
name = top;
position = "{242, 547}";
}
);
layerId = "0596A6ED-150F-4F1F-BF1E-4449A7B9DE21";
paths = (
{
closed = 1;
nodes = (
"251 -222 LINE",
"459 500 LINE",
"384 500 LINE",
"176 -222 LINE"
);
},
{
closed = 1;
nodes = (
"286 0 LINE",
"303 65 LINE",
"180 65 LINE",
"237 22 LINE",
"100 500 LINE",
"25 500 LINE",
"167 0 LINE"
);
}
);
width = 483;
},
{
anchors = (
{
name = bottom;
position = "{250, 0}";
},
{
name = top;
position = "{250, 562}";
}
);
layerId = "1FB77202-83CB-408E-8929-4AFC59A3446D";
paths = (
{
closed = 1;
nodes = (
"309 -210 LINE",
"485 500 LINE",
"353 500 LINE",
"178 -210 LINE"
);
},
{
closed = 1;
nodes = (
"278 0 LINE",
"307 114 LINE",
"194 114 LINE",
"249 70 LINE",
"148 500 LINE",
"16 500 LINE",
"139 0 LINE"
);
}
);
width = 500;
}
);
unicode = 0079;
},
{
glyphname = z;
lastChange = "2017-03-26 18:32:56 +0000";
layers = (
{
anchors = (
{
name = bottom;
position = "{228, 0}";
},
{
name = top;
position = "{228, 568}";
}
);
layerId = "8FFE84BD-9390-4D75-BABD-68166BF44E93";
paths = (
{
closed = 1;
nodes = (
"413 0 LINE",
"413 54 LINE",
"71 54 LINE",
"89 18 LINE",
"413 446 LINE",
"413 500 LINE",
"42 500 LINE",
"42 446 LINE",
"384 446 LINE",
"366 482 LINE",
"42 54 LINE",
"42 0 LINE"
);
}
);
width = 455;
},
{
anchors = (
{
name = bottom;
position = "{228, 0}";
},
{
name = top;
position = "{228, 567}";
}
);
layerId = "0596A6ED-150F-4F1F-BF1E-4449A7B9DE21";
paths = (
{
closed = 1;
nodes = (
"413 0 LINE",
"413 67 LINE",
"88 67 LINE",
"106 31 LINE",
"413 433 LINE",
"413 500 LINE",
"42 500 LINE",
"42 433 LINE",
"367 433 LINE",
"349 469 LINE",
"42 67 LINE",
"42 0 LINE"
);
}
);
width = 455;
},
{
anchors = (
{
name = bottom;
position = "{227, 0}";
},
{
name = top;
position = "{227, 565}";
}
);
layerId = "1FB77202-83CB-408E-8929-4AFC59A3446D";
paths = (
{
closed = 1;
nodes = (
"412 0 LINE",
"412 120 LINE",
"157 120 LINE",
"174 85 LINE",
"412 380 LINE",
"412 500 LINE",
"41 500 LINE",
"41 380 LINE",
"296 380 LINE",
"279 415 LINE",
"41 120 LINE",
"41 0 LINE"
);
}
);
width = 454;
}
);
unicode = 007A;
},
{
glyphname = ordfeminine;
lastChange = "2017-03-26 18:40:36 +0000";
layers = (
{
layerId = "8FFE84BD-9390-4D75-BABD-68166BF44E93";
paths = (
{
closed = 1;
nodes = (
"322 409 LINE",
"307 413 OFFCURVE",
"296 419 OFFCURVE",
"290 428 CURVE",
"290 564 LINE SMOOTH",
"290 634 OFFCURVE",
"257 659 OFFCURVE",
"189 659 CURVE SMOOTH",
"162 659 OFFCURVE",
"121 655 OFFCURVE",
"75 646 CURVE",
"77 606 LINE",
"188 613 LINE",
"223 613 OFFCURVE",
"238 601 OFFCURVE",
"238 566 CURVE SMOOTH",
"238 405 LINE",
"253 380 OFFCURVE",
"281 368 OFFCURVE",
"320 368 CURVE"
);
},
{
closed = 1;
nodes = (
"181 368 OFFCURVE",
"222 379 OFFCURVE",
"272 402 CURVE",
"272 442 LINE",
"222 425 OFFCURVE",
"183 413 OFFCURVE",
"153 413 CURVE SMOOTH",
"123 413 OFFCURVE",
"110 425 OFFCURVE",
"110 453 CURVE SMOOTH",
"110 483 OFFCURVE",
"125 497 OFFCURVE",
"154 499 CURVE SMOOTH",
"275 507 LINE",
"273 546 LINE",
"145 538 LINE SMOOTH",
"86 534 OFFCURVE",
"57 507 OFFCURVE",
"57 454 CURVE SMOOTH",
"57 402 OFFCURVE",
"85 368 OFFCURVE",
"146 368 CURVE SMOOTH"
);
}
);
width = 378;
},
{
layerId = "0596A6ED-150F-4F1F-BF1E-4449A7B9DE21";
paths = (
{
closed = 1;
nodes = (
"332 406 LINE",
"318 410 OFFCURVE",
"308 416 OFFCURVE",
"302 423 CURVE",
"302 560 LINE SMOOTH",
"302 634 OFFCURVE",
"267 659 OFFCURVE",
"193 659 CURVE SMOOTH",
"160 659 OFFCURVE",
"118 654 OFFCURVE",
"72 644 CURVE",
"74 596 LINE",
"189 603 LINE",
"222 603 OFFCURVE",
"238 592 OFFCURVE",
"238 563 CURVE SMOOTH",
"238 394 LINE",
"260 366 OFFCURVE",
"270 357 OFFCURVE",
"330 357 CURVE"
);
},
{
closed = 1;
nodes = (
"186 357 OFFCURVE",
"229 372 OFFCURVE",
"280 399 CURVE",
"282 444 LINE",
"222 421 OFFCURVE",
"185 411 OFFCURVE",
"159 411 CURVE SMOOTH",
"132 411 OFFCURVE",
"120 422 OFFCURVE",
"120 450 CURVE SMOOTH",
"120 477 OFFCURVE",
"132 487 OFFCURVE",
"161 490 CURVE",
"283 498 LINE",
"283 544 LINE",
"150 535 LINE SMOOTH",
"86 531 OFFCURVE",
"54 503 OFFCURVE",
"54 448 CURVE SMOOTH",
"54 393 OFFCURVE",
"85 357 OFFCURVE",
"146 357 CURVE SMOOTH"
);
}
);
width = 386;
},
{
layerId = "1FB77202-83CB-408E-8929-4AFC59A3446D";
paths = (
{
closed = 1;
nodes = (
"369 395 LINE",
"362 396 OFFCURVE",
"356 399 OFFCURVE",
"351 403 CURVE",
"351 544 LINE SMOOTH",
"351 631 OFFCURVE",
"301 659 OFFCURVE",
"205 659 CURVE SMOOTH",
"151 659 OFFCURVE",
"105 650 OFFCURVE",
"58 633 CURVE",
"61 558 LINE",
"192 565 LINE",
"221 565 OFFCURVE",
"236 560 OFFCURVE",
"236 550 CURVE SMOOTH",
"236 369 LINE",
"236 319 OFFCURVE",
"288 313 OFFCURVE",
"367 313 CURVE"
);
},
{
closed = 1;
nodes = (
"191 314 OFFCURVE",
"231 333 OFFCURVE",
"265 368 CURVE",
"313 448 LINE",
"213 413 OFFCURVE",
"212 402 OFFCURVE",
"188 402 CURVE SMOOTH",
"167 402 OFFCURVE",
"157 411 OFFCURVE",
"157 427 CURVE SMOOTH",
"157 444 OFFCURVE",
"168 453 OFFCURVE",
"189 455 CURVE SMOOTH",
"281 461 LINE",
"281 530 LINE",
"169 525 LINE SMOOTH",
"84 521 OFFCURVE",
"42 488 OFFCURVE",
"42 422 CURVE SMOOTH",
"42 358 OFFCURVE",
"81 314 OFFCURVE",
"147 314 CURVE SMOOTH"
);
}
);
width = 416;
}
);
unicode = 00AA;
},
{
glyphname = ordmasculine;
lastChange = "2017-03-26 18:41:25 +0000";
layers = (
{
layerId = "8FFE84BD-9390-4D75-BABD-68166BF44E93";
paths = (
{
closed = 1;
nodes = (
"270 368 OFFCURVE",
"312 417 OFFCURVE",
"312 515 CURVE SMOOTH",
"312 614 OFFCURVE",
"270 659 OFFCURVE",
"185 659 CURVE SMOOTH",
"99 659 OFFCURVE",
"56 611 OFFCURVE",
"56 514 CURVE SMOOTH",
"56 417 OFFCURVE",
"99 368 OFFCURVE",
"185 368 CURVE SMOOTH"
);
},
{
closed = 1;
nodes = (
"132 418 OFFCURVE",
"112 449 OFFCURVE",
"112 515 CURVE SMOOTH",
"112 583 OFFCURVE",
"133 609 OFFCURVE",
"186 609 CURVE SMOOTH",
"238 609 OFFCURVE",
"257 583 OFFCURVE",
"257 515 CURVE SMOOTH",
"257 446 OFFCURVE",
"237 418 OFFCURVE",
"185 418 CURVE SMOOTH"
);
}
);
width = 370;
},
{
layerId = "0596A6ED-150F-4F1F-BF1E-4449A7B9DE21";
paths = (
{
closed = 1;
nodes = (
"281 357 OFFCURVE",
"326 408 OFFCURVE",
"326 510 CURVE SMOOTH",
"326 613 OFFCURVE",
"282 659 OFFCURVE",
"191 659 CURVE SMOOTH",
"99 659 OFFCURVE",
"53 613 OFFCURVE",
"53 510 CURVE SMOOTH",
"53 408 OFFCURVE",
"99 357 OFFCURVE",
"191 357 CURVE SMOOTH"
);
},
{
closed = 1;
nodes = (
"141 418 OFFCURVE",
"122 445 OFFCURVE",
"122 510 CURVE SMOOTH",
"122 574 OFFCURVE",
"141 598 OFFCURVE",
"191 598 CURVE SMOOTH",
"241 598 OFFCURVE",
"257 575 OFFCURVE",
"257 510 CURVE SMOOTH",
"257 445 OFFCURVE",
"241 418 OFFCURVE",
"191 418 CURVE SMOOTH"
);
}
);
width = 380;
},
{
layerId = "1FB77202-83CB-408E-8929-4AFC59A3446D";
paths = (
{
closed = 1;
nodes = (
"324 314 OFFCURVE",
"380 372 OFFCURVE",
"380 487 CURVE SMOOTH",
"380 602 OFFCURVE",
"324 659 OFFCURVE",
"211 659 CURVE SMOOTH",
"97 659 OFFCURVE",
"40 602 OFFCURVE",
"40 487 CURVE SMOOTH",
"40 372 OFFCURVE",
"97 314 OFFCURVE",
"211 314 CURVE SMOOTH"
);
},
{
closed = 1;
nodes = (
"173 419 OFFCURVE",
"160 440 OFFCURVE",
"160 488 CURVE SMOOTH",
"160 536 OFFCURVE",
"172 555 OFFCURVE",
"211 555 CURVE SMOOTH",
"250 555 OFFCURVE",
"259 537 OFFCURVE",
"259 488 CURVE SMOOTH",
"259 439 OFFCURVE",
"250 419 OFFCURVE",
"211 419 CURVE SMOOTH"
);
}
);
width = 420;
}
);
unicode = 00BA;
},
{
glyphname = pi;
lastChange = "2017-03-26 18:47:10 +0000";
layers = (
{
layerId = "8FFE84BD-9390-4D75-BABD-68166BF44E93";
paths = (
{
closed = 1;
nodes = (
"520 50 LINE",
"447 50 OFFCURVE",
"428 69 OFFCURVE",
"428 154 CURVE SMOOTH",
"428 494 LINE",
"369 492 LINE",
"369 154 LINE SMOOTH",
"369 27 OFFCURVE",
"399 -3 OFFCURVE",
"520 -3 CURVE"
);
},
{
closed = 1;
nodes = (
"166 0 LINE",
"197 492 LINE",
"139 492 LINE",
"105 0 LINE"
);
},
{
closed = 1;
nodes = (
"11 427 LINE",
"56 441 OFFCURVE",
"102 447 OFFCURVE",
"163 447 CURVE SMOOTH",
"394 447 LINE SMOOTH",
"452 447 OFFCURVE",
"504 454 OFFCURVE",
"577 470 CURVE",
"530 419 LINE",
"530 515 LINE",
"475 504 OFFCURVE",
"437 500 OFFCURVE",
"394 500 CURVE SMOOTH",
"163 500 LINE SMOOTH",
"108 500 OFFCURVE",
"62 495 OFFCURVE",
"23 486 CURVE",
"27 391 LINE"
);
}
);
width = 560;
},
{
layerId = "0596A6ED-150F-4F1F-BF1E-4449A7B9DE21";
paths = (
{
closed = 1;
nodes = (
"521 61 LINE",
"450 61 OFFCURVE",
"434 79 OFFCURVE",
"434 154 CURVE SMOOTH",
"434 482 LINE",
"359 480 LINE",
"359 154 LINE SMOOTH",
"359 26 OFFCURVE",
"389 -4 OFFCURVE",
"521 -4 CURVE"
);
},
{
closed = 1;
nodes = (
"175 0 LINE",
"206 480 LINE",
"133 480 LINE",
"99 0 LINE"
);
},
{
closed = 1;
nodes = (
"5 400 LINE",
"33 413 OFFCURVE",
"99 420 OFFCURVE",
"164 420 CURVE SMOOTH",
"399 420 LINE SMOOTH",
"461 420 OFFCURVE",
"485 425 OFFCURVE",
"574 445 CURVE",
"532 390 LINE",
"529 513 LINE",
"484 503 OFFCURVE",
"450 500 OFFCURVE",
"399 500 CURVE SMOOTH",
"164 500 LINE SMOOTH",
"108 500 OFFCURVE",
"65 495 OFFCURVE",
"21 484 CURVE",
"24 361 LINE"
);
}
);
width = 560;
},
{
layerId = "1FB77202-83CB-408E-8929-4AFC59A3446D";
paths = (
{
closed = 1;
nodes = (
"523 104 LINE",
"468 104 OFFCURVE",
"454 118 OFFCURVE",
"454 154 CURVE",
"454 446 LINE",
"320 429 LINE",
"320 154 LINE",
"320 22 OFFCURVE",
"346 -10 OFFCURVE",
"523 -10 CURVE"
);
},
{
closed = 1;
nodes = (
"209 0 LINE",
"238 431 LINE",
"110 431 LINE",
"74 0 LINE"
);
},
{
closed = 1;
nodes = (
"10 363 LINE",
"28 373 OFFCURVE",
"100 380 OFFCURVE",
"163 380 CURVE SMOOTH",
"399 380 LINE SMOOTH",
"470 380 OFFCURVE",
"474 384 OFFCURVE",
"583 409 CURVE",
"535 352 LINE",
"529 514 LINE",
"484 503 OFFCURVE",
"450 500 OFFCURVE",
"399 500 CURVE SMOOTH",
"163 500 LINE SMOOTH",
"107 500 OFFCURVE",
"64 495 OFFCURVE",
"20 484 CURVE",
"26 323 LINE"
);
}
);
width = 560;
}
);
unicode = 03C0;
},
{
glyphname = "hamza-ar";
lastChange = "2017-04-18 23:29:08 +0000";
layers = (
{
anchors = (
{
name = bottom;
position = "{282, -60}";
},
{
name = top;
position = "{284, 549}";
}
);
layerId = "8FFE84BD-9390-4D75-BABD-68166BF44E93";
paths = (
{
closed = 1;
nodes = (
"222 65 LINE",
"172 99 OFFCURVE",
"145 149 OFFCURVE",
"145 206 CURVE SMOOTH",
"145 300 OFFCURVE",
"216 373 OFFCURVE",
"313 373 CURVE SMOOTH",
"341 373 OFFCURVE",
"373 367 OFFCURVE",
"397 356 CURVE",
"372 325 LINE",
"397 433 LINE",
"403 414 LINE",
"373 424 OFFCURVE",
"339 429 OFFCURVE",
"310 429 CURVE SMOOTH",
"184 429 OFFCURVE",
"83 332 OFFCURVE",
"83 206 CURVE SMOOTH",
"83 146 OFFCURVE",
"106 90 OFFCURVE",
"155 44 CURVE"
);
},
{
closed = 1;
nodes = (
"488 94 LINE",
"475 149 LINE",
"44 55 LINE",
"57 0 LINE"
);
}
);
width = 542;
},
{
anchors = (
{
name = bottom;
position = "{282, -60}";
},
{
name = top;
position = "{284, 549}";
}
);
layerId = "0596A6ED-150F-4F1F-BF1E-4449A7B9DE21";
paths = (
{
closed = 1;
nodes = (
"236 87 LINE",
"190 117 OFFCURVE",
"164 163 OFFCURVE",
"164 219 CURVE SMOOTH",
"164 305 OFFCURVE",
"227 372 OFFCURVE",
"321 372 CURVE SMOOTH",
"343 372 OFFCURVE",
"370 368 OFFCURVE",
"399 358 CURVE",
"383 348 LINE",
"406 448 LINE",
"414 424 LINE",
"383 435 OFFCURVE",
"345 441 OFFCURVE",
"314 441 CURVE SMOOTH",
"188 441 OFFCURVE",
"87 344 OFFCURVE",
"87 218 CURVE SMOOTH",
"87 158 OFFCURVE",
"110 102 OFFCURVE",
"159 56 CURVE"
);
},
{
closed = 1;
nodes = (
"495 94 LINE",
"479 161 LINE",
"48 67 LINE",
"64 0 LINE"
);
}
);
width = 538;
},
{
anchors = (
{
name = bottom;
position = "{282, -60}";
},
{
name = top;
position = "{284, 549}";
}
);
layerId = "1FB77202-83CB-408E-8929-4AFC59A3446D";
paths = (
{
closed = 1;
nodes = (
"266 132 LINE",
"233 148 OFFCURVE",
"211 184 OFFCURVE",
"211 227 CURVE SMOOTH",
"211 286 OFFCURVE",
"251 333 OFFCURVE",
"314 333 CURVE SMOOTH",
"344 333 OFFCURVE",
"383 322 OFFCURVE",
"390 305 CURVE",
"368 295 LINE",
"403 457 LINE",
"415 437 LINE",
"382 449 OFFCURVE",
"343 455 OFFCURVE",
"311 455 CURVE SMOOTH",
"181 455 OFFCURVE",
"77 355 OFFCURVE",
"77 226 CURVE SMOOTH",
"77 164 OFFCURVE",
"101 106 OFFCURVE",
"151 59 CURVE"
);
},
{
closed = 1;
nodes = (
"499 72 LINE",
"473 192 LINE",
"44 108 LINE",
"70 -12 LINE"
);
}
);
width = 530;
},
{
anchors = (
{
name = bottom;
position = "{282, -60}";
},
{
name = top;
position = "{284, 549}";
}
);
associatedMasterId = "0596A6ED-150F-4F1F-BF1E-4449A7B9DE21";
layerId = "46CC4317-DC09-4430-A6CC-327BEE3F31BF";
name = "Apr 19 17, 01:22";
paths = (
{
closed = 1;
nodes = (
"233 88 LINE",
"185 122 OFFCURVE",
"164 170 OFFCURVE",
"164 218 CURVE SMOOTH",
"164 297 OFFCURVE",
"221 372 OFFCURVE",
"315 372 CURVE SMOOTH",
"361 372 OFFCURVE",
"405 353 OFFCURVE",
"425 344 CURVE",
"397 308 LINE",
"422 421 LINE",
"389 434 OFFCURVE",
"348 441 OFFCURVE",
"314 441 CURVE SMOOTH",
"188 441 OFFCURVE",
"87 344 OFFCURVE",
"87 218 CURVE SMOOTH",
"87 158 OFFCURVE",
"110 101 OFFCURVE",
"159 56 CURVE"
);
},
{
closed = 1;
nodes = (
"495 94 LINE",
"479 161 LINE",
"48 67 LINE",
"64 0 LINE"
);
}
);
width = 538;
},
{
anchors = (
{
name = bottom;
position = "{282, -60}";
},
{
name = top;
position = "{284, 549}";
}
);
associatedMasterId = "1FB77202-83CB-408E-8929-4AFC59A3446D";
layerId = "3FAFFD18-2DCD-4D13-97A6-0333A4FD7369";
name = "Apr 19 17, 01:25";
paths = (
{
closed = 1;
nodes = (
"265 126 LINE",
"230 151 OFFCURVE",
"215 186 OFFCURVE",
"215 220 CURVE SMOOTH",
"215 277 OFFCURVE",
"256 333 OFFCURVE",
"324 333 CURVE SMOOTH",
"365 333 OFFCURVE",
"399 313 OFFCURVE",
"412 307 CURVE",
"386 271 LINE",
"423 438 LINE",
"391 449 OFFCURVE",
"356 455 OFFCURVE",
"323 455 CURVE SMOOTH",
"190 455 OFFCURVE",
"81 352 OFFCURVE",
"81 220 CURVE SMOOTH",
"81 159 OFFCURVE",
"105 104 OFFCURVE",
"149 59 CURVE"
);
},
{
closed = 1;
nodes = (
"499 72 LINE",
"473 192 LINE",
"44 108 LINE",
"70 -12 LINE"
);
}
);
width = 530;
},
{
anchors = (
{
name = bottom;
position = "{282, -60}";
},
{
name = top;
position = "{284, 549}";
}
);
associatedMasterId = "8FFE84BD-9390-4D75-BABD-68166BF44E93";
layerId = "BCD11366-F00F-407B-8FBC-001B8BE9C6B6";
name = "Apr 19 17, 01:26";
paths = (
{
closed = 1;
nodes = (
"222 66 LINE",
"172 97 OFFCURVE",
"145 149 OFFCURVE",
"145 206 CURVE SMOOTH",
"145 300 OFFCURVE",
"217 373 OFFCURVE",
"311 373 CURVE SMOOTH",
"348 373 OFFCURVE",
"390 362 OFFCURVE",
"420 345 CURVE",
"400 324 LINE",
"418 409 LINE",
"385 422 OFFCURVE",
"344 429 OFFCURVE",
"310 429 CURVE SMOOTH",
"184 429 OFFCURVE",
"83 332 OFFCURVE",
"83 206 CURVE SMOOTH",
"83 146 OFFCURVE",
"106 89 OFFCURVE",
"155 44 CURVE"
);
},
{
closed = 1;
nodes = (
"488 94 LINE",
"475 149 LINE",
"44 55 LINE",
"57 0 LINE"
);
}
);
width = 542;
}
);
unicode = 0621;
},
{
glyphname = "alef-ar";
lastChange = "2017-04-18 23:33:45 +0000";
layers = (
{
anchors = (
{
name = bottom;
position = "{131, -37}";
},
{
name = top;
position = "{131, 730}";
}
);
layerId = "8FFE84BD-9390-4D75-BABD-68166BF44E93";
paths = (
{
closed = 1;
nodes = (
"161 0 LINE",
"161 722 LINE",
"100 722 LINE",
"100 0 LINE"
);
}
);
width = 261;
},
{
anchors = (
{
name = bottom;
position = "{129, -37}";
},
{
name = top;
position = "{129, 734}";
}
);
layerId = "0596A6ED-150F-4F1F-BF1E-4449A7B9DE21";
paths = (
{
closed = 1;
nodes = (
"167 0 LINE",
"167 718 LINE",
"90 718 LINE",
"90 0 LINE"
);
}
);
width = 257;
},
{
anchors = (
{
name = bottom;
position = "{147, -37}";
},
{
name = top;
position = "{147, 712}";
}
);
layerId = "1FB77202-83CB-408E-8929-4AFC59A3446D";
paths = (
{
closed = 1;
nodes = (
"214 0 LINE",
"214 700 LINE",
"80 700 LINE",
"80 0 LINE"
);
}
);
width = 294;
}
);
unicode = 0627;
},
{
glyphname = "alef-ar.fina";
lastChange = "2017-04-18 23:36:41 +0000";
layers = (
{
anchors = (
{
name = bottom;
position = "{131, -37}";
},
{
name = entry;
position = "{261, 28}";
},
{
name = top;
position = "{131, 730}";
}
);
components = (
{
name = "alef-ar";
}
);
layerId = "8FFE84BD-9390-4D75-BABD-68166BF44E93";
paths = (
{
closed = 1;
nodes = (
"271 0 LINE",
"281 28 LINE",
"271 56 LINE",
"146 56 LINE",
"146 0 LINE"
);
}
);
width = 261;
},
{
anchors = (
{
name = bottom;
position = "{129, -37}";
},
{
name = entry;
position = "{261, 35}";
},
{
name = top;
position = "{129, 730}";
}
);
components = (
{
name = "alef-ar";
}
);
layerId = "0596A6ED-150F-4F1F-BF1E-4449A7B9DE21";
paths = (
{
closed = 1;
nodes = (
"271 0 LINE",
"281 35 LINE",
"271 69 LINE",
"160 69 LINE",
"160 0 LINE"
);
}
);
width = 261;
},
{
anchors = (
{
name = bottom;
position = "{136, -37}";
},
{
name = entry;
position = "{312, 61}";
},
{
name = top;
position = "{147, 712}";
}
);
components = (
{
name = "alef-ar";
}
);
layerId = "1FB77202-83CB-408E-8929-4AFC59A3446D";
paths = (
{
closed = 1;
nodes = (
"322 0 LINE",
"332 61 LINE",
"322 122 LINE",
"206 122 LINE",
"206 0 LINE"
);
}
);
width = 312;
}
);
unicode = FE8E;
},
{
glyphname = zero;
lastChange = "2017-03-26 18:48:43 +0000";
layers = (
{
layerId = "8FFE84BD-9390-4D75-BABD-68166BF44E93";
paths = (
{
closed = 1;
nodes = (
"436 -10 OFFCURVE",
"516 72 OFFCURVE",
"516 331 CURVE SMOOTH",
"516 542 OFFCURVE",
"463 670 OFFCURVE",
"281 670 CURVE SMOOTH",
"89 670 OFFCURVE",
"43 528 OFFCURVE",
"43 329 CURVE SMOOTH",
"43 74 OFFCURVE",
"118 -10 OFFCURVE",
"278 -10 CURVE SMOOTH"
);
},
{
closed = 1;
nodes = (
"158 46 OFFCURVE",
"107 110 OFFCURVE",
"107 329 CURVE SMOOTH",
"107 528 OFFCURVE",
"149 615 OFFCURVE",
"279 615 CURVE SMOOTH",
"409 615 OFFCURVE",
"452 527 OFFCURVE",
"452 325 CURVE SMOOTH",
"452 125 OFFCURVE",
"410 46 OFFCURVE",
"277 46 CURVE SMOOTH"
);
}
);
width = 560;
},
{
layerId = "0596A6ED-150F-4F1F-BF1E-4449A7B9DE21";
paths = (
{
closed = 1;
nodes = (
"438 -10 OFFCURVE",
"520 78 OFFCURVE",
"520 330 CURVE",
"520 581 OFFCURVE",
"438 671 OFFCURVE",
"280 671 CURVE",
"120 671 OFFCURVE",
"39 581 OFFCURVE",
"39 330 CURVE",
"39 78 OFFCURVE",
"120 -10 OFFCURVE",
"280 -10 CURVE"
);
},
{
closed = 1;
nodes = (
"169 58 OFFCURVE",
"119 124 OFFCURVE",
"119 330 CURVE",
"119 535 OFFCURVE",
"169 602 OFFCURVE",
"280 602 CURVE",
"391 602 OFFCURVE",
"441 535 OFFCURVE",
"441 330 CURVE",
"441 124 OFFCURVE",
"391 58 OFFCURVE",
"280 58 CURVE"
);
}
);
width = 560;
},
{
layerId = "1FB77202-83CB-408E-8929-4AFC59A3446D";
paths = (
{
closed = 1;
nodes = (
"451 -10 OFFCURVE",
"536 90 OFFCURVE",
"536 332 CURVE",
"536 574 OFFCURVE",
"451 674 OFFCURVE",
"280 674 CURVE",
"109 674 OFFCURVE",
"24 574 OFFCURVE",
"24 332 CURVE",
"24 90 OFFCURVE",
"109 -10 OFFCURVE",
"280 -10 CURVE"
);
},
{
closed = 1;
nodes = (
"199 110 OFFCURVE",
"166 168 OFFCURVE",
"166 332 CURVE",
"166 496 OFFCURVE",
"199 554 OFFCURVE",
"280 554 CURVE",
"361 554 OFFCURVE",
"394 496 OFFCURVE",
"394 332 CURVE",
"394 168 OFFCURVE",
"361 110 OFFCURVE",
"280 110 CURVE"
);
}
);
width = 560;
}
);
unicode = 0030;
},
{
glyphname = one;
lastChange = "2017-03-26 18:49:05 +0000";
layers = (
{
layerId = "8FFE84BD-9390-4D75-BABD-68166BF44E93";
paths = (
{
closed = 1;
nodes = (
"381 0 LINE",
"381 660 LINE",
"323 660 LINE",
"115 522 LINE",
"144 474 LINE",
"357 617 LINE",
"320 637 LINE",
"320 0 LINE"
);
}
);
width = 560;
},
{
layerId = "0596A6ED-150F-4F1F-BF1E-4449A7B9DE21";
paths = (
{
closed = 1;
nodes = (
"389 0 LINE",
"389 660 LINE",
"317 660 LINE",
"107 520 LINE",
"142 462 LINE",
"350 599 LINE",
"312 619 LINE",
"312 0 LINE"
);
}
);
width = 560;
},
{
layerId = "1FB77202-83CB-408E-8929-4AFC59A3446D";
paths = (
{
closed = 1;
nodes = (
"418 0 LINE",
"418 660 LINE",
"292 660 LINE",
"74 515 LINE",
"137 412 LINE",
"318 528 LINE",
"280 549 LINE",
"280 0 LINE"
);
}
);
width = 560;
}
);
unicode = 0031;
},
{
glyphname = two;
lastChange = "2017-03-26 18:51:22 +0000";
layers = (
{
layerId = "8FFE84BD-9390-4D75-BABD-68166BF44E93";
paths = (
{
closed = 1;
nodes = (
"337 252 LINE SMOOTH",
"434 349 OFFCURVE",
"472 404 OFFCURVE",
"472 496 CURVE SMOOTH",
"472 617 OFFCURVE",
"402 670 OFFCURVE",
"270 670 CURVE SMOOTH",
"203 670 OFFCURVE",
"139 661 OFFCURVE",
"76 643 CURVE",
"81 590 LINE",
"159 607 OFFCURVE",
"208 614 OFFCURVE",
"255 614 CURVE SMOOTH",
"359 614 OFFCURVE",
"408 580 OFFCURVE",
"408 491 CURVE SMOOTH",
"408 413 OFFCURVE",
"364 363 OFFCURVE",
"276 270 CURVE SMOOTH",
"70 52 LINE",
"114 22 LINE"
);
},
{
closed = 1;
nodes = (
"491 0 LINE",
"491 54 LINE",
"70 52 LINE",
"70 0 LINE"
);
}
);
width = 560;
},
{
layerId = "0596A6ED-150F-4F1F-BF1E-4449A7B9DE21";
paths = (
{
closed = 1;
nodes = (
"336 246 LINE",
"437 343 OFFCURVE",
"474 400 OFFCURVE",
"474 493 CURVE",
"474 616 OFFCURVE",
"405 670 OFFCURVE",
"270 670 CURVE",
"203 670 OFFCURVE",
"137 661 OFFCURVE",
"74 643 CURVE",
"80 579 LINE",
"156 594 OFFCURVE",
"205 601 OFFCURVE",
"251 601 CURVE",
"350 601 OFFCURVE",
"395 570 OFFCURVE",
"395 485 CURVE",
"395 403 OFFCURVE",
"329 337 OFFCURVE",
"262 268 CURVE",
"69 65 LINE",
"128 35 LINE"
);
},
{
closed = 1;
nodes = (
"491 0 LINE",
"491 67 LINE",
"69 65 LINE",
"69 0 LINE"
);
}
);
width = 560;
},
{
layerId = "1FB77202-83CB-408E-8929-4AFC59A3446D";
paths = (
{
closed = 1;
nodes = (
"334 224 LINE SMOOTH",
"446 327 OFFCURVE",
"482 384 OFFCURVE",
"482 483 CURVE SMOOTH",
"482 609 OFFCURVE",
"412 672 OFFCURVE",
"272 672 CURVE SMOOTH",
"202 672 OFFCURVE",
"134 662 OFFCURVE",
"69 642 CURVE",
"76 535 LINE",
"150 546 OFFCURVE",
"198 550 OFFCURVE",
"246 550 CURVE SMOOTH",
"306 550 OFFCURVE",
"340 528 OFFCURVE",
"340 466 CURVE SMOOTH",
"340 404 OFFCURVE",
"306 363 OFFCURVE",
"206 260 CURVE SMOOTH",
"65 117 LINE",
"186 90 LINE"
);
},
{
closed = 1;
nodes = (
"493 0 LINE",
"493 120 LINE",
"65 117 LINE",
"65 0 LINE"
);
}
);
width = 560;
}
);
unicode = 0032;
},
{
glyphname = three;
lastChange = "2017-03-26 18:52:59 +0000";
layers = (
{
layerId = "8FFE84BD-9390-4D75-BABD-68166BF44E93";
paths = (
{
closed = 1;
nodes = (
"425 -10 OFFCURVE",
"492 51 OFFCURVE",
"492 186 CURVE SMOOTH",
"492 308 OFFCURVE",
"441 338 OFFCURVE",
"336 365 CURVE",
"335 329 LINE",
"435 370 OFFCURVE",
"475 411 OFFCURVE",
"475 508 CURVE SMOOTH",
"475 620 OFFCURVE",
"415 670 OFFCURVE",
"266 670 CURVE SMOOTH",
"207 670 OFFCURVE",
"138 662 OFFCURVE",
"75 645 CURVE",
"81 594 LINE",
"158 609 OFFCURVE",
"214 615 OFFCURVE",
"261 615 CURVE SMOOTH",
"370 615 OFFCURVE",
"411 582 OFFCURVE",
"411 510 CURVE SMOOTH",
"411 412 OFFCURVE",
"336 372 OFFCURVE",
"282 372 CURVE SMOOTH",
"149 372 LINE",
"149 318 LINE",
"283 318 LINE",
"380 313 OFFCURVE",
"428 269 OFFCURVE",
"428 180 CURVE SMOOTH",
"428 89 OFFCURVE",
"378 46 OFFCURVE",
"265 46 CURVE SMOOTH",
"223 46 OFFCURVE",
"144 52 OFFCURVE",
"70 68 CURVE",
"64 16 LINE",
"152 -2 OFFCURVE",
"217 -10 OFFCURVE",
"272 -10 CURVE SMOOTH"
);
}
);
width = 560;
},
{
layerId = "0596A6ED-150F-4F1F-BF1E-4449A7B9DE21";
paths = (
{
closed = 1;
nodes = (
"427 -10 OFFCURVE",
"493 54 OFFCURVE",
"493 189 CURVE",
"493 302 OFFCURVE",
"444 329 OFFCURVE",
"345 361 CURVE",
"348 339 LINE",
"429 357 OFFCURVE",
"477 424 OFFCURVE",
"477 499 CURVE",
"477 619 OFFCURVE",
"417 671 OFFCURVE",
"274 671 CURVE",
"202 671 OFFCURVE",
"135 662 OFFCURVE",
"72 643 CURVE",
"79 582 LINE",
"154 596 OFFCURVE",
"207 602 OFFCURVE",
"263 602 CURVE",
"360 602 OFFCURVE",
"398 571 OFFCURVE",
"398 498 CURVE",
"398 425 OFFCURVE",
"334 376 OFFCURVE",
"278 376 CURVE",
"145 376 LINE",
"145 310 LINE",
"278 310 LINE",
"369 307 OFFCURVE",
"414 265 OFFCURVE",
"414 186 CURVE",
"414 83 OFFCURVE",
"341 56 OFFCURVE",
"249 56 CURVE",
"191 56 OFFCURVE",
"126 68 OFFCURVE",
"69 80 CURVE",
"62 17 LINE",
"161 -4 OFFCURVE",
"209 -10 OFFCURVE",
"279 -10 CURVE"
);
}
);
width = 560;
},
{
layerId = "1FB77202-83CB-408E-8929-4AFC59A3446D";
paths = (
{
closed = 1;
nodes = (
"429 -12 OFFCURVE",
"497 56 OFFCURVE",
"497 196 CURVE SMOOTH",
"497 295 OFFCURVE",
"463 314 OFFCURVE",
"373 360 CURVE",
"380 324 LINE",
"451 364 OFFCURVE",
"485 409 OFFCURVE",
"485 495 CURVE SMOOTH",
"485 617 OFFCURVE",
"417 672 OFFCURVE",
"264 672 CURVE SMOOTH",
"193 672 OFFCURVE",
"123 660 OFFCURVE",
"62 636 CURVE",
"71 534 LINE",
"145 546 OFFCURVE",
"191 552 OFFCURVE",
"232 552 CURVE SMOOTH",
"310 552 OFFCURVE",
"343 530 OFFCURVE",
"343 484 CURVE SMOOTH",
"343 434 OFFCURVE",
"303 391 OFFCURVE",
"259 391 CURVE SMOOTH",
"126 391 LINE",
"126 277 LINE",
"259 277 LINE SMOOTH",
"316 277 OFFCURVE",
"355 248 OFFCURVE",
"355 190 CURVE SMOOTH",
"355 136 OFFCURVE",
"321 108 OFFCURVE",
"242 108 CURVE SMOOTH",
"205 108 OFFCURVE",
"139 114 OFFCURVE",
"64 127 CURVE",
"57 22 LINE",
"153 -2 OFFCURVE",
"208 -12 OFFCURVE",
"269 -12 CURVE SMOOTH"
);
}
);
width = 560;
}
);
unicode = 0033;
},
{
glyphname = four;
lastChange = "2017-03-26 18:54:44 +0000";
layers = (
{
layerId = "8FFE84BD-9390-4D75-BABD-68166BF44E93";
paths = (
{
closed = 1;
nodes = (
"370 0 LINE",
"432 0 LINE",
"432 400 LINE",
"370 400 LINE"
);
},
{
closed = 1;
nodes = (
"521 134 LINE",
"521 189 LINE",
"62 189 LINE",
"90 147 LINE",
"302 660 LINE",
"234 660 LINE",
"40 182 LINE",
"40 134 LINE"
);
}
);
width = 560;
},
{
layerId = "0596A6ED-150F-4F1F-BF1E-4449A7B9DE21";
paths = (
{
closed = 1;
nodes = (
"360 0 LINE",
"437 0 LINE",
"437 403 LINE",
"360 403 LINE"
);
},
{
closed = 1;
nodes = (
"521 129 LINE",
"521 197 LINE",
"76 197 LINE",
"104 155 LINE",
"312 660 LINE",
"228 660 LINE",
"40 189 LINE",
"40 129 LINE"
);
}
);
width = 560;
},
{
layerId = "1FB77202-83CB-408E-8929-4AFC59A3446D";
paths = (
{
closed = 1;
nodes = (
"320 0 LINE",
"458 0 LINE",
"458 414 LINE",
"320 414 LINE"
);
},
{
closed = 1;
nodes = (
"521 109 LINE",
"521 229 LINE",
"133 229 LINE",
"161 187 LINE",
"355 660 LINE",
"203 660 LINE",
"40 214 LINE",
"40 109 LINE"
);
}
);
width = 560;
}
);
unicode = 0034;
},
{
glyphname = five;
lastChange = "2017-03-26 19:23:04 +0000";
layers = (
{
layerId = "8FFE84BD-9390-4D75-BABD-68166BF44E93";
paths = (
{
closed = 1;
nodes = (
"421 -8 OFFCURVE",
"502 71 OFFCURVE",
"502 220 CURVE SMOOTH",
"502 349 OFFCURVE",
"432 414 OFFCURVE",
"292 414 CURVE SMOOTH",
"226 414 OFFCURVE",
"162 393 OFFCURVE",
"100 354 CURVE",
"121 313 LINE",
"172 340 OFFCURVE",
"230 359 OFFCURVE",
"286 359 CURVE SMOOTH",
"382 359 OFFCURVE",
"438 321 OFFCURVE",
"438 215 CURVE SMOOTH",
"438 109 OFFCURVE",
"378 47 OFFCURVE",
"269 47 CURVE SMOOTH",
"214 47 OFFCURVE",
"149 55 OFFCURVE",
"74 70 CURVE",
"66 19 LINE",
"166 -1 OFFCURVE",
"214 -8 OFFCURVE",
"282 -8 CURVE SMOOTH"
);
},
{
closed = 1;
nodes = (
"124 350 LINE",
"150 648 LINE",
"101 603 LINE",
"473 603 LINE",
"473 660 LINE",
"94 660 LINE",
"75 321 LINE",
"121 313 LINE"
);
}
);
width = 560;
},
{
layerId = "0596A6ED-150F-4F1F-BF1E-4449A7B9DE21";
paths = (
{
closed = 1;
nodes = (
"422 -9 OFFCURVE",
"503 72 OFFCURVE",
"503 221 CURVE SMOOTH",
"503 351 OFFCURVE",
"433 416 OFFCURVE",
"293 416 CURVE SMOOTH",
"231 416 OFFCURVE",
"170 396 OFFCURVE",
"110 359 CURVE",
"127 307 LINE",
"176 330 OFFCURVE",
"227 347 OFFCURVE",
"284 347 CURVE SMOOTH",
"373 347 OFFCURVE",
"424 310 OFFCURVE",
"424 213 CURVE SMOOTH",
"424 116 OFFCURVE",
"370 59 OFFCURVE",
"266 59 CURVE SMOOTH",
"213 59 OFFCURVE",
"149 66 OFFCURVE",
"72 81 CURVE",
"63 20 LINE",
"161 -1 OFFCURVE",
"223 -9 OFFCURVE",
"282 -9 CURVE SMOOTH"
);
},
{
closed = 1;
nodes = (
"137 368 LINE",
"160 635 LINE",
"111 590 LINE",
"477 590 LINE",
"477 660 LINE",
"92 660 LINE",
"74 317 LINE",
"127 307 LINE"
);
}
);
width = 560;
},
{
layerId = "1FB77202-83CB-408E-8929-4AFC59A3446D";
paths = (
{
closed = 1;
nodes = (
"428 -12 OFFCURVE",
"510 73 OFFCURVE",
"510 222 CURVE SMOOTH",
"510 355 OFFCURVE",
"439 421 OFFCURVE",
"296 421 CURVE SMOOTH",
"250 421 OFFCURVE",
"199 409 OFFCURVE",
"147 384 CURVE",
"151 284 LINE",
"201 297 OFFCURVE",
"238 301 OFFCURVE",
"284 301 CURVE SMOOTH",
"337 301 OFFCURVE",
"368 273 OFFCURVE",
"368 209 CURVE SMOOTH",
"368 144 OFFCURVE",
"332 108 OFFCURVE",
"267 108 CURVE SMOOTH",
"213 108 OFFCURVE",
"146 114 OFFCURVE",
"65 127 CURVE",
"50 25 LINE",
"130 4 OFFCURVE",
"220 -12 OFFCURVE",
"284 -12 CURVE SMOOTH"
);
},
{
closed = 1;
nodes = (
"173 352 LINE",
"200 585 LINE",
"150 540 LINE",
"490 540 LINE",
"490 660 LINE",
"87 660 LINE",
"69 303 LINE",
"151 284 LINE"
);
}
);
width = 560;
}
);
unicode = 0035;
},
{
glyphname = six;
lastChange = "2017-03-26 19:25:45 +0000";
layers = (
{
layerId = "8FFE84BD-9390-4D75-BABD-68166BF44E93";
paths = (
{
closed = 1;
nodes = (
"432 -10 OFFCURVE",
"513 69 OFFCURVE",
"513 208 CURVE SMOOTH",
"513 343 OFFCURVE",
"440 410 OFFCURVE",
"293 410 CURVE SMOOTH",
"240 410 OFFCURVE",
"196 397 OFFCURVE",
"85 355 CURVE",
"88 298 LINE",
"155 332 OFFCURVE",
"226 355 OFFCURVE",
"289 355 CURVE SMOOTH",
"396 355 OFFCURVE",
"449 305 OFFCURVE",
"449 206 CURVE SMOOTH",
"449 103 OFFCURVE",
"392 46 OFFCURVE",
"285 46 CURVE SMOOTH",
"166 46 OFFCURVE",
"110 151 OFFCURVE",
"118 359 CURVE",
"120 325 LINE",
"106 511 OFFCURVE",
"177 614 OFFCURVE",
"304 614 CURVE SMOOTH",
"362 614 OFFCURVE",
"420 611 OFFCURVE",
"478 604 CURVE",
"484 655 LINE",
"402 666 OFFCURVE",
"353 670 OFFCURVE",
"307 670 CURVE SMOOTH",
"147 670 OFFCURVE",
"54 563 OFFCURVE",
"54 334 CURVE SMOOTH",
"54 105 OFFCURVE",
"131 -10 OFFCURVE",
"285 -10 CURVE SMOOTH"
);
}
);
width = 560;
},
{
layerId = "0596A6ED-150F-4F1F-BF1E-4449A7B9DE21";
paths = (
{
closed = 1;
nodes = (
"433 -10 OFFCURVE",
"517 68 OFFCURVE",
"517 208 CURVE SMOOTH",
"517 345 OFFCURVE",
"443 413 OFFCURVE",
"295 413 CURVE SMOOTH",
"236 413 OFFCURVE",
"172 391 OFFCURVE",
"97 361 CURVE",
"99 294 LINE",
"165 322 OFFCURVE",
"226 344 OFFCURVE",
"290 344 CURVE SMOOTH",
"383 344 OFFCURVE",
"437 300 OFFCURVE",
"437 206 CURVE SMOOTH",
"437 112 OFFCURVE",
"385 58 OFFCURVE",
"282 58 CURVE SMOOTH",
"170 58 OFFCURVE",
"121 172 OFFCURVE",
"130 349 CURVE",
"132 332 LINE",
"119 505 OFFCURVE",
"184 602 OFFCURVE",
"307 602 CURVE SMOOTH",
"364 602 OFFCURVE",
"422 598 OFFCURVE",
"482 590 CURVE",
"489 653 LINE",
"411 666 OFFCURVE",
"371 670 OFFCURVE",
"308 670 CURVE SMOOTH",
"144 670 OFFCURVE",
"50 564 OFFCURVE",
"50 333 CURVE SMOOTH",
"50 104 OFFCURVE",
"129 -10 OFFCURVE",
"286 -10 CURVE SMOOTH"
);
}
);
width = 560;
},
{
layerId = "1FB77202-83CB-408E-8929-4AFC59A3446D";
paths = (
{
closed = 1;
nodes = (
"443 -12 OFFCURVE",
"530 64 OFFCURVE",
"530 210 CURVE SMOOTH",
"530 356 OFFCURVE",
"454 423 OFFCURVE",
"303 423 CURVE SMOOTH",
"271 423 OFFCURVE",
"225 414 OFFCURVE",
"126 383 CURVE",
"136 268 LINE",
"207 292 OFFCURVE",
"248 303 OFFCURVE",
"291 303 CURVE SMOOTH",
"356 303 OFFCURVE",
"388 272 OFFCURVE",
"388 209 CURVE SMOOTH",
"388 145 OFFCURVE",
"352 108 OFFCURVE",
"288 108 CURVE SMOOTH",
"203 108 OFFCURVE",
"167 182 OFFCURVE",
"178 328 CURVE",
"179 357 LINE",
"166 487 OFFCURVE",
"212 552 OFFCURVE",
"319 552 CURVE SMOOTH",
"369 552 OFFCURVE",
"428 547 OFFCURVE",
"496 537 CURVE",
"508 643 LINE",
"421 664 OFFCURVE",
"365 672 OFFCURVE",
"310 672 CURVE SMOOTH",
"133 672 OFFCURVE",
"35 566 OFFCURVE",
"35 337 CURVE SMOOTH",
"35 108 OFFCURVE",
"119 -12 OFFCURVE",
"281 -12 CURVE SMOOTH"
);
}
);
width = 560;
}
);
unicode = 0036;
},
{
glyphname = seven;
lastChange = "2017-03-26 19:25:57 +0000";
layers = (
{
layerId = "8FFE84BD-9390-4D75-BABD-68166BF44E93";
paths = (
{
closed = 1;
nodes = (
"486 572 LINE",
"486 660 LINE",
"79 660 LINE",
"79 604 LINE",
"423 604 LINE",
"423 578 LINE",
"168 10 LINE",
"227 -10 LINE"
);
}
);
width = 560;
},
{
layerId = "0596A6ED-150F-4F1F-BF1E-4449A7B9DE21";
paths = (
{
closed = 1;
nodes = (
"487 559 LINE",
"487 660 LINE",
"77 660 LINE",
"77 590 LINE",
"409 590 LINE",
"409 564 LINE",
"160 13 LINE",
"233 -10 LINE"
);
}
);
width = 560;
},
{
layerId = "1FB77202-83CB-408E-8929-4AFC59A3446D";
paths = (
{
closed = 1;
nodes = (
"491 504 LINE",
"491 660 LINE",
"69 660 LINE",
"69 537 LINE",
"353 537 LINE",
"353 505 LINE",
"128 24 LINE",
"256 -12 LINE"
);
}
);
width = 560;
}
);
unicode = 0037;
},
{
glyphname = eight;
lastChange = "2017-03-26 19:26:59 +0000";
layers = (
{
layerId = "8FFE84BD-9390-4D75-BABD-68166BF44E93";
paths = (
{
closed = 1;
nodes = (
"443 -10 OFFCURVE",
"526 53 OFFCURVE",
"526 179 CURVE SMOOTH",
"526 282 OFFCURVE",
"468 325 OFFCURVE",
"361 358 CURVE",
"357 333 LINE",
"470 368 OFFCURVE",
"516 406 OFFCURVE",
"516 501 CURVE SMOOTH",
"516 613 OFFCURVE",
"426 670 OFFCURVE",
"278 670 CURVE SMOOTH",
"149 670 OFFCURVE",
"43 626 OFFCURVE",
"43 502 CURVE SMOOTH",
"43 409 OFFCURVE",
"89 370 OFFCURVE",
"190 331 CURVE",
"188 362 LINE",
"82 314 OFFCURVE",
"32 278 OFFCURVE",
"32 168 CURVE SMOOTH",
"32 41 OFFCURVE",
"131 -10 OFFCURVE",
"278 -10 CURVE SMOOTH"
);
},
{
closed = 1;
nodes = (
"159 47 OFFCURVE",
"99 90 OFFCURVE",
"99 177 CURVE SMOOTH",
"99 256 OFFCURVE",
"139 295 OFFCURVE",
"219 316 CURVE",
"329 316 LINE",
"416 293 OFFCURVE",
"461 267 OFFCURVE",
"461 176 CURVE SMOOTH",
"461 85 OFFCURVE",
"393 47 OFFCURVE",
"278 47 CURVE SMOOTH"
);
},
{
closed = 1;
nodes = (
"143 395 OFFCURVE",
"109 429 OFFCURVE",
"109 496 CURVE SMOOTH",
"109 575 OFFCURVE",
"166 614 OFFCURVE",
"280 614 CURVE SMOOTH",
"393 614 OFFCURVE",
"450 574 OFFCURVE",
"450 495 CURVE SMOOTH",
"450 430 OFFCURVE",
"410 393 OFFCURVE",
"329 370 CURVE",
"219 370 LINE"
);
}
);
width = 560;
},
{
layerId = "0596A6ED-150F-4F1F-BF1E-4449A7B9DE21";
paths = (
{
closed = 1;
nodes = (
"445 -10 OFFCURVE",
"527 53 OFFCURVE",
"527 179 CURVE SMOOTH",
"527 279 OFFCURVE",
"475 320 OFFCURVE",
"372 359 CURVE",
"368 329 LINE",
"478 372 OFFCURVE",
"517 404 OFFCURVE",
"517 499 CURVE SMOOTH",
"517 612 OFFCURVE",
"425 671 OFFCURVE",
"278 671 CURVE SMOOTH",
"146 671 OFFCURVE",
"43 623 OFFCURVE",
"43 500 CURVE SMOOTH",
"43 409 OFFCURVE",
"84 370 OFFCURVE",
"181 329 CURVE",
"180 363 LINE",
"77 311 OFFCURVE",
"32 276 OFFCURVE",
"32 168 CURVE SMOOTH",
"32 49 OFFCURVE",
"115 -10 OFFCURVE",
"280 -10 CURVE SMOOTH"
);
},
{
closed = 1;
nodes = (
"169 60 OFFCURVE",
"114 100 OFFCURVE",
"114 181 CURVE SMOOTH",
"114 252 OFFCURVE",
"150 288 OFFCURVE",
"223 308 CURVE",
"328 308 LINE",
"405 285 OFFCURVE",
"445 258 OFFCURVE",
"445 187 CURVE SMOOTH",
"445 102 OFFCURVE",
"390 60 OFFCURVE",
"280 60 CURVE SMOOTH"
);
},
{
closed = 1;
nodes = (
"156 399 OFFCURVE",
"125 432 OFFCURVE",
"125 491 CURVE SMOOTH",
"125 564 OFFCURVE",
"177 601 OFFCURVE",
"280 601 CURVE SMOOTH",
"383 601 OFFCURVE",
"435 564 OFFCURVE",
"435 490 CURVE SMOOTH",
"435 431 OFFCURVE",
"400 398 OFFCURVE",
"328 375 CURVE",
"223 375 LINE"
);
}
);
width = 560;
},
{
layerId = "1FB77202-83CB-408E-8929-4AFC59A3446D";
paths = (
{
closed = 1;
nodes = (
"429 -12 OFFCURVE",
"531 48 OFFCURVE",
"531 179 CURVE SMOOTH",
"531 268 OFFCURVE",
"500 301 OFFCURVE",
"418 365 CURVE",
"415 314 LINE",
"503 379 OFFCURVE",
"521 401 OFFCURVE",
"521 491 CURVE SMOOTH",
"521 604 OFFCURVE",
"423 672 OFFCURVE",
"278 672 CURVE SMOOTH",
"145 672 OFFCURVE",
"39 615 OFFCURVE",
"39 492 CURVE SMOOTH",
"39 409 OFFCURVE",
"61 374 OFFCURVE",
"143 316 CURVE",
"140 363 LINE",
"60 301 OFFCURVE",
"28 266 OFFCURVE",
"28 168 CURVE SMOOTH",
"28 48 OFFCURVE",
"111 -12 OFFCURVE",
"278 -12 CURVE SMOOTH"
);
},
{
closed = 1;
nodes = (
"211 112 OFFCURVE",
"176 141 OFFCURVE",
"176 200 CURVE SMOOTH",
"176 235 OFFCURVE",
"196 260 OFFCURVE",
"236 275 CURVE",
"324 275 LINE",
"363 260 OFFCURVE",
"383 235 OFFCURVE",
"383 200 CURVE SMOOTH",
"383 141 OFFCURVE",
"349 112 OFFCURVE",
"280 112 CURVE SMOOTH"
);
},
{
closed = 1;
nodes = (
"203 415 OFFCURVE",
"187 440 OFFCURVE",
"187 467 CURVE SMOOTH",
"187 522 OFFCURVE",
"220 548 OFFCURVE",
"280 548 CURVE SMOOTH",
"342 548 OFFCURVE",
"373 522 OFFCURVE",
"373 470 CURVE SMOOTH",
"373 441 OFFCURVE",
"357 415 OFFCURVE",
"324 392 CURVE",
"236 392 LINE"
);
}
);
width = 560;
}
);
unicode = 0038;
},
{
glyphname = nine;
lastChange = "2017-03-26 19:29:28 +0000";
layers = (
{
layerId = "8FFE84BD-9390-4D75-BABD-68166BF44E93";
paths = (
{
closed = 1;
nodes = (
"418 -10 OFFCURVE",
"505 85 OFFCURVE",
"505 316 CURVE SMOOTH",
"505 547 OFFCURVE",
"429 670 OFFCURVE",
"270 670 CURVE SMOOTH",
"133 670 OFFCURVE",
"44 584 OFFCURVE",
"44 451 CURVE SMOOTH",
"44 318 OFFCURVE",
"115 252 OFFCURVE",
"258 252 CURVE SMOOTH",
"313 252 OFFCURVE",
"358 263 OFFCURVE",
"475 304 CURVE",
"475 359 LINE",
"395 330 OFFCURVE",
"319 307 OFFCURVE",
"262 307 CURVE SMOOTH",
"159 307 OFFCURVE",
"108 355 OFFCURVE",
"108 451 CURVE SMOOTH",
"108 551 OFFCURVE",
"170 614 OFFCURVE",
"270 614 CURVE SMOOTH",
"390 614 OFFCURVE",
"448 509 OFFCURVE",
"442 300 CURVE",
"440 336 LINE",
"450 143 OFFCURVE",
"387 46 OFFCURVE",
"254 46 CURVE SMOOTH",
"193 46 OFFCURVE",
"134 50 OFFCURVE",
"76 57 CURVE",
"70 6 LINE",
"144 -6 OFFCURVE",
"194 -10 OFFCURVE",
"247 -10 CURVE SMOOTH"
);
}
);
width = 560;
},
{
layerId = "0596A6ED-150F-4F1F-BF1E-4449A7B9DE21";
paths = (
{
closed = 1;
nodes = (
"419 -10 OFFCURVE",
"509 86 OFFCURVE",
"509 318 CURVE SMOOTH",
"509 549 OFFCURVE",
"431 670 OFFCURVE",
"270 670 CURVE SMOOTH",
"130 670 OFFCURVE",
"41 586 OFFCURVE",
"41 451 CURVE SMOOTH",
"41 317 OFFCURVE",
"113 250 OFFCURVE",
"257 250 CURVE SMOOTH",
"313 250 OFFCURVE",
"382 268 OFFCURVE",
"464 302 CURVE",
"473 369 LINE",
"369 332 OFFCURVE",
"316 318 OFFCURVE",
"263 318 CURVE SMOOTH",
"168 318 OFFCURVE",
"121 362 OFFCURVE",
"121 451 CURVE SMOOTH",
"121 544 OFFCURVE",
"177 602 OFFCURVE",
"270 602 CURVE SMOOTH",
"384 602 OFFCURVE",
"437 503 OFFCURVE",
"429 307 CURVE",
"428 331 LINE",
"439 149 OFFCURVE",
"379 58 OFFCURVE",
"247 58 CURVE SMOOTH",
"191 58 OFFCURVE",
"133 62 OFFCURVE",
"73 70 CURVE",
"66 8 LINE",
"142 -5 OFFCURVE",
"194 -10 OFFCURVE",
"247 -10 CURVE SMOOTH"
);
}
);
width = 560;
},
{
layerId = "1FB77202-83CB-408E-8929-4AFC59A3446D";
paths = (
{
closed = 1;
nodes = (
"428 -12 OFFCURVE",
"523 88 OFFCURVE",
"523 321 CURVE SMOOTH",
"523 553 OFFCURVE",
"437 672 OFFCURVE",
"278 672 CURVE SMOOTH",
"118 672 OFFCURVE",
"28 590 OFFCURVE",
"28 451 CURVE SMOOTH",
"28 311 OFFCURVE",
"110 240 OFFCURVE",
"255 240 CURVE SMOOTH",
"288 240 OFFCURVE",
"334 254 OFFCURVE",
"430 286 CURVE",
"422 397 LINE",
"351 371 OFFCURVE",
"310 360 OFFCURVE",
"267 360 CURVE SMOOTH",
"202 360 OFFCURVE",
"170 390 OFFCURVE",
"170 451 CURVE SMOOTH",
"170 515 OFFCURVE",
"206 552 OFFCURVE",
"270 552 CURVE SMOOTH",
"355 552 OFFCURVE",
"391 480 OFFCURVE",
"380 336 CURVE SMOOTH",
"379 313 LINE",
"391 176 OFFCURVE",
"348 108 OFFCURVE",
"248 108 CURVE SMOOTH",
"192 108 OFFCURVE",
"130 113 OFFCURVE",
"62 123 CURVE",
"50 17 LINE",
"137 -4 OFFCURVE",
"193 -12 OFFCURVE",
"248 -12 CURVE SMOOTH"
);
}
);
width = 560;
}
);
unicode = 0039;
},
{
glyphname = fraction;
lastChange = "2017-03-26 19:30:44 +0000";
layers = (
{
layerId = "8FFE84BD-9390-4D75-BABD-68166BF44E93";
paths = (
{
closed = 1;
nodes = (
"204 636 LINE",
"168 659 LINE",
"-224 28 LINE",
"-188 6 LINE"
);
}
);
width = 0;
},
{
layerId = "0596A6ED-150F-4F1F-BF1E-4449A7B9DE21";
paths = (
{
closed = 1;
nodes = (
"208 634 LINE",
"168 660 LINE",
"-224 28 LINE",
"-185 3 LINE"
);
}
);
width = 0;
},
{
layerId = "1FB77202-83CB-408E-8929-4AFC59A3446D";
paths = (
{
closed = 1;
nodes = (
"222 626 LINE",
"169 661 LINE",
"-224 29 LINE",
"-171 -7 LINE"
);
}
);
width = 10;
}
);
unicode = 2044;
},
{
glyphname = asterisk;
lastChange = "2017-03-26 19:30:36 +0000";
layers = (
{
layerId = "8FFE84BD-9390-4D75-BABD-68166BF44E93";
paths = (
{
closed = 1;
nodes = (
"276 387 LINE",
"235 514 LINE",
"369 514 LINE",
"369 558 LINE",
"237 558 LINE",
"278 686 LINE",
"235 700 LINE",
"194 573 LINE",
"86 652 LINE",
"59 616 LINE",
"167 537 LINE",
"58 458 LINE",
"84 423 LINE",
"192 502 LINE",
"234 374 LINE"
);
}
);
width = 419;
},
{
layerId = "0596A6ED-150F-4F1F-BF1E-4449A7B9DE21";
paths = (
{
closed = 1;
nodes = (
"282 386 LINE",
"241 511 LINE",
"373 511 LINE",
"373 561 LINE",
"243 561 LINE",
"283 688 LINE",
"234 704 LINE",
"193 578 LINE",
"87 656 LINE",
"56 614 LINE",
"162 537 LINE",
"54 458 LINE",
"85 418 LINE",
"192 497 LINE",
"233 371 LINE"
);
}
);
width = 420;
},
{
layerId = "1FB77202-83CB-408E-8929-4AFC59A3446D";
paths = (
{
closed = 1;
nodes = (
"304 379 LINE",
"266 499 LINE",
"389 499 LINE",
"389 573 LINE",
"266 573 LINE",
"304 695 LINE",
"229 720 LINE",
"190 599 LINE",
"89 672 LINE",
"43 609 LINE",
"145 536 LINE",
"40 458 LINE",
"87 399 LINE",
"190 478 LINE",
"231 357 LINE"
);
}
);
width = 425;
}
);
unicode = 002A;
},
{
glyphname = backslash;
lastChange = "2017-03-26 19:30:50 +0000";
layers = (
{
layerId = "8FFE84BD-9390-4D75-BABD-68166BF44E93";
paths = (
{
closed = 1;
nodes = (
"390 14 LINE",
"84 705 LINE",
"30 681 LINE",
"335 -9 LINE"
);
}
);
width = 421;
},
{
layerId = "0596A6ED-150F-4F1F-BF1E-4449A7B9DE21";
paths = (
{
closed = 1;
nodes = (
"405 14 LINE",
"97 707 LINE",
"30 678 LINE",
"338 -14 LINE"
);
}
);
width = 436;
},
{
layerId = "1FB77202-83CB-408E-8929-4AFC59A3446D";
paths = (
{
closed = 1;
nodes = (
"466 13 LINE",
"146 716 LINE",
"32 664 LINE",
"350 -36 LINE"
);
}
);
width = 498;
}
);
unicode = 005C;
},
{
glyphname = periodcentered;
lastChange = "2017-03-26 19:30:55 +0000";
layers = (
{
layerId = "8FFE84BD-9390-4D75-BABD-68166BF44E93";
paths = (
{
closed = 1;
nodes = (
"137 244 LINE",
"137 345 LINE",
"71 345 LINE",
"71 244 LINE"
);
}
);
width = 207;
},
{
layerId = "0596A6ED-150F-4F1F-BF1E-4449A7B9DE21";
paths = (
{
closed = 1;
nodes = (
"150 229 LINE",
"150 343 LINE",
"68 343 LINE",
"68 229 LINE"
);
}
);
width = 217;
},
{
layerId = "1FB77202-83CB-408E-8929-4AFC59A3446D";
paths = (
{
closed = 1;
nodes = (
"200 167 LINE",
"200 333 LINE",
"56 333 LINE",
"56 167 LINE"
);
}
);
width = 256;
}
);
unicode = 00B7;
},
{
glyphname = bullet;
lastChange = "2017-03-26 19:31:00 +0000";
layers = (
{
layerId = "8FFE84BD-9390-4D75-BABD-68166BF44E93";
paths = (
{
closed = 1;
nodes = (
"364 107 LINE",
"364 395 LINE",
"114 395 LINE",
"114 107 LINE"
);
}
);
width = 478;
},
{
layerId = "0596A6ED-150F-4F1F-BF1E-4449A7B9DE21";
paths = (
{
closed = 1;
nodes = (
"361 106 LINE",
"361 392 LINE",
"111 392 LINE",
"111 106 LINE"
);
}
);
width = 473;
},
{
layerId = "1FB77202-83CB-408E-8929-4AFC59A3446D";
paths = (
{
closed = 1;
nodes = (
"350 100 LINE",
"350 380 LINE",
"100 380 LINE",
"100 100 LINE"
);
}
);
width = 450;
}
);
unicode = 2022;
},
{
glyphname = colon;
lastChange = "2017-03-26 19:31:06 +0000";
layers = (
{
layerId = "8FFE84BD-9390-4D75-BABD-68166BF44E93";
paths = (
{
closed = 1;
nodes = (
"136 330 LINE",
"136 432 LINE",
"70 432 LINE",
"70 330 LINE"
);
},
{
closed = 1;
nodes = (
"136 0 LINE",
"136 101 LINE",
"70 101 LINE",
"70 0 LINE"
);
}
);
width = 207;
},
{
layerId = "0596A6ED-150F-4F1F-BF1E-4449A7B9DE21";
paths = (
{
closed = 1;
nodes = (
"149 322 LINE",
"149 436 LINE",
"67 436 LINE",
"67 322 LINE"
);
},
{
closed = 1;
nodes = (
"149 0 LINE",
"149 114 LINE",
"67 114 LINE",
"67 0 LINE"
);
}
);
width = 217;
},
{
layerId = "1FB77202-83CB-408E-8929-4AFC59A3446D";
paths = (
{
closed = 1;
nodes = (
"200 289 LINE",
"200 455 LINE",
"56 455 LINE",
"56 289 LINE"
);
},
{
closed = 1;
nodes = (
"200 0 LINE",
"200 166 LINE",
"56 166 LINE",
"56 0 LINE"
);
}
);
width = 256;
}
);
unicode = 003A;
},
{
glyphname = comma;
lastChange = "2017-03-26 19:31:11 +0000";
layers = (
{
layerId = "8FFE84BD-9390-4D75-BABD-68166BF44E93";
paths = (
{
closed = 1;
nodes = (
"88 -123 LINE",
"149 99 LINE",
"82 99 LINE",
"38 -123 LINE"
);
}
);
width = 213;
},
{
layerId = "0596A6ED-150F-4F1F-BF1E-4449A7B9DE21";
paths = (
{
closed = 1;
nodes = (
"96 -123 LINE",
"163 107 LINE",
"80 107 LINE",
"34 -123 LINE"
);
}
);
width = 223;
},
{
layerId = "1FB77202-83CB-408E-8929-4AFC59A3446D";
paths = (
{
closed = 1;
nodes = (
"128 -123 LINE",
"218 137 LINE",
"70 137 LINE",
"20 -123 LINE"
);
}
);
width = 263;
}
);
unicode = 002C;
},
{
glyphname = ellipsis;
lastChange = "2017-03-26 19:31:16 +0000";
layers = (
{
layerId = "8FFE84BD-9390-4D75-BABD-68166BF44E93";
paths = (
{
closed = 1;
nodes = (
"645 0 LINE",
"645 101 LINE",
"579 101 LINE",
"579 0 LINE"
);
},
{
closed = 1;
nodes = (
"136 0 LINE",
"136 101 LINE",
"70 101 LINE",
"70 0 LINE"
);
},
{
closed = 1;
nodes = (
"390 0 LINE",
"390 101 LINE",
"324 101 LINE",
"324 0 LINE"
);
}
);
width = 715;
},
{
layerId = "0596A6ED-150F-4F1F-BF1E-4449A7B9DE21";
paths = (
{
closed = 1;
nodes = (
"658 0 LINE",
"658 114 LINE",
"576 114 LINE",
"576 0 LINE"
);
},
{
closed = 1;
nodes = (
"149 0 LINE",
"149 114 LINE",
"67 114 LINE",
"67 0 LINE"
);
},
{
closed = 1;
nodes = (
"403 0 LINE",
"403 114 LINE",
"322 114 LINE",
"322 0 LINE"
);
}
);
width = 725;
},
{
layerId = "1FB77202-83CB-408E-8929-4AFC59A3446D";
paths = (
{
closed = 1;
nodes = (
"710 0 LINE",
"710 166 LINE",
"566 166 LINE",
"566 0 LINE"
);
},
{
closed = 1;
nodes = (
"200 0 LINE",
"200 166 LINE",
"56 166 LINE",
"56 0 LINE"
);
},
{
closed = 1;
nodes = (
"455 0 LINE",
"455 166 LINE",
"311 166 LINE",
"311 0 LINE"
);
}
);
width = 766;
}
);
unicode = 2026;
},
{
glyphname = exclam;
lastChange = "2017-03-26 19:31:23 +0000";
layers = (
{
layerId = "8FFE84BD-9390-4D75-BABD-68166BF44E93";
paths = (
{
closed = 1;
nodes = (
"147 223 LINE",
"151 695 LINE",
"88 695 LINE",
"91 223 LINE"
);
},
{
closed = 1;
nodes = (
"153 0 LINE",
"153 100 LINE",
"87 100 LINE",
"87 0 LINE"
);
}
);
width = 239;
},
{
layerId = "0596A6ED-150F-4F1F-BF1E-4449A7B9DE21";
paths = (
{
closed = 1;
nodes = (
"158 228 LINE",
"163 692 LINE",
"84 692 LINE",
"89 228 LINE"
);
},
{
closed = 1;
nodes = (
"165 0 LINE",
"165 112 LINE",
"83 112 LINE",
"83 0 LINE"
);
}
);
width = 247;
},
{
layerId = "1FB77202-83CB-408E-8929-4AFC59A3446D";
paths = (
{
closed = 1;
nodes = (
"199 250 LINE",
"213 680 LINE",
"68 680 LINE",
"81 250 LINE"
);
},
{
closed = 1;
nodes = (
"212 0 LINE",
"212 161 LINE",
"68 161 LINE",
"68 0 LINE"
);
}
);
width = 280;
}
);
unicode = 0021;
},
{
glyphname = exclamdown;
lastChange = "2017-03-26 19:31:29 +0000";
layers = (
{
layerId = "8FFE84BD-9390-4D75-BABD-68166BF44E93";
paths = (
{
closed = 1;
nodes = (
"140 -195 LINE",
"137 277 LINE",
"81 277 LINE",
"77 -195 LINE"
);
},
{
closed = 1;
nodes = (
"141 400 LINE",
"141 500 LINE",
"75 500 LINE",
"75 400 LINE"
);
}
);
width = 219;
},
{
layerId = "0596A6ED-150F-4F1F-BF1E-4449A7B9DE21";
paths = (
{
closed = 1;
nodes = (
"153 -192 LINE",
"148 272 LINE",
"79 272 LINE",
"74 -192 LINE"
);
},
{
closed = 1;
nodes = (
"154 388 LINE",
"154 500 LINE",
"72 500 LINE",
"72 388 LINE"
);
}
);
width = 228;
},
{
layerId = "1FB77202-83CB-408E-8929-4AFC59A3446D";
paths = (
{
closed = 1;
nodes = (
"204 -180 LINE",
"191 250 LINE",
"73 250 LINE",
"59 -180 LINE"
);
},
{
closed = 1;
nodes = (
"204 339 LINE",
"204 500 LINE",
"60 500 LINE",
"60 339 LINE"
);
}
);
width = 264;
}
);
unicode = 00A1;
},
{
glyphname = numbersign;
lastChange = "2017-03-26 19:31:35 +0000";
layers = (
{
layerId = "8FFE84BD-9390-4D75-BABD-68166BF44E93";
paths = (
{
closed = 1;
nodes = (
"196 0 LINE",
"196 180 LINE",
"363 180 LINE",
"363 0 LINE",
"419 0 LINE",
"419 180 LINE",
"533 180 LINE",
"533 232 LINE",
"419 232 LINE",
"419 433 LINE",
"533 433 LINE",
"533 485 LINE",
"419 485 LINE",
"419 667 LINE",
"363 667 LINE",
"363 485 LINE",
"196 485 LINE",
"196 667 LINE",
"140 667 LINE",
"140 485 LINE",
"26 485 LINE",
"26 433 LINE",
"140 433 LINE",
"140 232 LINE",
"26 232 LINE",
"26 180 LINE",
"140 180 LINE",
"140 0 LINE"
);
},
{
closed = 1;
nodes = (
"196 433 LINE",
"363 433 LINE",
"363 232 LINE",
"196 232 LINE"
);
}
);
width = 560;
},
{
layerId = "0596A6ED-150F-4F1F-BF1E-4449A7B9DE21";
paths = (
{
closed = 1;
nodes = (
"203 0 LINE",
"203 174 LINE",
"357 174 LINE",
"357 0 LINE",
"425 0 LINE",
"425 174 LINE",
"536 174 LINE",
"536 238 LINE",
"425 238 LINE",
"425 424 LINE",
"536 424 LINE",
"536 488 LINE",
"425 488 LINE",
"425 666 LINE",
"357 666 LINE",
"357 488 LINE",
"203 488 LINE",
"203 666 LINE",
"135 666 LINE",
"135 488 LINE",
"24 488 LINE",
"24 424 LINE",
"135 424 LINE",
"135 238 LINE",
"24 238 LINE",
"24 174 LINE",
"135 174 LINE",
"135 0 LINE"
);
},
{
closed = 1;
nodes = (
"203 424 LINE",
"357 424 LINE",
"357 238 LINE",
"203 238 LINE"
);
}
);
width = 560;
},
{
layerId = "1FB77202-83CB-408E-8929-4AFC59A3446D";
paths = (
{
closed = 1;
nodes = (
"228 0 LINE",
"228 149 LINE",
"332 149 LINE",
"332 0 LINE",
"448 0 LINE",
"448 149 LINE",
"544 149 LINE",
"544 261 LINE",
"448 261 LINE",
"448 387 LINE",
"544 387 LINE",
"544 499 LINE",
"448 499 LINE",
"448 660 LINE",
"332 660 LINE",
"332 499 LINE",
"228 499 LINE",
"228 660 LINE",
"112 660 LINE",
"112 499 LINE",
"16 499 LINE",
"16 387 LINE",
"112 387 LINE",
"112 261 LINE",
"16 261 LINE",
"16 149 LINE",
"112 149 LINE",
"112 0 LINE"
);
},
{
closed = 1;
nodes = (
"228 387 LINE",
"332 387 LINE",
"332 261 LINE",
"228 261 LINE"
);
}
);
width = 560;
}
);
unicode = 0023;
},
{
glyphname = period;
lastChange = "2017-03-26 19:31:40 +0000";
layers = (
{
layerId = "8FFE84BD-9390-4D75-BABD-68166BF44E93";
paths = (
{
closed = 1;
nodes = (
"136 0 LINE",
"136 101 LINE",
"70 101 LINE",
"70 0 LINE"
);
}
);
width = 206;
},
{
layerId = "0596A6ED-150F-4F1F-BF1E-4449A7B9DE21";
paths = (
{
closed = 1;
nodes = (
"149 0 LINE",
"149 114 LINE",
"67 114 LINE",
"67 0 LINE"
);
}
);
width = 216;
},
{
layerId = "1FB77202-83CB-408E-8929-4AFC59A3446D";
paths = (
{
closed = 1;
nodes = (
"200 0 LINE",
"200 166 LINE",
"56 166 LINE",
"56 0 LINE"
);
}
);
width = 256;
}
);
unicode = 002E;
},
{
glyphname = question;
lastChange = "2017-03-26 19:33:16 +0000";
layers = (
{
layerId = "8FFE84BD-9390-4D75-BABD-68166BF44E93";
paths = (
{
closed = 1;
nodes = (
"218 197 LINE",
"218 233 LINE SMOOTH",
"218 281 OFFCURVE",
"245 307 OFFCURVE",
"316 369 CURVE SMOOTH",
"373 419 OFFCURVE",
"406 450 OFFCURVE",
"406 534 CURVE SMOOTH",
"406 653 OFFCURVE",
"340 706 OFFCURVE",
"222 706 CURVE SMOOTH",
"168 706 OFFCURVE",
"109 695 OFFCURVE",
"38 676 CURVE",
"44 625 LINE",
"124 644 OFFCURVE",
"160 650 OFFCURVE",
"202 650 CURVE SMOOTH",
"322 650 OFFCURVE",
"345 602 OFFCURVE",
"345 539 CURVE SMOOTH",
"345 473 OFFCURVE",
"319 450 OFFCURVE",
"259 397 CURVE SMOOTH",
"188 334 OFFCURVE",
"157 301 OFFCURVE",
"157 251 CURVE SMOOTH",
"157 235 OFFCURVE",
"160 214 OFFCURVE",
"166 197 CURVE"
);
},
{
closed = 1;
nodes = (
"224 1 LINE",
"224 101 LINE",
"158 101 LINE",
"158 1 LINE"
);
}
);
width = 449;
},
{
layerId = "0596A6ED-150F-4F1F-BF1E-4449A7B9DE21";
paths = (
{
closed = 1;
nodes = (
"224 201 LINE",
"224 236 LINE SMOOTH",
"224 282 OFFCURVE",
"247 305 OFFCURVE",
"318 366 CURVE SMOOTH",
"375 415 OFFCURVE",
"406 445 OFFCURVE",
"406 529 CURVE SMOOTH",
"406 651 OFFCURVE",
"341 703 OFFCURVE",
"220 703 CURVE SMOOTH",
"165 703 OFFCURVE",
"104 692 OFFCURVE",
"37 672 CURVE",
"42 611 LINE",
"125 628 OFFCURVE",
"165 634 OFFCURVE",
"204 634 CURVE SMOOTH",
"292 634 OFFCURVE",
"330 604 OFFCURVE",
"330 534 CURVE SMOOTH",
"330 477 OFFCURVE",
"305 452 OFFCURVE",
"245 399 CURVE SMOOTH",
"175 337 OFFCURVE",
"148 309 OFFCURVE",
"148 259 CURVE SMOOTH",
"148 240 OFFCURVE",
"152 219 OFFCURVE",
"161 201 CURVE"
);
},
{
closed = 1;
nodes = (
"232 1 LINE",
"232 113 LINE",
"150 113 LINE",
"150 1 LINE"
);
}
);
width = 447;
},
{
layerId = "1FB77202-83CB-408E-8929-4AFC59A3446D";
paths = (
{
closed = 1;
nodes = (
"248 217 LINE",
"248 248 LINE SMOOTH",
"248 289 OFFCURVE",
"275 313 OFFCURVE",
"324 350 CURVE SMOOTH",
"391 400 OFFCURVE",
"405 432 OFFCURVE",
"405 536 CURVE SMOOTH",
"405 640 OFFCURVE",
"340 692 OFFCURVE",
"212 692 CURVE SMOOTH",
"148 692 OFFCURVE",
"87 680 OFFCURVE",
"30 657 CURVE",
"37 556 LINE",
"101 568 OFFCURVE",
"140 572 OFFCURVE",
"181 572 CURVE SMOOTH",
"238 572 OFFCURVE",
"266 552 OFFCURVE",
"266 513 CURVE SMOOTH",
"266 467 OFFCURVE",
"234 443 OFFCURVE",
"174 395 CURVE SMOOTH",
"131 361 OFFCURVE",
"110 332 OFFCURVE",
"110 308 CURVE SMOOTH",
"110 270 OFFCURVE",
"120 240 OFFCURVE",
"141 217 CURVE"
);
},
{
closed = 1;
nodes = (
"263 0 LINE",
"263 161 LINE",
"119 161 LINE",
"119 0 LINE"
);
}
);
width = 437;
}
);
unicode = 003F;
},
{
glyphname = quotedbl;
lastChange = "2017-03-26 19:34:20 +0000";
layers = (
{
layerId = "8FFE84BD-9390-4D75-BABD-68166BF44E93";
paths = (
{
closed = 1;
nodes = (
"291 477 LINE",
"295 695 LINE",
"233 695 LINE",
"236 477 LINE"
);
},
{
closed = 1;
nodes = (
"127 477 LINE",
"131 695 LINE",
"69 695 LINE",
"73 477 LINE"
);
}
);
width = 364;
},
{
layerId = "0596A6ED-150F-4F1F-BF1E-4449A7B9DE21";
paths = (
{
closed = 1;
nodes = (
"303 470 LINE",
"307 692 LINE",
"232 692 LINE",
"236 470 LINE"
);
},
{
closed = 1;
nodes = (
"137 470 LINE",
"141 692 LINE",
"66 692 LINE",
"70 470 LINE"
);
}
);
width = 373;
},
{
layerId = "1FB77202-83CB-408E-8929-4AFC59A3446D";
paths = (
{
closed = 1;
nodes = (
"357 440 LINE",
"364 680 LINE",
"235 680 LINE",
"239 440 LINE"
);
},
{
closed = 1;
nodes = (
"178 440 LINE",
"184 680 LINE",
"55 680 LINE",
"60 440 LINE"
);
}
);
width = 411;
}
);
unicode = 0022;
},
{
glyphname = quotesingle;
lastChange = "2017-03-26 19:34:31 +0000";
layers = (
{
layerId = "8FFE84BD-9390-4D75-BABD-68166BF44E93";
paths = (
{
closed = 1;
nodes = (
"126 477 LINE",
"132 695 LINE",
"69 695 LINE",
"72 477 LINE"
);
}
);
width = 200;
},
{
layerId = "0596A6ED-150F-4F1F-BF1E-4449A7B9DE21";
paths = (
{
closed = 1;
nodes = (
"137 470 LINE",
"142 692 LINE",
"67 692 LINE",
"70 470 LINE"
);
}
);
width = 208;
},
{
layerId = "1FB77202-83CB-408E-8929-4AFC59A3446D";
paths = (
{
closed = 1;
nodes = (
"178 440 LINE",
"185 680 LINE",
"56 680 LINE",
"60 440 LINE"
);
}
);
width = 239;
}
);
unicode = 0027;
},
{
glyphname = semicolon;
lastChange = "2017-03-26 19:34:36 +0000";
layers = (
{
layerId = "8FFE84BD-9390-4D75-BABD-68166BF44E93";
paths = (
{
closed = 1;
nodes = (
"103 -123 LINE",
"165 99 LINE",
"96 99 LINE",
"53 -123 LINE"
);
},
{
closed = 1;
nodes = (
"158 330 LINE",
"158 432 LINE",
"92 432 LINE",
"92 330 LINE"
);
}
);
width = 241;
},
{
layerId = "0596A6ED-150F-4F1F-BF1E-4449A7B9DE21";
paths = (
{
closed = 1;
nodes = (
"110 -123 LINE",
"177 107 LINE",
"93 107 LINE",
"48 -123 LINE"
);
},
{
closed = 1;
nodes = (
"169 322 LINE",
"169 436 LINE",
"88 436 LINE",
"88 322 LINE"
);
}
);
width = 248;
},
{
layerId = "1FB77202-83CB-408E-8929-4AFC59A3446D";
paths = (
{
closed = 1;
nodes = (
"135 -123 LINE",
"225 137 LINE",
"77 137 LINE",
"27 -123 LINE"
);
},
{
closed = 1;
nodes = (
"213 289 LINE",
"213 455 LINE",
"69 455 LINE",
"69 289 LINE"
);
}
);
width = 279;
}
);
unicode = 003B;
},
{
glyphname = slash;
lastChange = "2017-03-26 19:34:41 +0000";
layers = (
{
layerId = "8FFE84BD-9390-4D75-BABD-68166BF44E93";
paths = (
{
closed = 1;
nodes = (
"366 685 LINE",
"312 706 LINE",
"32 11 LINE",
"87 -9 LINE"
);
}
);
width = 398;
},
{
layerId = "0596A6ED-150F-4F1F-BF1E-4449A7B9DE21";
paths = (
{
closed = 1;
nodes = (
"381 683 LINE",
"314 708 LINE",
"32 10 LINE",
"99 -14 LINE"
);
}
);
width = 412;
},
{
layerId = "1FB77202-83CB-408E-8929-4AFC59A3446D";
paths = (
{
closed = 1;
nodes = (
"437 676 LINE",
"319 718 LINE",
"31 8 LINE",
"149 -34 LINE"
);
}
);
width = 466;
}
);
unicode = 002F;
},
{
glyphname = underscore;
lastChange = "2017-03-26 19:34:46 +0000";
layers = (
{
layerId = "8FFE84BD-9390-4D75-BABD-68166BF44E93";
paths = (
{
closed = 1;
nodes = (
"531 -150 LINE",
"531 -96 LINE",
"103 -96 LINE",
"103 -150 LINE"
);
}
);
width = 635;
},
{
layerId = "0596A6ED-150F-4F1F-BF1E-4449A7B9DE21";
paths = (
{
closed = 1;
nodes = (
"530 -158 LINE",
"530 -92 LINE",
"102 -92 LINE",
"102 -158 LINE"
);
}
);
width = 632;
},
{
layerId = "1FB77202-83CB-408E-8929-4AFC59A3446D";
paths = (
{
closed = 1;
nodes = (
"524 -187 LINE",
"524 -73 LINE",
"96 -73 LINE",
"96 -187 LINE"
);
}
);
width = 620;
}
);
unicode = 005F;
},
{
glyphname = periodcentered.cap;
lastChange = "2017-03-26 19:34:53 +0000";
layers = (
{
layerId = "8FFE84BD-9390-4D75-BABD-68166BF44E93";
paths = (
{
closed = 1;
nodes = (
"136 286 LINE",
"136 387 LINE",
"70 387 LINE",
"70 286 LINE"
);
}
);
width = 206;
},
{
layerId = "0596A6ED-150F-4F1F-BF1E-4449A7B9DE21";
paths = (
{
closed = 1;
nodes = (
"149 278 LINE",
"149 392 LINE",
"67 392 LINE",
"67 278 LINE"
);
}
);
width = 216;
},
{
layerId = "1FB77202-83CB-408E-8929-4AFC59A3446D";
paths = (
{
closed = 1;
nodes = (
"200 245 LINE",
"200 411 LINE",
"56 411 LINE",
"56 245 LINE"
);
}
);
width = 256;
}
);
},
{
glyphname = braceleft;
lastChange = "2017-03-26 19:36:35 +0000";
layers = (
{
layerId = "8FFE84BD-9390-4D75-BABD-68166BF44E93";
paths = (
{
closed = 1;
nodes = (
"309 -74 LINE",
"213 -69 OFFCURVE",
"184 -30 OFFCURVE",
"184 53 CURVE",
"191 170 LINE",
"191 267 OFFCURVE",
"159 297 OFFCURVE",
"46 323 CURVE",
"46 301 LINE",
"159 327 OFFCURVE",
"190 355 OFFCURVE",
"190 453 CURVE",
"183 574 LINE",
"183 657 OFFCURVE",
"213 696 OFFCURVE",
"309 701 CURVE",
"308 753 LINE",
"176 748 OFFCURVE",
"125 698 OFFCURVE",
"125 577 CURVE",
"132 449 LINE",
"132 388 OFFCURVE",
"102 353 OFFCURVE",
"26 336 CURVE",
"26 286 LINE",
"102 265 OFFCURVE",
"132 231 OFFCURVE",
"132 172 CURVE",
"125 49 LINE",
"125 -71 OFFCURVE",
"175 -122 OFFCURVE",
"307 -127 CURVE"
);
}
);
width = 350;
},
{
layerId = "0596A6ED-150F-4F1F-BF1E-4449A7B9DE21";
paths = (
{
closed = 1;
nodes = (
"312 -63 LINE",
"224 -58 OFFCURVE",
"197 -21 OFFCURVE",
"197 54 CURVE",
"204 170 LINE",
"204 267 OFFCURVE",
"172 297 OFFCURVE",
"58 322 CURVE",
"56 301 LINE",
"175 328 OFFCURVE",
"204 354 OFFCURVE",
"204 452 CURVE",
"197 575 LINE",
"197 650 OFFCURVE",
"224 685 OFFCURVE",
"312 690 CURVE",
"311 755 LINE",
"175 750 OFFCURVE",
"124 702 OFFCURVE",
"124 579 CURVE",
"131 451 LINE",
"131 394 OFFCURVE",
"100 359 OFFCURVE",
"24 342 CURVE",
"24 281 LINE",
"100 260 OFFCURVE",
"131 226 OFFCURVE",
"131 169 CURVE",
"124 47 LINE",
"124 -73 OFFCURVE",
"175 -123 OFFCURVE",
"310 -128 CURVE"
);
}
);
width = 352;
},
{
layerId = "1FB77202-83CB-408E-8929-4AFC59A3446D";
paths = (
{
closed = 1;
nodes = (
"323 -20 LINE",
"267 -16 OFFCURVE",
"252 10 OFFCURVE",
"252 55 CURVE",
"259 172 LINE",
"259 270 OFFCURVE",
"233 300 OFFCURVE",
"100 324 CURVE",
"97 304 LINE",
"235 330 OFFCURVE",
"258 351 OFFCURVE",
"258 448 CURVE",
"251 576 LINE",
"251 620 OFFCURVE",
"268 642 OFFCURVE",
"325 647 CURVE",
"325 761 LINE",
"174 756 OFFCURVE",
"121 713 OFFCURVE",
"121 586 CURVE",
"128 459 LINE",
"128 414 OFFCURVE",
"91 382 OFFCURVE",
"16 365 CURVE",
"16 261 LINE",
"91 242 OFFCURVE",
"128 208 OFFCURVE",
"128 159 CURVE",
"121 38 LINE",
"121 -82 OFFCURVE",
"175 -129 OFFCURVE",
"323 -134 CURVE"
);
}
);
width = 361;
}
);
unicode = 007B;
},
{
glyphname = bracketleft;
lastChange = "2017-03-26 19:37:30 +0000";
layers = (
{
layerId = "8FFE84BD-9390-4D75-BABD-68166BF44E93";
paths = (
{
closed = 1;
nodes = (
"281 -123 LINE",
"281 -69 LINE",
"97 -69 LINE",
"142 -114 LINE",
"142 740 LINE",
"97 695 LINE",
"281 695 LINE",
"281 749 LINE",
"81 749 LINE",
"81 -123 LINE"
);
}
);
width = 322;
},
{
layerId = "0596A6ED-150F-4F1F-BF1E-4449A7B9DE21";
paths = (
{
closed = 1;
nodes = (
"289 -123 LINE",
"289 -56 LINE",
"110 -56 LINE",
"155 -101 LINE",
"155 727 LINE",
"110 682 LINE",
"289 682 LINE",
"289 749 LINE",
"79 749 LINE",
"79 -123 LINE"
);
}
);
width = 329;
},
{
layerId = "1FB77202-83CB-408E-8929-4AFC59A3446D";
paths = (
{
closed = 1;
nodes = (
"320 -123 LINE",
"320 -3 LINE",
"160 -3 LINE",
"205 -48 LINE",
"205 674 LINE",
"160 629 LINE",
"320 629 LINE",
"320 749 LINE",
"68 749 LINE",
"68 -123 LINE"
);
}
);
width = 355;
}
);
unicode = 005B;
},
{
glyphname = parenleft;
lastChange = "2017-03-26 19:38:45 +0000";
layers = (
{
layerId = "8FFE84BD-9390-4D75-BABD-68166BF44E93";
paths = (
{
closed = 1;
nodes = (
"213 -125 LINE",
"157 29 OFFCURVE",
"118 177 OFFCURVE",
"118 302 CURVE SMOOTH",
"118 417 OFFCURVE",
"170 636 OFFCURVE",
"213 750 CURVE",
"155 750 LINE",
"100 614 OFFCURVE",
"54 449 OFFCURVE",
"54 284 CURVE SMOOTH",
"54 151 OFFCURVE",
"113 -30 OFFCURVE",
"155 -125 CURVE"
);
}
);
width = 252;
},
{
layerId = "0596A6ED-150F-4F1F-BF1E-4449A7B9DE21";
paths = (
{
closed = 1;
nodes = (
"227 -125 LINE",
"172 24 OFFCURVE",
"132 180 OFFCURVE",
"132 295 CURVE SMOOTH",
"132 421 OFFCURVE",
"180 626 OFFCURVE",
"227 750 CURVE",
"155 750 LINE",
"91 594 OFFCURVE",
"51 444 OFFCURVE",
"51 303 CURVE SMOOTH",
"51 172 OFFCURVE",
"86 31 OFFCURVE",
"155 -125 CURVE"
);
}
);
width = 264;
},
{
layerId = "1FB77202-83CB-408E-8929-4AFC59A3446D";
paths = (
{
closed = 1;
nodes = (
"281 -125 LINE",
"224 26 OFFCURVE",
"186 172 OFFCURVE",
"186 301 CURVE SMOOTH",
"186 420 OFFCURVE",
"238 641 OFFCURVE",
"281 750 CURVE",
"154 750 LINE",
"91 630 OFFCURVE",
"38 459 OFFCURVE",
"38 301 CURVE SMOOTH",
"38 158 OFFCURVE",
"93 -32 OFFCURVE",
"154 -125 CURVE"
);
}
);
width = 308;
}
);
unicode = 0028;
},
{
glyphname = emdash;
lastChange = "2017-03-26 19:40:49 +0000";
layers = (
{
layerId = "8FFE84BD-9390-4D75-BABD-68166BF44E93";
paths = (
{
closed = 1;
nodes = (
"1068 241 LINE",
"1068 295 LINE",
"68 295 LINE",
"68 241 LINE"
);
}
);
width = 1136;
},
{
layerId = "0596A6ED-150F-4F1F-BF1E-4449A7B9DE21";
paths = (
{
closed = 1;
nodes = (
"1066 235 LINE",
"1066 301 LINE",
"66 301 LINE",
"66 235 LINE"
);
}
);
width = 1131;
},
{
layerId = "1FB77202-83CB-408E-8929-4AFC59A3446D";
paths = (
{
closed = 1;
nodes = (
"1057 209 LINE",
"1057 323 LINE",
"57 323 LINE",
"57 209 LINE"
);
}
);
width = 1114;
}
);
unicode = 2014;
},
{
glyphname = endash;
lastChange = "2017-03-26 19:40:54 +0000";
layers = (
{
layerId = "8FFE84BD-9390-4D75-BABD-68166BF44E93";
paths = (
{
closed = 1;
nodes = (
"568 241 LINE",
"568 295 LINE",
"68 295 LINE",
"68 241 LINE"
);
}
);
width = 636;
},
{
layerId = "0596A6ED-150F-4F1F-BF1E-4449A7B9DE21";
paths = (
{
closed = 1;
nodes = (
"566 235 LINE",
"566 301 LINE",
"66 301 LINE",
"66 235 LINE"
);
}
);
width = 631;
},
{
layerId = "1FB77202-83CB-408E-8929-4AFC59A3446D";
paths = (
{
closed = 1;
nodes = (
"557 209 LINE",
"557 323 LINE",
"57 323 LINE",
"57 209 LINE"
);
}
);
width = 614;
}
);
unicode = 2013;
},
{
glyphname = hyphen;
lastChange = "2017-03-26 19:40:58 +0000";
layers = (
{
layerId = "8FFE84BD-9390-4D75-BABD-68166BF44E93";
paths = (
{
closed = 1;
nodes = (
"375 249 LINE",
"375 305 LINE",
"71 305 LINE",
"71 249 LINE"
);
}
);
width = 445;
},
{
layerId = "0596A6ED-150F-4F1F-BF1E-4449A7B9DE21";
paths = (
{
closed = 1;
nodes = (
"371 240 LINE",
"371 310 LINE",
"68 310 LINE",
"68 240 LINE"
);
}
);
width = 438;
},
{
layerId = "1FB77202-83CB-408E-8929-4AFC59A3446D";
paths = (
{
closed = 1;
nodes = (
"352 205 LINE",
"352 327 LINE",
"56 327 LINE",
"56 205 LINE"
);
}
);
width = 408;
}
);
unicode = 002D;
},
{
glyphname = emdash.cap;
lastChange = "2017-03-26 19:41:02 +0000";
layers = (
{
layerId = "8FFE84BD-9390-4D75-BABD-68166BF44E93";
paths = (
{
closed = 1;
nodes = (
"1068 271 LINE",
"1068 325 LINE",
"68 325 LINE",
"68 271 LINE"
);
}
);
width = 1137;
},
{
layerId = "0596A6ED-150F-4F1F-BF1E-4449A7B9DE21";
paths = (
{
closed = 1;
nodes = (
"1067 265 LINE",
"1067 331 LINE",
"67 331 LINE",
"67 265 LINE"
);
}
);
width = 1133;
},
{
layerId = "1FB77202-83CB-408E-8929-4AFC59A3446D";
paths = (
{
closed = 1;
nodes = (
"1059 239 LINE",
"1059 353 LINE",
"59 353 LINE",
"59 239 LINE"
);
}
);
width = 1118;
}
);
},
{
glyphname = endash.cap;
lastChange = "2017-03-26 19:41:08 +0000";
layers = (
{
layerId = "8FFE84BD-9390-4D75-BABD-68166BF44E93";
paths = (
{
closed = 1;
nodes = (
"568 271 LINE",
"568 325 LINE",
"68 325 LINE",
"68 271 LINE"
);
}
);
width = 637;
},
{
layerId = "0596A6ED-150F-4F1F-BF1E-4449A7B9DE21";
paths = (
{
closed = 1;
nodes = (
"567 265 LINE",
"567 331 LINE",
"67 331 LINE",
"67 265 LINE"
);
}
);
width = 633;
},
{
layerId = "1FB77202-83CB-408E-8929-4AFC59A3446D";
paths = (
{
closed = 1;
nodes = (
"559 239 LINE",
"559 353 LINE",
"59 353 LINE",
"59 239 LINE"
);
}
);
width = 618;
}
);
},
{
glyphname = hyphen.cap;
lastChange = "2017-03-26 19:41:12 +0000";
layers = (
{
layerId = "8FFE84BD-9390-4D75-BABD-68166BF44E93";
paths = (
{
closed = 1;
nodes = (
"375 279 LINE",
"375 335 LINE",
"71 335 LINE",
"71 279 LINE"
);
}
);
width = 445;
},
{
layerId = "0596A6ED-150F-4F1F-BF1E-4449A7B9DE21";
paths = (
{
closed = 1;
nodes = (
"371 270 LINE",
"371 340 LINE",
"68 340 LINE",
"68 270 LINE"
);
}
);
width = 438;
},
{
layerId = "1FB77202-83CB-408E-8929-4AFC59A3446D";
paths = (
{
closed = 1;
nodes = (
"352 235 LINE",
"352 357 LINE",
"56 357 LINE",
"56 235 LINE"
);
}
);
width = 408;
}
);
},
{
glyphname = guillemotleft;
lastChange = "2017-03-26 19:41:20 +0000";
layers = (
{
layerId = "8FFE84BD-9390-4D75-BABD-68166BF44E93";
paths = (
{
closed = 1;
nodes = (
"453 142 LINE",
"324 251 LINE",
"453 350 LINE",
"453 413 LINE",
"272 275 LINE",
"272 224 LINE",
"453 78 LINE"
);
},
{
closed = 1;
nodes = (
"227 142 LINE",
"98 251 LINE",
"227 350 LINE",
"227 413 LINE",
"46 275 LINE",
"46 224 LINE",
"227 78 LINE"
);
}
);
width = 523;
},
{
layerId = "0596A6ED-150F-4F1F-BF1E-4449A7B9DE21";
paths = (
{
closed = 1;
nodes = (
"472 145 LINE",
"347 250 LINE",
"472 344 LINE",
"472 421 LINE",
"282 278 LINE",
"282 218 LINE",
"472 67 LINE"
);
},
{
closed = 1;
nodes = (
"234 145 LINE",
"110 250 LINE",
"234 344 LINE",
"234 421 LINE",
"45 278 LINE",
"45 218 LINE",
"234 67 LINE"
);
}
);
width = 539;
},
{
layerId = "1FB77202-83CB-408E-8929-4AFC59A3446D";
paths = (
{
closed = 1;
nodes = (
"546 158 LINE",
"437 244 LINE",
"546 319 LINE",
"546 454 LINE",
"323 290 LINE",
"323 194 LINE",
"546 23 LINE"
);
},
{
closed = 1;
nodes = (
"263 158 LINE",
"154 244 LINE",
"263 319 LINE",
"263 454 LINE",
"40 290 LINE",
"40 194 LINE",
"263 23 LINE"
);
}
);
width = 601;
}
);
unicode = 00AB;
},
{
glyphname = guilsinglleft;
lastChange = "2017-03-26 19:42:10 +0000";
layers = (
{
layerId = "8FFE84BD-9390-4D75-BABD-68166BF44E93";
paths = (
{
closed = 1;
nodes = (
"227 142 LINE",
"98 251 LINE",
"227 350 LINE",
"227 413 LINE",
"46 275 LINE",
"46 224 LINE",
"227 78 LINE"
);
}
);
width = 297;
},
{
layerId = "0596A6ED-150F-4F1F-BF1E-4449A7B9DE21";
paths = (
{
closed = 1;
nodes = (
"234 145 LINE",
"110 250 LINE",
"234 344 LINE",
"234 421 LINE",
"45 278 LINE",
"45 218 LINE",
"234 67 LINE"
);
}
);
width = 301;
},
{
layerId = "1FB77202-83CB-408E-8929-4AFC59A3446D";
paths = (
{
closed = 1;
nodes = (
"263 158 LINE",
"154 244 LINE",
"263 319 LINE",
"263 454 LINE",
"40 290 LINE",
"40 194 LINE",
"263 23 LINE"
);
}
);
width = 318;
}
);
unicode = 2039;
},
{
glyphname = quotedblbase;
lastChange = "2017-03-26 19:42:42 +0000";
layers = (
{
layerId = "8FFE84BD-9390-4D75-BABD-68166BF44E93";
paths = (
{
closed = 1;
nodes = (
"236 -100 LINE",
"278 111 LINE",
"230 111 LINE",
"172 -100 LINE"
);
},
{
closed = 1;
nodes = (
"93 -100 LINE",
"135 111 LINE",
"87 111 LINE",
"29 -100 LINE"
);
}
);
width = 343;
},
{
layerId = "0596A6ED-150F-4F1F-BF1E-4449A7B9DE21";
paths = (
{
closed = 1;
nodes = (
"253 -107 LINE",
"297 112 LINE",
"238 112 LINE",
"174 -107 LINE"
);
},
{
closed = 1;
nodes = (
"101 -107 LINE",
"145 112 LINE",
"86 112 LINE",
"22 -107 LINE"
);
}
);
width = 359;
},
{
layerId = "1FB77202-83CB-408E-8929-4AFC59A3446D";
paths = (
{
closed = 1;
nodes = (
"323 -130 LINE",
"371 117 LINE",
"268 117 LINE",
"183 -130 LINE"
);
},
{
closed = 1;
nodes = (
"133 -130 LINE",
"181 117 LINE",
"78 117 LINE",
"-7 -130 LINE"
);
}
);
width = 421;
}
);
unicode = 201E;
},
{
glyphname = quotedblleft;
lastChange = "2017-03-26 19:42:47 +0000";
layers = (
{
layerId = "8FFE84BD-9390-4D75-BABD-68166BF44E93";
paths = (
{
closed = 1;
nodes = (
"265 504 LINE",
"307 715 LINE",
"259 715 LINE",
"201 504 LINE"
);
},
{
closed = 1;
nodes = (
"119 504 LINE",
"161 715 LINE",
"113 715 LINE",
"55 504 LINE"
);
}
);
width = 355;
},
{
layerId = "0596A6ED-150F-4F1F-BF1E-4449A7B9DE21";
paths = (
{
closed = 1;
nodes = (
"283 489 LINE",
"327 708 LINE",
"268 708 LINE",
"204 489 LINE"
);
},
{
closed = 1;
nodes = (
"130 489 LINE",
"174 708 LINE",
"115 708 LINE",
"51 489 LINE"
);
}
);
width = 373;
},
{
layerId = "1FB77202-83CB-408E-8929-4AFC59A3446D";
paths = (
{
closed = 1;
nodes = (
"359 432 LINE",
"407 679 LINE",
"304 679 LINE",
"219 432 LINE"
);
},
{
closed = 1;
nodes = (
"175 432 LINE",
"223 679 LINE",
"120 679 LINE",
"35 432 LINE"
);
}
);
width = 443;
}
);
unicode = 201C;
},
{
glyphname = quotedblright;
lastChange = "2017-03-26 19:42:51 +0000";
layers = (
{
layerId = "8FFE84BD-9390-4D75-BABD-68166BF44E93";
paths = (
{
closed = 1;
nodes = (
"259 504 LINE",
"317 715 LINE",
"253 715 LINE",
"211 504 LINE"
);
},
{
closed = 1;
nodes = (
"105 504 LINE",
"163 715 LINE",
"99 715 LINE",
"57 504 LINE"
);
}
);
width = 361;
},
{
layerId = "0596A6ED-150F-4F1F-BF1E-4449A7B9DE21";
paths = (
{
closed = 1;
nodes = (
"272 490 LINE",
"336 709 LINE",
"257 709 LINE",
"213 490 LINE"
);
},
{
closed = 1;
nodes = (
"112 490 LINE",
"176 709 LINE",
"97 709 LINE",
"53 490 LINE"
);
}
);
width = 377;
},
{
layerId = "1FB77202-83CB-408E-8929-4AFC59A3446D";
paths = (
{
closed = 1;
nodes = (
"328 434 LINE",
"413 681 LINE",
"272 681 LINE",
"225 434 LINE"
);
},
{
closed = 1;
nodes = (
"143 434 LINE",
"229 681 LINE",
"88 681 LINE",
"41 434 LINE"
);
}
);
width = 439;
}
);
unicode = 201D;
},
{
glyphname = quoteleft;
lastChange = "2017-03-26 19:42:59 +0000";
layers = (
{
layerId = "8FFE84BD-9390-4D75-BABD-68166BF44E93";
paths = (
{
closed = 1;
nodes = (
"119 504 LINE",
"161 715 LINE",
"113 715 LINE",
"55 504 LINE"
);
}
);
width = 209;
},
{
layerId = "0596A6ED-150F-4F1F-BF1E-4449A7B9DE21";
paths = (
{
closed = 1;
nodes = (
"130 489 LINE",
"174 708 LINE",
"115 708 LINE",
"51 489 LINE"
);
}
);
width = 219;
},
{
layerId = "1FB77202-83CB-408E-8929-4AFC59A3446D";
paths = (
{
closed = 1;
nodes = (
"175 432 LINE",
"223 679 LINE",
"120 679 LINE",
"35 432 LINE"
);
}
);
width = 259;
}
);
unicode = 2018;
},
{
glyphname = quoteright;
lastChange = "2017-03-26 19:43:04 +0000";
layers = (
{
layerId = "8FFE84BD-9390-4D75-BABD-68166BF44E93";
paths = (
{
closed = 1;
nodes = (
"105 503 LINE",
"163 714 LINE",
"99 714 LINE",
"57 503 LINE"
);
}
);
width = 207;
},
{
layerId = "0596A6ED-150F-4F1F-BF1E-4449A7B9DE21";
paths = (
{
closed = 1;
nodes = (
"112 489 LINE",
"176 708 LINE",
"97 708 LINE",
"53 489 LINE"
);
}
);
width = 216;
},
{
layerId = "1FB77202-83CB-408E-8929-4AFC59A3446D";
paths = (
{
closed = 1;
nodes = (
"144 433 LINE",
"229 680 LINE",
"88 680 LINE",
"41 433 LINE"
);
}
);
width = 254;
}
);
unicode = 2019;
},
{
glyphname = quotesinglbase;
lastChange = "2017-03-26 19:44:08 +0000";
layers = (
{
layerId = "8FFE84BD-9390-4D75-BABD-68166BF44E93";
paths = (
{
closed = 1;
nodes = (
"95 -49 LINE",
"124 56 LINE",
"92 56 LINE",
"71 -49 LINE"
);
}
);
width = 208;
},
{
layerId = "0596A6ED-150F-4F1F-BF1E-4449A7B9DE21";
paths = (
{
closed = 1;
nodes = (
"125 -68 LINE",
"177 85 LINE",
"90 85 LINE",
"61 -68 LINE"
);
}
);
width = 218;
},
{
layerId = "1FB77202-83CB-408E-8929-4AFC59A3446D";
paths = (
{
closed = 1;
nodes = (
"126 -117 LINE",
"211 130 LINE",
"70 130 LINE",
"23 -117 LINE"
);
}
);
width = 256;
}
);
unicode = 201A;
},
